<?xml version="1.0" encoding="utf-8" standalone="no"?>
<!DOCTYPE svg PUBLIC "-//W3C//DTD SVG 1.1//EN"
  "http://www.w3.org/Graphics/SVG/1.1/DTD/svg11.dtd">
<svg xmlns:xlink="http://www.w3.org/1999/xlink" width="864pt" height="576pt" viewBox="0 0 864 576" xmlns="http://www.w3.org/2000/svg" version="1.1">
 <metadata>
  <rdf:RDF xmlns:dc="http://purl.org/dc/elements/1.1/" xmlns:cc="http://creativecommons.org/ns#" xmlns:rdf="http://www.w3.org/1999/02/22-rdf-syntax-ns#">
   <cc:Work>
    <dc:type rdf:resource="http://purl.org/dc/dcmitype/StillImage"/>
    <dc:date>2025-09-29T10:38:21.902696</dc:date>
    <dc:format>image/svg+xml</dc:format>
    <dc:creator>
     <cc:Agent>
      <dc:title>Matplotlib v3.10.6, https://matplotlib.org/</dc:title>
     </cc:Agent>
    </dc:creator>
   </cc:Work>
  </rdf:RDF>
 </metadata>
 <defs>
  <style type="text/css">*{stroke-linejoin: round; stroke-linecap: butt}</style>
 </defs>
 <g id="figure_1">
  <g id="patch_1">
   <path d="M 0 576 
L 864 576 
L 864 0 
L 0 0 
z
" style="fill: #ffffff"/>
  </g>
  <g id="axes_1">
   <g id="patch_2">
    <path d="M 12.333333 565.2 
L 851.666667 565.2 
L 851.666667 25.628571 
L 12.333333 25.628571 
z
" style="fill: #ffffff"/>
   </g>
   <g id="patch_3">
    <path d="M 192.190476 409.32381 
C 198.550299 409.32381 204.650496 406.797025 209.14757 402.299951 
C 213.644644 397.802877 216.171429 391.70268 216.171429 385.342857 
C 216.171429 378.983034 213.644644 372.882837 209.14757 368.385763 
C 204.650496 363.888689 198.550299 361.361905 192.190476 361.361905 
C 185.830653 361.361905 179.730456 363.888689 175.233382 368.385763 
C 170.736308 372.882837 168.209524 378.983034 168.209524 385.342857 
C 168.209524 391.70268 170.736308 397.802877 175.233382 402.299951 
C 179.730456 406.797025 185.830653 409.32381 192.190476 409.32381 
z
" clip-path="url(#p790064ff92)" style="fill: #ffbf00; stroke: #000000; stroke-width: 3; stroke-linejoin: miter"/>
   </g>
   <g id="patch_4">
    <path d="M 312.095238 409.32381 
C 318.455061 409.32381 324.555258 406.797025 329.052332 402.299951 
C 333.549406 397.802877 336.07619 391.70268 336.07619 385.342857 
C 336.07619 378.983034 333.549406 372.882837 329.052332 368.385763 
C 324.555258 363.888689 318.455061 361.361905 312.095238 361.361905 
C 305.735415 361.361905 299.635218 363.888689 295.138144 368.385763 
C 290.64107 372.882837 288.114286 378.983034 288.114286 385.342857 
C 288.114286 391.70268 290.64107 397.802877 295.138144 402.299951 
C 299.635218 406.797025 305.735415 409.32381 312.095238 409.32381 
z
" clip-path="url(#p790064ff92)" style="fill: #ffbf00; stroke: #000000; stroke-width: 3; stroke-linejoin: miter"/>
   </g>
   <g id="patch_5">
    <path d="M 432 409.32381 
C 438.359823 409.32381 444.46002 406.797025 448.957094 402.299951 
C 453.454168 397.802877 455.980952 391.70268 455.980952 385.342857 
C 455.980952 378.983034 453.454168 372.882837 448.957094 368.385763 
C 444.46002 363.888689 438.359823 361.361905 432 361.361905 
C 425.640177 361.361905 419.53998 363.888689 415.042906 368.385763 
C 410.545832 372.882837 408.019048 378.983034 408.019048 385.342857 
C 408.019048 391.70268 410.545832 397.802877 415.042906 402.299951 
C 419.53998 406.797025 425.640177 409.32381 432 409.32381 
z
" clip-path="url(#p790064ff92)" style="fill: #ffbf00; stroke: #000000; stroke-width: 3; stroke-linejoin: miter"/>
   </g>
   <g id="patch_6">
    <path d="M 551.904762 409.32381 
C 558.264585 409.32381 564.364782 406.797025 568.861856 402.299951 
C 573.35893 397.802877 575.885714 391.70268 575.885714 385.342857 
C 575.885714 378.983034 573.35893 372.882837 568.861856 368.385763 
C 564.364782 363.888689 558.264585 361.361905 551.904762 361.361905 
C 545.544939 361.361905 539.444742 363.888689 534.947668 368.385763 
C 530.450594 372.882837 527.92381 378.983034 527.92381 385.342857 
C 527.92381 391.70268 530.450594 397.802877 534.947668 402.299951 
C 539.444742 406.797025 545.544939 409.32381 551.904762 409.32381 
z
" clip-path="url(#p790064ff92)" style="fill: #ffbf00; stroke: #000000; stroke-width: 3; stroke-linejoin: miter"/>
   </g>
   <g id="patch_7">
    <path d="M 240.152381 289.419048 
C 246.512204 289.419048 252.612401 286.892263 257.109475 282.395189 
C 261.606549 277.898115 264.133333 271.797918 264.133333 265.438095 
C 264.133333 259.078272 261.606549 252.978075 257.109475 248.481001 
C 252.612401 243.983927 246.512204 241.457143 240.152381 241.457143 
C 233.792558 241.457143 227.692361 243.983927 223.195287 248.481001 
C 218.698213 252.978075 216.171429 259.078272 216.171429 265.438095 
C 216.171429 271.797918 218.698213 277.898115 223.195287 282.395189 
C 227.692361 286.892263 233.792558 289.419048 240.152381 289.419048 
z
" clip-path="url(#p790064ff92)" style="fill: #4ea3ff; stroke: #000000; stroke-width: 3; stroke-linejoin: miter"/>
   </g>
   <g id="patch_8">
    <path d="M 240.152381 271.433333 
C 241.742337 271.433333 243.267386 270.801637 244.391654 269.677369 
C 245.515923 268.5531 246.147619 267.028051 246.147619 265.438095 
C 246.147619 263.84814 245.515923 262.32309 244.391654 261.198822 
C 243.267386 260.074553 241.742337 259.442857 240.152381 259.442857 
C 238.562425 259.442857 237.037376 260.074553 235.913107 261.198822 
C 234.788839 262.32309 234.157143 263.84814 234.157143 265.438095 
C 234.157143 267.028051 234.788839 268.5531 235.913107 269.677369 
C 237.037376 270.801637 238.562425 271.433333 240.152381 271.433333 
z
" clip-path="url(#p790064ff92)" style="fill: #ffffff; stroke: #ffffff; stroke-width: 2; stroke-linejoin: miter"/>
   </g>
   <g id="patch_9">
    <path d="M 240.152381 169.514286 
C 246.512204 169.514286 252.612401 166.987501 257.109475 162.490427 
C 261.606549 157.993353 264.133333 151.893156 264.133333 145.533333 
C 264.133333 139.17351 261.606549 133.073313 257.109475 128.576239 
C 252.612401 124.079165 246.512204 121.552381 240.152381 121.552381 
C 233.792558 121.552381 227.692361 124.079165 223.195287 128.576239 
C 218.698213 133.073313 216.171429 139.17351 216.171429 145.533333 
C 216.171429 151.893156 218.698213 157.993353 223.195287 162.490427 
C 227.692361 166.987501 233.792558 169.514286 240.152381 169.514286 
z
" clip-path="url(#p790064ff92)" style="fill: #4ea3ff; stroke: #000000; stroke-width: 3; stroke-linejoin: miter"/>
   </g>
   <g id="matplotlib.axis_1"/>
   <g id="matplotlib.axis_2"/>
   <g id="line2d_1">
    <path d="M 312.095238 385.342857 
" clip-path="url(#p790064ff92)" style="fill: none; stroke: #000000; stroke-width: 1.5; stroke-linecap: square"/>
    <defs>
     <path id="mfa1b27a756" d="M 0 1.4 
C 0.371284 1.4 0.727412 1.252487 0.989949 0.989949 
C 1.252487 0.727412 1.4 0.371284 1.4 0 
C 1.4 -0.371284 1.252487 -0.727412 0.989949 -0.989949 
C 0.727412 -1.252487 0.371284 -1.4 0 -1.4 
C -0.371284 -1.4 -0.727412 -1.252487 -0.989949 -0.989949 
C -1.252487 -0.727412 -1.4 -0.371284 -1.4 0 
C -1.4 0.371284 -1.252487 0.727412 -0.989949 0.989949 
C -0.727412 1.252487 -0.371284 1.4 0 1.4 
z
" style="stroke: #000000"/>
    </defs>
    <g clip-path="url(#p790064ff92)">
     <use xlink:href="#mfa1b27a756" x="312.095238" y="385.342857" style="stroke: #000000"/>
    </g>
   </g>
   <g id="text_1">
    <!-- Gal -->
    <g transform="translate(179.321414 425.95686) scale(0.14 -0.14)">
     <defs>
      <path id="DejaVuSans-Bold-47" d="M 4781 347 
Q 4331 128 3847 18 
Q 3363 -91 2847 -91 
Q 1681 -91 1000 561 
Q 319 1213 319 2328 
Q 319 3456 1012 4103 
Q 1706 4750 2913 4750 
Q 3378 4750 3804 4662 
Q 4231 4575 4609 4403 
L 4609 3438 
Q 4219 3659 3833 3768 
Q 3447 3878 3059 3878 
Q 2341 3878 1952 3476 
Q 1563 3075 1563 2328 
Q 1563 1588 1938 1184 
Q 2313 781 3003 781 
Q 3191 781 3352 804 
Q 3513 828 3641 878 
L 3641 1784 
L 2906 1784 
L 2906 2591 
L 4781 2591 
L 4781 347 
z
" transform="scale(0.015625)"/>
      <path id="DejaVuSans-Bold-61" d="M 2106 1575 
Q 1756 1575 1579 1456 
Q 1403 1338 1403 1106 
Q 1403 894 1545 773 
Q 1688 653 1941 653 
Q 2256 653 2472 879 
Q 2688 1106 2688 1447 
L 2688 1575 
L 2106 1575 
z
M 3816 1997 
L 3816 0 
L 2688 0 
L 2688 519 
Q 2463 200 2181 54 
Q 1900 -91 1497 -91 
Q 953 -91 614 226 
Q 275 544 275 1050 
Q 275 1666 698 1953 
Q 1122 2241 2028 2241 
L 2688 2241 
L 2688 2328 
Q 2688 2594 2478 2717 
Q 2269 2841 1825 2841 
Q 1466 2841 1156 2769 
Q 847 2697 581 2553 
L 581 3406 
Q 941 3494 1303 3539 
Q 1666 3584 2028 3584 
Q 2975 3584 3395 3211 
Q 3816 2838 3816 1997 
z
" transform="scale(0.015625)"/>
      <path id="DejaVuSans-Bold-6c" d="M 538 4863 
L 1656 4863 
L 1656 0 
L 538 0 
L 538 4863 
z
" transform="scale(0.015625)"/>
     </defs>
     <use xlink:href="#DejaVuSans-Bold-47"/>
     <use xlink:href="#DejaVuSans-Bold-61" transform="translate(82.080078 0)"/>
     <use xlink:href="#DejaVuSans-Bold-6c" transform="translate(149.560547 0)"/>
    </g>
   </g>
   <g id="text_2">
    <!-- Gal -->
    <g transform="translate(299.226176 425.95686) scale(0.14 -0.14)">
     <use xlink:href="#DejaVuSans-Bold-47"/>
     <use xlink:href="#DejaVuSans-Bold-61" transform="translate(82.080078 0)"/>
     <use xlink:href="#DejaVuSans-Bold-6c" transform="translate(149.560547 0)"/>
    </g>
   </g>
   <g id="text_3">
    <!-- Gal -->
    <g transform="translate(419.130938 425.95686) scale(0.14 -0.14)">
     <use xlink:href="#DejaVuSans-Bold-47"/>
     <use xlink:href="#DejaVuSans-Bold-61" transform="translate(82.080078 0)"/>
     <use xlink:href="#DejaVuSans-Bold-6c" transform="translate(149.560547 0)"/>
    </g>
   </g>
   <g id="text_4">
    <!-- Gal -->
    <g transform="translate(539.035699 425.95686) scale(0.14 -0.14)">
     <use xlink:href="#DejaVuSans-Bold-47"/>
     <use xlink:href="#DejaVuSans-Bold-61" transform="translate(82.080078 0)"/>
     <use xlink:href="#DejaVuSans-Bold-6c" transform="translate(149.560547 0)"/>
    </g>
   </g>
   <g id="patch_10">
    <path d="M 194.19206 385.342857 
Q 252.145171 385.342857 306.74418 385.342857 
" style="fill: none; stroke: #000000; stroke-width: 3; stroke-linecap: round"/>
    <path d="M 300.74418 382.342857 
L 306.74418 385.342857 
L 300.74418 388.342857 
" style="fill: none; stroke: #000000; stroke-width: 3; stroke-linecap: round"/>
   </g>
   <g id="text_5">
    <!-- β1-3 -->
    <g transform="translate(234.486451 365.320186) scale(0.14 -0.14)">
     <defs>
      <path id="DejaVuSans-Bold-3b2" d="M 2575 3038 
Q 2772 3309 2772 3503 
Q 2772 3769 2648 3948 
Q 2525 4128 2241 4128 
Q 1900 4128 1778 3864 
Q 1656 3600 1656 3103 
L 1656 1747 
Q 1656 1250 1848 986 
Q 2041 722 2400 722 
Q 2800 722 2953 934 
Q 3106 1147 3106 1275 
Q 3106 1722 2738 1988 
Q 2538 2122 1988 2134 
L 1988 2847 
Q 2497 2925 2575 3038 
z
M 538 -1331 
L 538 3044 
Q 538 3922 969 4369 
Q 1325 4741 1672 4845 
Q 2019 4950 2259 4950 
Q 2500 4947 2538 4941 
Q 3178 4841 3538 4438 
Q 3788 4163 3788 3600 
Q 3788 3313 3616 3053 
Q 3406 2734 3094 2709 
Q 3556 2584 3844 2322 
Q 4294 1919 4294 1288 
Q 4294 731 3903 320 
Q 3513 -91 2809 -91 
Q 2106 -91 1656 506 
L 1656 -1331 
L 538 -1331 
z
" transform="scale(0.015625)"/>
      <path id="DejaVuSans-Bold-31" d="M 750 831 
L 1813 831 
L 1813 3847 
L 722 3622 
L 722 4441 
L 1806 4666 
L 2950 4666 
L 2950 831 
L 4013 831 
L 4013 0 
L 750 0 
L 750 831 
z
" transform="scale(0.015625)"/>
      <path id="DejaVuSans-Bold-2d" d="M 347 2297 
L 2309 2297 
L 2309 1388 
L 347 1388 
L 347 2297 
z
" transform="scale(0.015625)"/>
      <path id="DejaVuSans-Bold-33" d="M 2981 2516 
Q 3453 2394 3698 2092 
Q 3944 1791 3944 1325 
Q 3944 631 3412 270 
Q 2881 -91 1863 -91 
Q 1503 -91 1142 -33 
Q 781 25 428 141 
L 428 1069 
Q 766 900 1098 814 
Q 1431 728 1753 728 
Q 2231 728 2486 893 
Q 2741 1059 2741 1369 
Q 2741 1688 2480 1852 
Q 2219 2016 1709 2016 
L 1228 2016 
L 1228 2791 
L 1734 2791 
Q 2188 2791 2409 2933 
Q 2631 3075 2631 3366 
Q 2631 3634 2415 3781 
Q 2200 3928 1806 3928 
Q 1516 3928 1219 3862 
Q 922 3797 628 3669 
L 628 4550 
Q 984 4650 1334 4700 
Q 1684 4750 2022 4750 
Q 2931 4750 3382 4451 
Q 3834 4153 3834 3553 
Q 3834 3144 3618 2883 
Q 3403 2622 2981 2516 
z
" transform="scale(0.015625)"/>
     </defs>
     <use xlink:href="#DejaVuSans-Bold-3b2"/>
     <use xlink:href="#DejaVuSans-Bold-31" transform="translate(71.582031 0)"/>
     <use xlink:href="#DejaVuSans-Bold-2d" transform="translate(141.162109 0)"/>
     <use xlink:href="#DejaVuSans-Bold-33" transform="translate(182.666016 0)"/>
    </g>
   </g>
   <g id="patch_11">
    <path d="M 314.096822 385.342857 
Q 372.049933 385.342857 426.648942 385.342857 
" style="fill: none; stroke: #000000; stroke-width: 3; stroke-linecap: round"/>
    <path d="M 420.648942 382.342857 
L 426.648942 385.342857 
L 420.648942 388.342857 
" style="fill: none; stroke: #000000; stroke-width: 3; stroke-linecap: round"/>
   </g>
   <g id="text_6">
    <!-- β1-4 -->
    <g transform="translate(354.391213 365.320186) scale(0.14 -0.14)">
     <defs>
      <path id="DejaVuSans-Bold-34" d="M 2356 3675 
L 1038 1722 
L 2356 1722 
L 2356 3675 
z
M 2156 4666 
L 3494 4666 
L 3494 1722 
L 4159 1722 
L 4159 850 
L 3494 850 
L 3494 0 
L 2356 0 
L 2356 850 
L 288 850 
L 288 1881 
L 2156 4666 
z
" transform="scale(0.015625)"/>
     </defs>
     <use xlink:href="#DejaVuSans-Bold-3b2"/>
     <use xlink:href="#DejaVuSans-Bold-31" transform="translate(71.582031 0)"/>
     <use xlink:href="#DejaVuSans-Bold-2d" transform="translate(141.162109 0)"/>
     <use xlink:href="#DejaVuSans-Bold-34" transform="translate(182.666016 0)"/>
    </g>
   </g>
   <g id="patch_12">
    <path d="M 434.001584 385.342857 
Q 491.954695 385.342857 546.553704 385.342857 
" style="fill: none; stroke: #000000; stroke-width: 3; stroke-linecap: round"/>
    <path d="M 540.553704 382.342857 
L 546.553704 385.342857 
L 540.553704 388.342857 
" style="fill: none; stroke: #000000; stroke-width: 3; stroke-linecap: round"/>
   </g>
   <g id="text_7">
    <!-- β1-6 -->
    <g transform="translate(474.295975 365.320186) scale(0.14 -0.14)">
     <defs>
      <path id="DejaVuSans-Bold-36" d="M 2316 2303 
Q 2000 2303 1842 2098 
Q 1684 1894 1684 1484 
Q 1684 1075 1842 870 
Q 2000 666 2316 666 
Q 2634 666 2792 870 
Q 2950 1075 2950 1484 
Q 2950 1894 2792 2098 
Q 2634 2303 2316 2303 
z
M 3803 4544 
L 3803 3681 
Q 3506 3822 3243 3889 
Q 2981 3956 2731 3956 
Q 2194 3956 1894 3657 
Q 1594 3359 1544 2772 
Q 1750 2925 1990 3001 
Q 2231 3078 2516 3078 
Q 3231 3078 3670 2659 
Q 4109 2241 4109 1563 
Q 4109 813 3618 361 
Q 3128 -91 2303 -91 
Q 1394 -91 895 523 
Q 397 1138 397 2266 
Q 397 3422 980 4083 
Q 1563 4744 2578 4744 
Q 2900 4744 3203 4694 
Q 3506 4644 3803 4544 
z
" transform="scale(0.015625)"/>
     </defs>
     <use xlink:href="#DejaVuSans-Bold-3b2"/>
     <use xlink:href="#DejaVuSans-Bold-31" transform="translate(71.582031 0)"/>
     <use xlink:href="#DejaVuSans-Bold-2d" transform="translate(141.162109 0)"/>
     <use xlink:href="#DejaVuSans-Bold-36" transform="translate(182.666016 0)"/>
    </g>
   </g>
   <g id="patch_13">
    <path d="M 553.906346 385.342857 
Q 611.859457 385.342857 666.458466 385.342857 
" style="fill: none; stroke: #000000; stroke-width: 3; stroke-linecap: round"/>
    <path d="M 660.458466 382.342857 
L 666.458466 385.342857 
L 660.458466 388.342857 
" style="fill: none; stroke: #000000; stroke-width: 3; stroke-linecap: round"/>
   </g>
   <g id="text_8">
    <!-- β1-4 -->
    <g transform="translate(594.200737 365.320186) scale(0.14 -0.14)">
     <use xlink:href="#DejaVuSans-Bold-3b2"/>
     <use xlink:href="#DejaVuSans-Bold-31" transform="translate(71.582031 0)"/>
     <use xlink:href="#DejaVuSans-Bold-2d" transform="translate(141.162109 0)"/>
     <use xlink:href="#DejaVuSans-Bold-34" transform="translate(182.666016 0)"/>
    </g>
   </g>
   <g id="patch_14">
    <path d="M 241.182081 267.154261 
Q 276.124686 325.391937 309.34162 380.753494 
" style="fill: none; stroke: #000000; stroke-width: 3; stroke-linecap: round"/>
    <path d="M 308.827125 374.06505 
L 309.34162 380.753494 
L 303.682167 377.152024 
" style="fill: none; stroke: #000000; stroke-width: 3; stroke-linecap: round"/>
   </g>
   <g id="text_9">
    <!-- α1-2 -->
    <g transform="translate(278.225051 303.773696) rotate(-300.963757) scale(0.14 -0.14)">
     <defs>
      <path id="DejaVuSans-Bold-3b1" d="M 3006 3163 
L 3119 3500 
L 4088 3500 
L 3484 1697 
L 3569 1219 
Q 3659 703 3872 703 
L 4128 703 
L 4128 0 
L 3809 0 
Q 3313 0 3059 263 
Q 3003 322 2988 353 
Q 2838 163 2689 39 
Q 2541 -84 1763 -78 
Q 988 -72 648 400 
Q 309 872 309 1794 
Q 309 2713 663 3088 
Q 1109 3569 1966 3578 
Q 2688 3588 3006 3163 
z
M 2575 1841 
L 2481 2350 
Q 2394 2825 1981 2828 
Q 1772 2828 1598 2558 
Q 1425 2288 1425 1741 
Q 1425 1191 1581 944 
Q 1738 697 1969 691 
Q 2213 684 2363 1163 
L 2575 1841 
z
" transform="scale(0.015625)"/>
      <path id="DejaVuSans-Bold-32" d="M 1844 884 
L 3897 884 
L 3897 0 
L 506 0 
L 506 884 
L 2209 2388 
Q 2438 2594 2547 2791 
Q 2656 2988 2656 3200 
Q 2656 3528 2436 3728 
Q 2216 3928 1850 3928 
Q 1569 3928 1234 3808 
Q 900 3688 519 3450 
L 519 4475 
Q 925 4609 1322 4679 
Q 1719 4750 2100 4750 
Q 2938 4750 3402 4381 
Q 3866 4013 3866 3353 
Q 3866 2972 3669 2642 
Q 3472 2313 2841 1759 
L 1844 884 
z
" transform="scale(0.015625)"/>
     </defs>
     <use xlink:href="#DejaVuSans-Bold-3b1"/>
     <use xlink:href="#DejaVuSans-Bold-31" transform="translate(68.701172 0)"/>
     <use xlink:href="#DejaVuSans-Bold-2d" transform="translate(138.28125 0)"/>
     <use xlink:href="#DejaVuSans-Bold-32" transform="translate(179.785156 0)"/>
    </g>
   </g>
   <g id="text_10">
    <!-- GlcA -->
    <g transform="translate(174.751815 269.30122) scale(0.14 -0.14)">
     <defs>
      <path id="DejaVuSans-Bold-63" d="M 3366 3391 
L 3366 2478 
Q 3138 2634 2908 2709 
Q 2678 2784 2431 2784 
Q 1963 2784 1702 2511 
Q 1441 2238 1441 1747 
Q 1441 1256 1702 982 
Q 1963 709 2431 709 
Q 2694 709 2930 787 
Q 3166 866 3366 1019 
L 3366 103 
Q 3103 6 2833 -42 
Q 2563 -91 2291 -91 
Q 1344 -91 809 395 
Q 275 881 275 1747 
Q 275 2613 809 3098 
Q 1344 3584 2291 3584 
Q 2566 3584 2833 3536 
Q 3100 3488 3366 3391 
z
" transform="scale(0.015625)"/>
      <path id="DejaVuSans-Bold-41" d="M 3419 850 
L 1538 850 
L 1241 0 
L 31 0 
L 1759 4666 
L 3194 4666 
L 4922 0 
L 3713 0 
L 3419 850 
z
M 1838 1716 
L 3116 1716 
L 2478 3572 
L 1838 1716 
z
" transform="scale(0.015625)"/>
     </defs>
     <use xlink:href="#DejaVuSans-Bold-47"/>
     <use xlink:href="#DejaVuSans-Bold-6c" transform="translate(82.080078 0)"/>
     <use xlink:href="#DejaVuSans-Bold-63" transform="translate(116.357422 0)"/>
     <use xlink:href="#DejaVuSans-Bold-41" transform="translate(175.634766 0)"/>
    </g>
   </g>
   <g id="patch_15">
    <path d="M 240.152381 147.534917 
Q 240.152381 205.488028 240.152381 260.087037 
" style="fill: none; stroke: #000000; stroke-width: 3; stroke-linecap: round"/>
    <path d="M 243.152381 254.087037 
L 240.152381 260.087037 
L 237.152381 254.087037 
" style="fill: none; stroke: #000000; stroke-width: 3; stroke-linecap: round"/>
   </g>
   <g id="text_11">
    <!-- β1-4 -->
    <g transform="translate(260.097829 209.443996) scale(0.14 -0.14)">
     <use xlink:href="#DejaVuSans-Bold-3b2"/>
     <use xlink:href="#DejaVuSans-Bold-31" transform="translate(71.582031 0)"/>
     <use xlink:href="#DejaVuSans-Bold-2d" transform="translate(141.162109 0)"/>
     <use xlink:href="#DejaVuSans-Bold-34" transform="translate(182.666016 0)"/>
    </g>
   </g>
   <g id="text_12">
    <!-- Glc -->
    <g transform="translate(185.586503 149.396458) scale(0.14 -0.14)">
     <use xlink:href="#DejaVuSans-Bold-47"/>
     <use xlink:href="#DejaVuSans-Bold-6c" transform="translate(82.080078 0)"/>
     <use xlink:href="#DejaVuSans-Bold-63" transform="translate(116.357422 0)"/>
    </g>
   </g>
   <g id="text_13">
    <!-- K15 -->
    <g transform="translate(420.430313 13.628571) scale(0.12 -0.12)">
     <defs>
      <path id="DejaVuSans-4b" d="M 628 4666 
L 1259 4666 
L 1259 2694 
L 3353 4666 
L 4166 4666 
L 1850 2491 
L 4331 0 
L 3500 0 
L 1259 2247 
L 1259 0 
L 628 0 
L 628 4666 
z
" transform="scale(0.015625)"/>
      <path id="DejaVuSans-31" d="M 794 531 
L 1825 531 
L 1825 4091 
L 703 3866 
L 703 4441 
L 1819 4666 
L 2450 4666 
L 2450 531 
L 3481 531 
L 3481 0 
L 794 0 
L 794 531 
z
" transform="scale(0.015625)"/>
      <path id="DejaVuSans-35" d="M 691 4666 
L 3169 4666 
L 3169 4134 
L 1269 4134 
L 1269 2991 
Q 1406 3038 1543 3061 
Q 1681 3084 1819 3084 
Q 2600 3084 3056 2656 
Q 3513 2228 3513 1497 
Q 3513 744 3044 326 
Q 2575 -91 1722 -91 
Q 1428 -91 1123 -41 
Q 819 9 494 109 
L 494 744 
Q 775 591 1075 516 
Q 1375 441 1709 441 
Q 2250 441 2565 725 
Q 2881 1009 2881 1497 
Q 2881 1984 2565 2268 
Q 2250 2553 1709 2553 
Q 1456 2553 1204 2497 
Q 953 2441 691 2322 
L 691 4666 
z
" transform="scale(0.015625)"/>
     </defs>
     <use xlink:href="#DejaVuSans-4b"/>
     <use xlink:href="#DejaVuSans-31" transform="translate(65.576172 0)"/>
     <use xlink:href="#DejaVuSans-35" transform="translate(129.199219 0)"/>
    </g>
   </g>
  </g>
 </g>
 <defs>
  <clipPath id="p790064ff92">
   <rect x="12.333333" y="25.628571" width="839.333333" height="539.571429"/>
  </clipPath>
 </defs>
</svg>
