<?xml version="1.0" encoding="UTF-8"?>
<svg id="Warstwa_1" xmlns="http://www.w3.org/2000/svg" xmlns:xlink="http://www.w3.org/1999/xlink" version="1.1" viewBox="0 0 864 576">
  <!-- Generator: Adobe Illustrator 30.2.1, SVG Export Plug-In . SVG Version: 2.1.1 Build 1)  -->
  <defs>
    <style>
      .st0, .st1, .st2 {
        fill: none;
      }

      .st1 {
        stroke-linecap: round;
      }

      .st1, .st3, .st2, .st4, .st5, .st6 {
        stroke: #000;
      }

      .st1, .st3, .st5 {
        stroke-width: 3px;
      }

      .st1, .st2, .st6 {
        stroke-linejoin: round;
      }

      .st3 {
        fill: #4ea3ff;
      }

      .st7 {
        stroke: #fff;
        stroke-width: 2px;
      }

      .st7, .st8 {
        fill: #fff;
      }

      .st9 {
        clip-path: url(#clippath-1);
      }

      .st10 {
        clip-path: url(#clippath-3);
      }

      .st11 {
        clip-path: url(#clippath-4);
      }

      .st12 {
        clip-path: url(#clippath-2);
      }

      .st13 {
        clip-path: url(#clippath-7);
      }

      .st14 {
        clip-path: url(#clippath-6);
      }

      .st15 {
        clip-path: url(#clippath-8);
      }

      .st16 {
        clip-path: url(#clippath-5);
      }

      .st2 {
        stroke-linecap: square;
      }

      .st2, .st4 {
        stroke-width: 1.5px;
      }

      .st4 {
        fill: #6c757d;
      }

      .st5 {
        fill: #ffbf00;
      }

      .st17 {
        clip-path: url(#clippath);
      }
    </style>
    <clipPath id="clippath">
      <rect class="st0" x="135.7" y="31.8" width="592.7" height="533.4"/>
    </clipPath>
    <clipPath id="clippath-1">
      <rect class="st0" x="135.7" y="31.8" width="592.7" height="533.4"/>
    </clipPath>
    <clipPath id="clippath-2">
      <rect class="st0" x="135.7" y="31.8" width="592.7" height="533.4"/>
    </clipPath>
    <clipPath id="clippath-3">
      <rect class="st0" x="135.7" y="31.8" width="592.7" height="533.4"/>
    </clipPath>
    <clipPath id="clippath-4">
      <rect class="st0" x="135.7" y="31.8" width="592.7" height="533.4"/>
    </clipPath>
    <clipPath id="clippath-5">
      <rect class="st0" x="135.7" y="31.8" width="592.7" height="533.4"/>
    </clipPath>
    <clipPath id="clippath-6">
      <rect class="st0" x="135.7" y="31.8" width="592.7" height="533.4"/>
    </clipPath>
    <clipPath id="clippath-7">
      <rect class="st0" x="135.7" y="31.8" width="592.7" height="533.4"/>
    </clipPath>
    <clipPath id="clippath-8">
      <rect class="st0" x="135.7" y="31.8" width="592.7" height="533.4"/>
    </clipPath>
  </defs>
  <g id="patch_1">
    <path class="st8" d="M0,576h864V0H0v576Z"/>
  </g>
  <g id="axes_1">
    <g id="patch_2">
      <path class="st8" d="M135.7,565.2h592.7V31.8H135.7v533.4Z"/>
    </g>
    <g id="patch_3">
      <g class="st17">
        <path class="st3" d="M313.5,411.1c6.3,0,12.3-2.5,16.8-6.9,4.4-4.4,6.9-10.5,6.9-16.8s-2.5-12.3-6.9-16.8-10.5-6.9-16.8-6.9-12.3,2.5-16.8,6.9c-4.4,4.4-6.9,10.5-6.9,16.8s2.5,12.3,6.9,16.8,10.5,6.9,16.8,6.9Z"/>
      </g>
    </g>
    <g id="patch_4">
      <g class="st9">
        <path class="st5" d="M432,411.1c6.3,0,12.3-2.5,16.8-6.9,4.4-4.4,6.9-10.5,6.9-16.8s-2.5-12.3-6.9-16.8c-4.4-4.4-10.5-6.9-16.8-6.9s-12.3,2.5-16.8,6.9c-4.4,4.4-6.9,10.5-6.9,16.8s2.5,12.3,6.9,16.8c4.4,4.4,10.5,6.9,16.8,6.9Z"/>
      </g>
    </g>
    <g id="patch_5">
      <g class="st12">
        <path class="st3" d="M360.9,292.6c6.3,0,12.3-2.5,16.8-6.9,4.4-4.4,6.9-10.5,6.9-16.8s-2.5-12.3-6.9-16.8c-4.4-4.4-10.5-6.9-16.8-6.9s-12.3,2.5-16.8,6.9c-4.4,4.4-6.9,10.5-6.9,16.8s2.5,12.3,6.9,16.8c4.4,4.4,10.5,6.9,16.8,6.9Z"/>
      </g>
    </g>
    <g id="patch_6">
      <g class="st10">
        <path class="st3" d="M360.9,174c6.3,0,12.3-2.5,16.8-6.9,4.4-4.4,6.9-10.5,6.9-16.8s-2.5-12.3-6.9-16.8c-4.4-4.4-10.5-6.9-16.8-6.9s-12.3,2.5-16.8,6.9-6.9,10.5-6.9,16.8,2.5,12.3,6.9,16.8c4.4,4.4,10.5,6.9,16.8,6.9Z"/>
      </g>
    </g>
    <g id="patch_7">
      <g class="st11">
        <path class="st7" d="M360.9,156.3c1.6,0,3.1-.6,4.2-1.7,1.1-1.1,1.7-2.6,1.7-4.2s-.6-3.1-1.7-4.2c-1.1-1.1-2.6-1.7-4.2-1.7s-3.1.6-4.2,1.7-1.7,2.6-1.7,4.2.6,3.1,1.7,4.2c1.1,1.1,2.6,1.7,4.2,1.7Z"/>
      </g>
    </g>
    <g id="patch_8">
      <g class="st16">
        <path class="st4" d="M405.3,81.2c2.1,0,4.1-.8,5.6-2.3,1.5-1.5,2.3-3.5,2.3-5.6s-.8-4.1-2.3-5.6c-1.5-1.5-3.5-2.3-5.6-2.3s-4.1.8-5.6,2.3-2.3,3.5-2.3,5.6.8,4.1,2.3,5.6,3.5,2.3,5.6,2.3Z"/>
      </g>
    </g>
    <g id="line2d_1">
      <g class="st14">
        <path class="st2" d="M432,387.4"/>
      </g>
      <g class="st13">
        <path id="mf451ef1fee" class="st6" d="M432,388.8c.4,0,.7-.1,1-.4.3-.3.4-.6.4-1s-.1-.7-.4-1c-.3-.3-.6-.4-1-.4s-.7.1-1,.4c-.3.3-.4.6-.4,1s.1.7.4,1c.3.3.6.4,1,.4Z"/>
      </g>
    </g>
    <g id="line2d_2">
      <g class="st15">
        <path class="st2" d="M372.7,129.8l32.6-56.5"/>
      </g>
    </g>
    <g id="text_1">
      <g>
        <path id="DejaVuSans-Bold-47" d="M311.6,426.9c-.7.3-1.3.6-2,.7-.7.2-1.4.2-2.2.2-1.7,0-3-.5-4-1.4-1-1-1.5-2.2-1.5-3.9s.5-2.9,1.5-3.9c1-.9,2.4-1.4,4.2-1.4s1.3,0,1.9.2c.6.1,1.2.3,1.8.6v2.1c-.6-.3-1.1-.6-1.7-.7-.6-.2-1.1-.2-1.7-.2-1,0-1.9.3-2.4.9-.6.6-.9,1.4-.9,2.5s.3,1.9.8,2.5c.5.6,1.3.9,2.3.9s.5,0,.8,0c.2,0,.4,0,.6-.2v-2h-1.6v-1.8h4.1v4.9Z"/>
        <path id="DejaVuSans-Bold-6c" d="M313.8,417h2.4v10.6h-2.4v-10.6Z"/>
        <path id="DejaVuSans-Bold-63" d="M324.8,420.3v2c-.3-.2-.7-.4-1-.5s-.7-.2-1-.2c-.7,0-1.2.2-1.6.6s-.6,1-.6,1.7.2,1.3.6,1.7c.4.4.9.6,1.6.6s.7,0,1.1-.2c.3-.1.7-.3,1-.5v2c-.4.1-.8.2-1.2.3-.4,0-.8.1-1.2.1-1.4,0-2.5-.4-3.2-1.1-.8-.7-1.2-1.7-1.2-3s.4-2.2,1.2-3c.8-.7,1.9-1.1,3.2-1.1s.8,0,1.2.1.8.2,1.2.3Z"/>
      </g>
    </g>
    <g id="text_2">
      <g>
        <path id="DejaVuSans-Bold-471" data-name="DejaVuSans-Bold-47" d="M429.6,426.9c-.7.3-1.3.6-2,.7-.7.2-1.4.2-2.2.2-1.7,0-3-.5-4-1.4-1-1-1.5-2.2-1.5-3.9s.5-2.9,1.5-3.9c1-.9,2.4-1.4,4.2-1.4s1.3,0,1.9.2c.6.1,1.2.3,1.8.6v2.1c-.6-.3-1.1-.6-1.7-.7-.6-.2-1.1-.2-1.7-.2-1,0-1.9.3-2.4.9-.6.6-.9,1.4-.9,2.5s.3,1.9.8,2.5c.5.6,1.3.9,2.3.9s.5,0,.8,0c.2,0,.4,0,.6-.2v-2h-1.6v-1.8h4.1v4.9Z"/>
        <path id="DejaVuSans-Bold-61" d="M435.2,424.2c-.5,0-.9,0-1.2.3-.3.2-.4.4-.4.8s.1.6.3.7c.2.2.5.3.9.3s.8-.2,1.2-.5c.3-.3.5-.7.5-1.2v-.3h-1.3ZM439,423.3v4.4h-2.5v-1.1c-.3.5-.7.8-1.1,1-.4.2-.9.3-1.5.3s-1.4-.2-1.9-.7c-.5-.5-.7-1.1-.7-1.8s.3-1.6.9-2c.6-.4,1.6-.6,2.9-.6h1.4v-.2c0-.4-.2-.7-.5-.9-.3-.2-.8-.3-1.4-.3s-1,0-1.5.2c-.5.1-.9.3-1.3.5v-1.9c.5-.1,1.1-.2,1.6-.3.5,0,1.1,0,1.6,0,1.4,0,2.4.3,3,.8.6.5.9,1.4.9,2.7Z"/>
        <path id="DejaVuSans-Bold-6c1" data-name="DejaVuSans-Bold-6c" d="M441.2,417h2.4v10.6h-2.4v-10.6Z"/>
      </g>
    </g>
    <g id="patch_9">
      <path class="st1" d="M315.5,387.4h111.2"/>
      <path class="st1" d="M420.6,384.4l6,3-6,3"/>
    </g>
    <g id="text_3">
      <g>
        <path id="DejaVuSans-Bold-3b2" d="M360.7,361c.3-.4.4-.7.4-1s0-.7-.3-1c-.2-.3-.5-.4-.9-.4s-.8.2-1,.6-.3.9-.3,1.7v3c0,.7.1,1.3.4,1.7.3.4.7.6,1.2.6s1-.2,1.2-.5c.2-.3.3-.6.3-.7,0-.7-.3-1.2-.8-1.6-.3-.2-.8-.3-1.6-.3v-1.6c.7-.1,1.2-.3,1.3-.4ZM356.3,370.6v-9.6c0-1.3.3-2.2.9-2.9.5-.5,1-.9,1.5-1,.5-.2.9-.2,1.3-.2.4,0,.6,0,.6,0,.9.1,1.7.5,2.2,1.1.4.4.5,1,.5,1.8s-.1.8-.4,1.2c-.3.5-.7.7-1.1.8.7.2,1.2.5,1.6.8.7.6,1,1.3,1,2.3s-.3,1.5-.9,2.1c-.6.6-1.4.9-2.4.9s-1.9-.4-2.5-1.3v4h-2.4Z"/>
        <path id="DejaVuSans-Bold-31" d="M366.7,365.8h2.3v-6.6l-2.4.5v-1.8l2.4-.5h2.5v8.4h2.3v1.8h-7.1v-1.8Z"/>
        <path id="DejaVuSans-Bold-2d" d="M375.6,362.6h4.3v2h-4.3v-2Z"/>
        <path id="DejaVuSans-Bold-33" d="M387.2,362.1c.7.2,1.2.5,1.6.9.4.4.5,1,.5,1.7,0,1-.4,1.8-1.2,2.3-.8.5-1.9.8-3.4.8s-1.1,0-1.6-.1c-.5,0-1-.2-1.6-.4v-2c.5.2,1,.4,1.5.6.5.1,1,.2,1.4.2.7,0,1.2-.1,1.6-.4.4-.2.6-.6.6-1s-.2-.8-.6-1.1-.9-.4-1.7-.4h-1.1v-1.7h1.1c.7,0,1.2-.1,1.5-.3.3-.2.5-.5.5-.9s-.2-.7-.5-.9c-.3-.2-.8-.3-1.3-.3s-.9,0-1.3.1c-.4,0-.9.2-1.3.4v-1.9c.5-.1,1-.3,1.5-.3s1-.1,1.5-.1c1.3,0,2.3.2,3,.7.7.4,1,1.1,1,2s-.2,1.1-.5,1.5c-.3.4-.8.6-1.4.8Z"/>
      </g>
    </g>
    <g id="patch_10">
      <path class="st1" d="M434,387.4h111.2"/>
      <path class="st1" d="M539.2,384.4l6,3-6,3"/>
    </g>
    <g id="text_4">
      <g>
        <path id="DejaVuSans-Bold-3b21" data-name="DejaVuSans-Bold-3b2" d="M479.2,361c.3-.4.4-.7.4-1s0-.7-.3-1c-.2-.3-.5-.4-.9-.4s-.8.2-1,.6-.3.9-.3,1.7v3c0,.7.1,1.3.4,1.7.3.4.7.6,1.2.6s1-.2,1.2-.5c.2-.3.3-.6.3-.7,0-.7-.3-1.2-.8-1.6-.3-.2-.8-.3-1.6-.3v-1.6c.7-.1,1.2-.3,1.3-.4ZM474.8,370.6v-9.6c0-1.3.3-2.2.9-2.9.5-.5,1-.9,1.5-1,.5-.2.9-.2,1.3-.2.4,0,.6,0,.6,0,.9.1,1.7.5,2.2,1.1.4.4.5,1,.5,1.8s-.1.8-.4,1.2c-.3.5-.7.7-1.1.8.7.2,1.2.5,1.6.8.7.6,1,1.3,1,2.3s-.3,1.5-.9,2.1c-.6.6-1.4.9-2.4.9s-1.9-.4-2.5-1.3v4h-2.4Z"/>
        <path id="DejaVuSans-Bold-311" data-name="DejaVuSans-Bold-31" d="M485.3,365.8h2.3v-6.6l-2.4.5v-1.8l2.4-.5h2.5v8.4h2.3v1.8h-7.1v-1.8Z"/>
        <path id="DejaVuSans-Bold-2d1" data-name="DejaVuSans-Bold-2d" d="M494.1,362.6h4.3v2h-4.3v-2Z"/>
        <path id="DejaVuSans-Bold-34" d="M504.3,359.6l-2.9,4.3h2.9v-4.3ZM503.9,357.4h2.9v6.4h1.5v1.9h-1.5v1.9h-2.5v-1.9h-4.5v-2.3l4.1-6.1Z"/>
      </g>
    </g>
    <g id="patch_11">
      <path class="st1" d="M361.9,270.6c23,38.4,45.5,75.8,67.3,112.2"/>
      <path class="st1" d="M428.7,376.1l.5,6.7-5.7-3.6"/>
    </g>
    <g id="text_6">
      <g>
        <path id="DejaVuSans-Bold-472" data-name="DejaVuSans-Bold-47" d="M317.1,272c-.7.3-1.3.6-2,.7-.7.2-1.4.2-2.2.2-1.7,0-3-.5-4-1.4-1-1-1.5-2.2-1.5-3.9s.5-2.9,1.5-3.9c1-.9,2.4-1.4,4.2-1.4s1.3,0,1.9.2c.6.1,1.2.3,1.8.6v2.1c-.6-.3-1.1-.6-1.7-.7-.6-.2-1.1-.2-1.7-.2-1,0-1.9.3-2.4.9-.6.6-.9,1.4-.9,2.5s.3,1.9.8,2.5c.5.6,1.3.9,2.3.9s.5,0,.8,0c.2,0,.4,0,.6-.2v-2h-1.6v-1.8h4.1v4.9Z"/>
        <path id="DejaVuSans-Bold-6c2" data-name="DejaVuSans-Bold-6c" d="M319.3,262.1h2.4v10.6h-2.4v-10.6Z"/>
        <path id="DejaVuSans-Bold-631" data-name="DejaVuSans-Bold-63" d="M330.3,265.3v2c-.3-.2-.7-.4-1-.5s-.7-.2-1-.2c-.7,0-1.2.2-1.6.6s-.6,1-.6,1.7.2,1.3.6,1.7c.4.4.9.6,1.6.6s.7,0,1.1-.2c.3-.1.7-.3,1-.5v2c-.4.1-.8.2-1.2.3-.4,0-.8.1-1.2.1-1.4,0-2.5-.4-3.2-1.1-.8-.7-1.2-1.7-1.2-3s.4-2.2,1.2-3c.8-.7,1.9-1.1,3.2-1.1s.8,0,1.2.1.8.2,1.2.3Z"/>
      </g>
    </g>
    <g id="patch_12">
      <path class="st1" d="M360.9,152.3v111.2"/>
      <path class="st1" d="M363.9,257.5l-3,6-3-6"/>
    </g>
    <g id="text_7">
      <g>
        <path id="DejaVuSans-Bold-3b22" data-name="DejaVuSans-Bold-3b2" d="M386.2,206.9c.3-.4.4-.7.4-1s0-.7-.3-1c-.2-.3-.5-.4-.9-.4s-.8.2-1,.6-.3.9-.3,1.7v3c0,.7.1,1.3.4,1.7.3.4.7.6,1.2.6s1-.2,1.2-.5c.2-.3.3-.6.3-.7,0-.7-.3-1.2-.8-1.6-.3-.2-.8-.3-1.6-.3v-1.6c.7-.1,1.2-.3,1.3-.4ZM381.8,216.5v-9.6c0-1.3.3-2.2.9-2.9.5-.5,1-.9,1.5-1,.5-.2.9-.2,1.3-.2.4,0,.6,0,.6,0,.9.1,1.7.5,2.2,1.1.4.4.5,1,.5,1.8s-.1.8-.4,1.2c-.3.5-.7.7-1.1.8.7.2,1.2.5,1.6.8.7.6,1,1.3,1,2.3s-.3,1.5-.9,2.1c-.6.6-1.4.9-2.4.9s-1.9-.4-2.5-1.3v4h-2.4Z"/>
        <path id="DejaVuSans-Bold-312" data-name="DejaVuSans-Bold-31" d="M392.3,211.7h2.3v-6.6l-2.4.5v-1.8l2.4-.5h2.5v8.4h2.3v1.8h-7.1v-1.8Z"/>
        <path id="DejaVuSans-Bold-2d2" data-name="DejaVuSans-Bold-2d" d="M401.1,208.5h4.3v2h-4.3v-2Z"/>
        <path id="DejaVuSans-Bold-36" d="M411.2,208.5c-.5,0-.8.1-1,.4-.2.3-.3.7-.3,1.3s.1,1,.3,1.3c.2.3.6.4,1,.4s.8-.1,1-.4c.2-.3.3-.7.3-1.3s-.1-1-.3-1.3c-.2-.3-.6-.4-1-.4ZM414.5,203.6v1.9c-.4-.2-.8-.4-1.2-.5-.4,0-.8-.1-1.1-.1-.8,0-1.4.2-1.8.7-.4.4-.7,1.1-.8,1.9.3-.2.6-.4,1-.5.4-.1.7-.2,1.2-.2,1,0,1.9.3,2.5.9.6.6,1,1.4,1,2.4s-.4,2-1.1,2.6c-.7.7-1.7,1-2.9,1s-2.4-.4-3.1-1.3c-.7-.9-1.1-2.2-1.1-3.8s.4-3,1.3-4c.9-1,2-1.4,3.5-1.4s.9,0,1.4.1.9.2,1.3.3Z"/>
      </g>
    </g>
    <g id="text_8">
      <g>
        <path id="DejaVuSans-Bold-473" data-name="DejaVuSans-Bold-47" d="M306.3,153.4c-.7.3-1.3.6-2,.7-.7.2-1.4.2-2.2.2-1.7,0-3-.5-4-1.4-1-1-1.5-2.2-1.5-3.9s.5-2.9,1.5-3.9c1-.9,2.4-1.4,4.2-1.4s1.3,0,1.9.2c.6.1,1.2.3,1.8.6v2.1c-.6-.3-1.1-.6-1.7-.7-.6-.2-1.1-.2-1.7-.2-1,0-1.9.3-2.4.9-.6.6-.9,1.4-.9,2.5s.3,1.9.8,2.5c.5.6,1.3.9,2.3.9s.5,0,.8,0c.2,0,.4,0,.6-.2v-2h-1.6v-1.8h4.1v4.9Z"/>
        <path id="DejaVuSans-Bold-6c3" data-name="DejaVuSans-Bold-6c" d="M308.5,143.6h2.4v10.6h-2.4v-10.6Z"/>
        <path id="DejaVuSans-Bold-632" data-name="DejaVuSans-Bold-63" d="M319.5,146.8v2c-.3-.2-.7-.4-1-.5s-.7-.2-1-.2c-.7,0-1.2.2-1.6.6s-.6,1-.6,1.7.2,1.3.6,1.7c.4.4.9.6,1.6.6s.7,0,1.1-.2c.3-.1.7-.3,1-.5v2c-.4.1-.8.2-1.2.3-.4,0-.8.1-1.2.1-1.4,0-2.5-.4-3.2-1.1-.8-.7-1.2-1.7-1.2-3s.4-2.2,1.2-3c.8-.7,1.9-1.1,3.2-1.1s.8,0,1.2.1.8.2,1.2.3Z"/>
        <path id="DejaVuSans-Bold-41" d="M327.9,152.3h-4.1l-.6,1.9h-2.6l3.8-10.2h3.1l3.8,10.2h-2.6l-.6-1.9ZM324.4,150.4h2.8l-1.4-4.1-1.4,4.1Z"/>
      </g>
    </g>
    <g id="text_9">
      <g>
        <path id="DejaVuSans-Bold-4c" d="M399.7,46.1h2.3v7h4v1.7h-6.2v-8.7Z"/>
        <path id="DejaVuSans-Bold-611" data-name="DejaVuSans-Bold-61" d="M410.2,51.9c-.4,0-.8,0-1,.2-.2.1-.3.4-.3.7s0,.5.3.6c.2.1.4.2.7.2s.7-.1,1-.4c.3-.3.4-.6.4-1.1v-.2h-1.1ZM413.4,51.1v3.7h-2.1v-1c-.3.4-.6.7-1,.9-.4.2-.8.3-1.3.3s-1.2-.2-1.7-.6c-.4-.4-.6-.9-.6-1.5s.3-1.3.8-1.7c.5-.4,1.4-.5,2.5-.5h1.2v-.2c0-.3-.1-.6-.4-.7-.3-.2-.7-.2-1.2-.2s-.9,0-1.3.1c-.4,0-.7.2-1.1.4v-1.6c.4-.1.9-.2,1.4-.2.5,0,.9,0,1.4,0,1.2,0,2,.2,2.6.7.5.5.8,1.2.8,2.3Z"/>
        <path id="DejaVuSans-Bold-633" data-name="DejaVuSans-Bold-63" d="M420.7,48.5v1.7c-.3-.2-.6-.3-.9-.4s-.6-.1-.9-.1c-.6,0-1,.2-1.4.5s-.5.8-.5,1.4.2,1.1.5,1.4c.3.3.8.5,1.4.5s.6,0,.9-.1c.3,0,.6-.2.8-.4v1.7c-.3.1-.7.2-1,.3-.3,0-.7,0-1,0-1.2,0-2.1-.3-2.8-.9-.7-.6-1-1.5-1-2.5s.3-1.9,1-2.5c.7-.6,1.6-.9,2.8-.9s.7,0,1,0,.7.2,1,.3Z"/>
      </g>
    </g>
    <g id="text_10">
      <g>
        <path id="DejaVuSans-43" d="M405.9,11.7v1.2c-.4-.4-.8-.6-1.3-.8-.5-.2-.9-.3-1.4-.3-1,0-1.8.3-2.3.9s-.8,1.5-.8,2.7.3,2,.8,2.6,1.3.9,2.3.9,1,0,1.4-.3.9-.5,1.3-.8v1.2c-.4.3-.9.5-1.3.6-.5.1-1,.2-1.5.2-1.3,0-2.4-.4-3.1-1.2-.8-.8-1.1-1.9-1.1-3.3s.4-2.5,1.1-3.3c.8-.8,1.8-1.2,3.1-1.2s1,0,1.5.2c.5.1.9.3,1.3.6Z"/>
        <path id="DejaVuSans-50" d="M408.9,12v3.3h1.5c.6,0,1-.1,1.3-.4.3-.3.5-.7.5-1.2s-.2-.9-.5-1.2c-.3-.3-.7-.4-1.3-.4h-1.5ZM407.7,11.1h2.7c1,0,1.7.2,2.2.7.5.4.8,1.1.8,1.9s-.3,1.5-.8,2c-.5.4-1.2.7-2.2.7h-1.5v3.5h-1.2v-8.7Z"/>
        <path id="DejaVuSans-53" d="M420.2,11.3v1.2c-.4-.2-.9-.4-1.3-.5-.4-.1-.8-.2-1.2-.2-.6,0-1.1.1-1.5.4-.3.2-.5.6-.5,1.1s.1.7.3.9c.2.2.7.4,1.3.5h.7c.9.3,1.5.6,2,1s.6,1,.6,1.7-.3,1.5-.9,1.9c-.6.4-1.4.7-2.5.7s-.9,0-1.3-.1c-.5,0-.9-.2-1.4-.4v-1.2c.5.3,1,.5,1.4.6.5.1.9.2,1.4.2.7,0,1.2-.1,1.6-.4.4-.3.6-.6.6-1.1s-.1-.8-.4-1-.7-.4-1.3-.5h-.7c-.9-.3-1.5-.6-1.9-1-.4-.4-.6-.9-.6-1.6s.3-1.4.8-1.8c.5-.4,1.3-.7,2.3-.7s.8,0,1.3.1c.4,0,.9.2,1.3.3Z"/>
        <path id="DejaVuSans-33" d="M426.3,15.1c.6.1,1,.4,1.3.8.3.4.5.9.5,1.4,0,.9-.3,1.5-.9,2-.6.5-1.4.7-2.5.7s-.7,0-1.1-.1c-.4,0-.8-.2-1.2-.3v-1.1c.3.2.7.3,1.1.4.4,0,.8.1,1.2.1.7,0,1.3-.1,1.7-.4s.6-.7.6-1.3-.2-.9-.5-1.2c-.4-.3-.9-.4-1.5-.4h-1v-1h1.1c.6,0,1-.1,1.3-.3s.5-.6.5-1-.2-.8-.5-1c-.3-.2-.8-.4-1.4-.4s-.7,0-1,.1c-.4,0-.8.2-1.2.3v-1.1c.4-.1.9-.2,1.3-.3s.8,0,1.1,0c.9,0,1.6.2,2.1.6.5.4.8,1,.8,1.7s-.1.9-.4,1.2-.7.6-1.2.7Z"/>
        <path id="DejaVuSans-38" d="M432.9,15.6c-.6,0-1,.2-1.3.5-.3.3-.5.7-.5,1.2s.2.9.5,1.2c.3.3.8.5,1.3.5s1-.2,1.3-.5c.3-.3.5-.7.5-1.2s-.2-.9-.5-1.2c-.3-.3-.8-.5-1.3-.5ZM431.7,15.1c-.5-.1-.9-.4-1.2-.7-.3-.3-.4-.8-.4-1.3s.2-1.3.7-1.7c.5-.4,1.2-.6,2-.6s1.6.2,2.1.6.7,1,.7,1.7-.1.9-.4,1.3c-.3.3-.7.6-1.2.7.6.1,1,.4,1.3.8.3.4.5.9.5,1.4,0,.8-.3,1.5-.8,2-.5.5-1.3.7-2.2.7s-1.7-.2-2.2-.7c-.5-.5-.8-1.1-.8-2s.2-1,.5-1.4c.3-.4.8-.6,1.3-.8ZM431.2,13.3c0,.5.1.8.4,1.1.3.3.7.4,1.2.4s.9-.1,1.2-.4c.3-.3.4-.6.4-1.1s-.1-.8-.4-1.1c-.3-.3-.7-.4-1.2-.4s-.9.1-1.2.4c-.3.3-.4.6-.4,1.1Z"/>
        <path id="DejaVuSans-5f" d="M442.8,21.8v.8h-6.2v-.8h6.2Z"/>
        <path id="DejaVuSans-4b" d="M443.9,11.1h1.2v3.7l3.9-3.7h1.5l-4.3,4.1,4.7,4.7h-1.6l-4.2-4.2v4.2h-1.2v-8.7Z"/>
        <path id="DejaVuSans-331" data-name="DejaVuSans-33" d="M455.4,15.1c.6.1,1,.4,1.3.8.3.4.5.9.5,1.4,0,.9-.3,1.5-.9,2-.6.5-1.4.7-2.5.7s-.7,0-1.1-.1c-.4,0-.8-.2-1.2-.3v-1.1c.3.2.7.3,1.1.4.4,0,.8.1,1.2.1.7,0,1.3-.1,1.7-.4s.6-.7.6-1.3-.2-.9-.5-1.2c-.4-.3-.9-.4-1.5-.4h-1v-1h1.1c.6,0,1-.1,1.3-.3s.5-.6.5-1-.2-.8-.5-1c-.3-.2-.8-.4-1.4-.4s-.7,0-1,.1c-.4,0-.8.2-1.2.3v-1.1c.4-.1.9-.2,1.3-.3s.8,0,1.1,0c.9,0,1.6.2,2.1.6.5.4.8,1,.8,1.7s-.1.9-.4,1.2-.7.6-1.2.7Z"/>
        <path id="DejaVuSans-37" d="M459.2,11.1h5.6v.5l-3.2,8.2h-1.2l3-7.8h-4.2v-1Z"/>
      </g>
    </g>
    <g id="text_5">
      <g>
        <path id="DejaVuSans-Bold-3b1" d="M408.4,306.7l.8-.2,1.1,1.8-4.1.9-.8.7c-.6.5-.8.9-.6,1.1l.3.5-1.3.8-.4-.6c-.4-.6-.5-1.2-.4-1.7,0-.1,0-.2,0-.2-.4,0-.7-.1-.9-.2-.3,0-.7-.6-1.3-1.6-.6-1-.7-1.9-.4-2.6.3-.8,1.1-1.5,2.2-2.2s2.1-1,2.8-.8c.9.2,1.7.8,2.4,1.9.6.9.7,1.7.4,2.4ZM405.4,307.4l.8-.7c.5-.5.6-1,.3-1.5-.2-.3-.5-.4-.9-.4-.5,0-1,.2-1.7.6s-1.1.8-1.3,1.2c-.2.4-.2.7,0,1,.2.3.6.4,1.3.2l1.5-.4Z"/>
        <path id="DejaVuSans-Bold-313" data-name="DejaVuSans-Bold-31" d="M406.4,313.4l1.2,2,5.7-3.4-1.6-1.8,1.5-.9,1.6,1.8,1.3,2.1-7.2,4.3,1.2,2-1.6.9-3.7-6.1,1.6-.9Z"/>
        <path id="DejaVuSans-Bold-2d3" data-name="DejaVuSans-Bold-2d" d="M413.8,319.3l2.2,3.7-1.7,1-2.2-3.7,1.7-1Z"/>
        <path id="DejaVuSans-Bold-341" data-name="DejaVuSans-Bold-34" d="M421.6,326.5l-5.1-.3,1.5,2.5,3.7-2.2ZM423.2,325l1.5,2.5-5.5,3.3.7,1.2-1.6,1-.7-1.2-1.6,1-1.3-2.1,1.6-1-2.3-3.9,1.9-1.2,7.3.4Z"/>
      </g>
    </g>
  </g>
</svg>