<?xml version="1.0" encoding="utf-8" standalone="no"?>
<!DOCTYPE svg PUBLIC "-//W3C//DTD SVG 1.1//EN"
  "http://www.w3.org/Graphics/SVG/1.1/DTD/svg11.dtd">
<svg xmlns:xlink="http://www.w3.org/1999/xlink" width="712.848594pt" height="352.739531pt" viewBox="0 0 712.848594 352.739531" xmlns="http://www.w3.org/2000/svg" version="1.1">
 <metadata>
  <rdf:RDF xmlns:dc="http://purl.org/dc/elements/1.1/" xmlns:cc="http://creativecommons.org/ns#" xmlns:rdf="http://www.w3.org/1999/02/22-rdf-syntax-ns#">
   <cc:Work>
    <dc:type rdf:resource="http://purl.org/dc/dcmitype/StillImage"/>
    <dc:date>2026-03-24T09:38:14.888178</dc:date>
    <dc:format>image/svg+xml</dc:format>
    <dc:creator>
     <cc:Agent>
      <dc:title>Matplotlib v3.10.8, https://matplotlib.org/</dc:title>
     </cc:Agent>
    </dc:creator>
   </cc:Work>
  </rdf:RDF>
 </metadata>
 <defs>
  <style type="text/css">*{stroke-linejoin: round; stroke-linecap: butt}</style>
 </defs>
 <g id="figure_1">
  <g id="patch_1">
   <path d="M -0 352.739531 
L 712.848594 352.739531 
L 712.848594 0 
L -0 0 
z
" style="fill: #ffffff"/>
  </g>
  <g id="axes_1">
   <g id="patch_2">
    <path d="M 48.922188 314.132969 
L 697.307188 314.132969 
L 697.307188 22.663594 
L 48.922188 22.663594 
z
" style="fill: #ffffff"/>
   </g>
   <g id="matplotlib.axis_1">
    <g id="xtick_1">
     <g id="line2d_1">
      <path d="M 48.922188 314.132969 
L 48.922188 22.663594 
" clip-path="url(#p4bb98c10cd)" style="fill: none; stroke: #cccccc; stroke-width: 0.8; stroke-linecap: round"/>
     </g>
     <g id="text_1">
      <!-- 0 -->
      <g style="fill: #262626" transform="translate(46.141719 328.290781) scale(0.1 -0.1)">
       <defs>
        <path id="ArialMT-30" d="M 266 2259 
Q 266 3072 433 3567 
Q 600 4063 929 4331 
Q 1259 4600 1759 4600 
Q 2128 4600 2406 4451 
Q 2684 4303 2865 4023 
Q 3047 3744 3150 3342 
Q 3253 2941 3253 2259 
Q 3253 1453 3087 958 
Q 2922 463 2592 192 
Q 2263 -78 1759 -78 
Q 1097 -78 719 397 
Q 266 969 266 2259 
z
M 844 2259 
Q 844 1131 1108 757 
Q 1372 384 1759 384 
Q 2147 384 2411 759 
Q 2675 1134 2675 2259 
Q 2675 3391 2411 3762 
Q 2147 4134 1753 4134 
Q 1366 4134 1134 3806 
Q 844 3388 844 2259 
z
" transform="scale(0.015625)"/>
       </defs>
       <use xlink:href="#ArialMT-30"/>
      </g>
     </g>
    </g>
    <g id="xtick_2">
     <g id="line2d_2">
      <path d="M 211.018438 314.132969 
L 211.018438 22.663594 
" clip-path="url(#p4bb98c10cd)" style="fill: none; stroke: #cccccc; stroke-width: 0.8; stroke-linecap: round"/>
     </g>
     <g id="text_2">
      <!-- 25 -->
      <g style="fill: #262626" transform="translate(205.4575 328.290781) scale(0.1 -0.1)">
       <defs>
        <path id="ArialMT-32" d="M 3222 541 
L 3222 0 
L 194 0 
Q 188 203 259 391 
Q 375 700 629 1000 
Q 884 1300 1366 1694 
Q 2113 2306 2375 2664 
Q 2638 3022 2638 3341 
Q 2638 3675 2398 3904 
Q 2159 4134 1775 4134 
Q 1369 4134 1125 3890 
Q 881 3647 878 3216 
L 300 3275 
Q 359 3922 746 4261 
Q 1134 4600 1788 4600 
Q 2447 4600 2831 4234 
Q 3216 3869 3216 3328 
Q 3216 3053 3103 2787 
Q 2991 2522 2730 2228 
Q 2469 1934 1863 1422 
Q 1356 997 1212 845 
Q 1069 694 975 541 
L 3222 541 
z
" transform="scale(0.015625)"/>
        <path id="ArialMT-35" d="M 266 1200 
L 856 1250 
Q 922 819 1161 601 
Q 1400 384 1738 384 
Q 2144 384 2425 690 
Q 2706 997 2706 1503 
Q 2706 1984 2436 2262 
Q 2166 2541 1728 2541 
Q 1456 2541 1237 2417 
Q 1019 2294 894 2097 
L 366 2166 
L 809 4519 
L 3088 4519 
L 3088 3981 
L 1259 3981 
L 1013 2750 
Q 1425 3038 1878 3038 
Q 2478 3038 2890 2622 
Q 3303 2206 3303 1553 
Q 3303 931 2941 478 
Q 2500 -78 1738 -78 
Q 1113 -78 717 272 
Q 322 622 266 1200 
z
" transform="scale(0.015625)"/>
       </defs>
       <use xlink:href="#ArialMT-32"/>
       <use xlink:href="#ArialMT-35" transform="translate(55.615234 0)"/>
      </g>
     </g>
    </g>
    <g id="xtick_3">
     <g id="line2d_3">
      <path d="M 373.114688 314.132969 
L 373.114688 22.663594 
" clip-path="url(#p4bb98c10cd)" style="fill: none; stroke: #cccccc; stroke-width: 0.8; stroke-linecap: round"/>
     </g>
     <g id="text_3">
      <!-- 50 -->
      <g style="fill: #262626" transform="translate(367.55375 328.290781) scale(0.1 -0.1)">
       <use xlink:href="#ArialMT-35"/>
       <use xlink:href="#ArialMT-30" transform="translate(55.615234 0)"/>
      </g>
     </g>
    </g>
    <g id="xtick_4">
     <g id="line2d_4">
      <path d="M 535.210938 314.132969 
L 535.210938 22.663594 
" clip-path="url(#p4bb98c10cd)" style="fill: none; stroke: #cccccc; stroke-width: 0.8; stroke-linecap: round"/>
     </g>
     <g id="text_4">
      <!-- 75 -->
      <g style="fill: #262626" transform="translate(529.65 328.290781) scale(0.1 -0.1)">
       <defs>
        <path id="ArialMT-37" d="M 303 3981 
L 303 4522 
L 3269 4522 
L 3269 4084 
Q 2831 3619 2401 2847 
Q 1972 2075 1738 1259 
Q 1569 684 1522 0 
L 944 0 
Q 953 541 1156 1306 
Q 1359 2072 1739 2783 
Q 2119 3494 2547 3981 
L 303 3981 
z
" transform="scale(0.015625)"/>
       </defs>
       <use xlink:href="#ArialMT-37"/>
       <use xlink:href="#ArialMT-35" transform="translate(55.615234 0)"/>
      </g>
     </g>
    </g>
    <g id="xtick_5">
     <g id="line2d_5">
      <path d="M 697.307188 314.132969 
L 697.307188 22.663594 
" clip-path="url(#p4bb98c10cd)" style="fill: none; stroke: #cccccc; stroke-width: 0.8; stroke-linecap: round"/>
     </g>
     <g id="text_5">
      <!-- 100 -->
      <g style="fill: #262626" transform="translate(688.965781 328.290781) scale(0.1 -0.1)">
       <defs>
        <path id="ArialMT-31" d="M 2384 0 
L 1822 0 
L 1822 3584 
Q 1619 3391 1289 3197 
Q 959 3003 697 2906 
L 697 3450 
Q 1169 3672 1522 3987 
Q 1875 4303 2022 4600 
L 2384 4600 
L 2384 0 
z
" transform="scale(0.015625)"/>
       </defs>
       <use xlink:href="#ArialMT-31"/>
       <use xlink:href="#ArialMT-30" transform="translate(55.615234 0)"/>
       <use xlink:href="#ArialMT-30" transform="translate(111.230469 0)"/>
      </g>
     </g>
    </g>
    <g id="text_6">
     <!-- Normalised alignment position (%) -->
     <g style="fill: #262626" transform="translate(281.74875 343.013906) scale(0.12 -0.12)">
      <defs>
       <path id="ArialMT-4e" d="M 488 0 
L 488 4581 
L 1109 4581 
L 3516 984 
L 3516 4581 
L 4097 4581 
L 4097 0 
L 3475 0 
L 1069 3600 
L 1069 0 
L 488 0 
z
" transform="scale(0.015625)"/>
       <path id="ArialMT-6f" d="M 213 1659 
Q 213 2581 725 3025 
Q 1153 3394 1769 3394 
Q 2453 3394 2887 2945 
Q 3322 2497 3322 1706 
Q 3322 1066 3130 698 
Q 2938 331 2570 128 
Q 2203 -75 1769 -75 
Q 1072 -75 642 372 
Q 213 819 213 1659 
z
M 791 1659 
Q 791 1022 1069 705 
Q 1347 388 1769 388 
Q 2188 388 2466 706 
Q 2744 1025 2744 1678 
Q 2744 2294 2464 2611 
Q 2184 2928 1769 2928 
Q 1347 2928 1069 2612 
Q 791 2297 791 1659 
z
" transform="scale(0.015625)"/>
       <path id="ArialMT-72" d="M 416 0 
L 416 3319 
L 922 3319 
L 922 2816 
Q 1116 3169 1280 3281 
Q 1444 3394 1641 3394 
Q 1925 3394 2219 3213 
L 2025 2691 
Q 1819 2813 1613 2813 
Q 1428 2813 1281 2702 
Q 1134 2591 1072 2394 
Q 978 2094 978 1738 
L 978 0 
L 416 0 
z
" transform="scale(0.015625)"/>
       <path id="ArialMT-6d" d="M 422 0 
L 422 3319 
L 925 3319 
L 925 2853 
Q 1081 3097 1340 3245 
Q 1600 3394 1931 3394 
Q 2300 3394 2536 3241 
Q 2772 3088 2869 2813 
Q 3263 3394 3894 3394 
Q 4388 3394 4653 3120 
Q 4919 2847 4919 2278 
L 4919 0 
L 4359 0 
L 4359 2091 
Q 4359 2428 4304 2576 
Q 4250 2725 4106 2815 
Q 3963 2906 3769 2906 
Q 3419 2906 3187 2673 
Q 2956 2441 2956 1928 
L 2956 0 
L 2394 0 
L 2394 2156 
Q 2394 2531 2256 2718 
Q 2119 2906 1806 2906 
Q 1569 2906 1367 2781 
Q 1166 2656 1075 2415 
Q 984 2175 984 1722 
L 984 0 
L 422 0 
z
" transform="scale(0.015625)"/>
       <path id="ArialMT-61" d="M 2588 409 
Q 2275 144 1986 34 
Q 1697 -75 1366 -75 
Q 819 -75 525 192 
Q 231 459 231 875 
Q 231 1119 342 1320 
Q 453 1522 633 1644 
Q 813 1766 1038 1828 
Q 1203 1872 1538 1913 
Q 2219 1994 2541 2106 
Q 2544 2222 2544 2253 
Q 2544 2597 2384 2738 
Q 2169 2928 1744 2928 
Q 1347 2928 1158 2789 
Q 969 2650 878 2297 
L 328 2372 
Q 403 2725 575 2942 
Q 747 3159 1072 3276 
Q 1397 3394 1825 3394 
Q 2250 3394 2515 3294 
Q 2781 3194 2906 3042 
Q 3031 2891 3081 2659 
Q 3109 2516 3109 2141 
L 3109 1391 
Q 3109 606 3145 398 
Q 3181 191 3288 0 
L 2700 0 
Q 2613 175 2588 409 
z
M 2541 1666 
Q 2234 1541 1622 1453 
Q 1275 1403 1131 1340 
Q 988 1278 909 1158 
Q 831 1038 831 891 
Q 831 666 1001 516 
Q 1172 366 1500 366 
Q 1825 366 2078 508 
Q 2331 650 2450 897 
Q 2541 1088 2541 1459 
L 2541 1666 
z
" transform="scale(0.015625)"/>
       <path id="ArialMT-6c" d="M 409 0 
L 409 4581 
L 972 4581 
L 972 0 
L 409 0 
z
" transform="scale(0.015625)"/>
       <path id="ArialMT-69" d="M 425 3934 
L 425 4581 
L 988 4581 
L 988 3934 
L 425 3934 
z
M 425 0 
L 425 3319 
L 988 3319 
L 988 0 
L 425 0 
z
" transform="scale(0.015625)"/>
       <path id="ArialMT-73" d="M 197 991 
L 753 1078 
Q 800 744 1014 566 
Q 1228 388 1613 388 
Q 2000 388 2187 545 
Q 2375 703 2375 916 
Q 2375 1106 2209 1216 
Q 2094 1291 1634 1406 
Q 1016 1563 777 1677 
Q 538 1791 414 1992 
Q 291 2194 291 2438 
Q 291 2659 392 2848 
Q 494 3038 669 3163 
Q 800 3259 1026 3326 
Q 1253 3394 1513 3394 
Q 1903 3394 2198 3281 
Q 2494 3169 2634 2976 
Q 2775 2784 2828 2463 
L 2278 2388 
Q 2241 2644 2061 2787 
Q 1881 2931 1553 2931 
Q 1166 2931 1000 2803 
Q 834 2675 834 2503 
Q 834 2394 903 2306 
Q 972 2216 1119 2156 
Q 1203 2125 1616 2013 
Q 2213 1853 2448 1751 
Q 2684 1650 2818 1456 
Q 2953 1263 2953 975 
Q 2953 694 2789 445 
Q 2625 197 2315 61 
Q 2006 -75 1616 -75 
Q 969 -75 630 194 
Q 291 463 197 991 
z
" transform="scale(0.015625)"/>
       <path id="ArialMT-65" d="M 2694 1069 
L 3275 997 
Q 3138 488 2766 206 
Q 2394 -75 1816 -75 
Q 1088 -75 661 373 
Q 234 822 234 1631 
Q 234 2469 665 2931 
Q 1097 3394 1784 3394 
Q 2450 3394 2872 2941 
Q 3294 2488 3294 1666 
Q 3294 1616 3291 1516 
L 816 1516 
Q 847 969 1125 678 
Q 1403 388 1819 388 
Q 2128 388 2347 550 
Q 2566 713 2694 1069 
z
M 847 1978 
L 2700 1978 
Q 2663 2397 2488 2606 
Q 2219 2931 1791 2931 
Q 1403 2931 1139 2672 
Q 875 2413 847 1978 
z
" transform="scale(0.015625)"/>
       <path id="ArialMT-64" d="M 2575 0 
L 2575 419 
Q 2259 -75 1647 -75 
Q 1250 -75 917 144 
Q 584 363 401 755 
Q 219 1147 219 1656 
Q 219 2153 384 2558 
Q 550 2963 881 3178 
Q 1213 3394 1622 3394 
Q 1922 3394 2156 3267 
Q 2391 3141 2538 2938 
L 2538 4581 
L 3097 4581 
L 3097 0 
L 2575 0 
z
M 797 1656 
Q 797 1019 1065 703 
Q 1334 388 1700 388 
Q 2069 388 2326 689 
Q 2584 991 2584 1609 
Q 2584 2291 2321 2609 
Q 2059 2928 1675 2928 
Q 1300 2928 1048 2622 
Q 797 2316 797 1656 
z
" transform="scale(0.015625)"/>
       <path id="ArialMT-20" transform="scale(0.015625)"/>
       <path id="ArialMT-67" d="M 319 -275 
L 866 -356 
Q 900 -609 1056 -725 
Q 1266 -881 1628 -881 
Q 2019 -881 2231 -725 
Q 2444 -569 2519 -288 
Q 2563 -116 2559 434 
Q 2191 0 1641 0 
Q 956 0 581 494 
Q 206 988 206 1678 
Q 206 2153 378 2554 
Q 550 2956 876 3175 
Q 1203 3394 1644 3394 
Q 2231 3394 2613 2919 
L 2613 3319 
L 3131 3319 
L 3131 450 
Q 3131 -325 2973 -648 
Q 2816 -972 2473 -1159 
Q 2131 -1347 1631 -1347 
Q 1038 -1347 672 -1080 
Q 306 -813 319 -275 
z
M 784 1719 
Q 784 1066 1043 766 
Q 1303 466 1694 466 
Q 2081 466 2343 764 
Q 2606 1063 2606 1700 
Q 2606 2309 2336 2618 
Q 2066 2928 1684 2928 
Q 1309 2928 1046 2623 
Q 784 2319 784 1719 
z
" transform="scale(0.015625)"/>
       <path id="ArialMT-6e" d="M 422 0 
L 422 3319 
L 928 3319 
L 928 2847 
Q 1294 3394 1984 3394 
Q 2284 3394 2536 3286 
Q 2788 3178 2913 3003 
Q 3038 2828 3088 2588 
Q 3119 2431 3119 2041 
L 3119 0 
L 2556 0 
L 2556 2019 
Q 2556 2363 2490 2533 
Q 2425 2703 2258 2804 
Q 2091 2906 1866 2906 
Q 1506 2906 1245 2678 
Q 984 2450 984 1813 
L 984 0 
L 422 0 
z
" transform="scale(0.015625)"/>
       <path id="ArialMT-74" d="M 1650 503 
L 1731 6 
Q 1494 -44 1306 -44 
Q 1000 -44 831 53 
Q 663 150 594 308 
Q 525 466 525 972 
L 525 2881 
L 113 2881 
L 113 3319 
L 525 3319 
L 525 4141 
L 1084 4478 
L 1084 3319 
L 1650 3319 
L 1650 2881 
L 1084 2881 
L 1084 941 
Q 1084 700 1114 631 
Q 1144 563 1211 522 
Q 1278 481 1403 481 
Q 1497 481 1650 503 
z
" transform="scale(0.015625)"/>
       <path id="ArialMT-70" d="M 422 -1272 
L 422 3319 
L 934 3319 
L 934 2888 
Q 1116 3141 1344 3267 
Q 1572 3394 1897 3394 
Q 2322 3394 2647 3175 
Q 2972 2956 3137 2557 
Q 3303 2159 3303 1684 
Q 3303 1175 3120 767 
Q 2938 359 2589 142 
Q 2241 -75 1856 -75 
Q 1575 -75 1351 44 
Q 1128 163 984 344 
L 984 -1272 
L 422 -1272 
z
M 931 1641 
Q 931 1000 1190 694 
Q 1450 388 1819 388 
Q 2194 388 2461 705 
Q 2728 1022 2728 1688 
Q 2728 2322 2467 2637 
Q 2206 2953 1844 2953 
Q 1484 2953 1207 2617 
Q 931 2281 931 1641 
z
" transform="scale(0.015625)"/>
       <path id="ArialMT-28" d="M 1497 -1347 
Q 1031 -759 709 28 
Q 388 816 388 1659 
Q 388 2403 628 3084 
Q 909 3875 1497 4659 
L 1900 4659 
Q 1522 4009 1400 3731 
Q 1209 3300 1100 2831 
Q 966 2247 966 1656 
Q 966 153 1900 -1347 
L 1497 -1347 
z
" transform="scale(0.015625)"/>
       <path id="ArialMT-25" d="M 372 3481 
Q 372 3972 619 4315 
Q 866 4659 1334 4659 
Q 1766 4659 2048 4351 
Q 2331 4044 2331 3447 
Q 2331 2866 2045 2552 
Q 1759 2238 1341 2238 
Q 925 2238 648 2547 
Q 372 2856 372 3481 
z
M 1350 4272 
Q 1141 4272 1002 4090 
Q 863 3909 863 3425 
Q 863 2984 1003 2804 
Q 1144 2625 1350 2625 
Q 1563 2625 1702 2806 
Q 1841 2988 1841 3469 
Q 1841 3913 1700 4092 
Q 1559 4272 1350 4272 
z
M 1353 -169 
L 3859 4659 
L 4316 4659 
L 1819 -169 
L 1353 -169 
z
M 3334 1075 
Q 3334 1569 3581 1911 
Q 3828 2253 4300 2253 
Q 4731 2253 5014 1945 
Q 5297 1638 5297 1041 
Q 5297 459 5011 145 
Q 4725 -169 4303 -169 
Q 3888 -169 3611 142 
Q 3334 453 3334 1075 
z
M 4316 1866 
Q 4103 1866 3964 1684 
Q 3825 1503 3825 1019 
Q 3825 581 3965 400 
Q 4106 219 4313 219 
Q 4528 219 4667 400 
Q 4806 581 4806 1063 
Q 4806 1506 4665 1686 
Q 4525 1866 4316 1866 
z
" transform="scale(0.015625)"/>
       <path id="ArialMT-29" d="M 791 -1347 
L 388 -1347 
Q 1322 153 1322 1656 
Q 1322 2244 1188 2822 
Q 1081 3291 891 3722 
Q 769 4003 388 4659 
L 791 4659 
Q 1378 3875 1659 3084 
Q 1900 2403 1900 1659 
Q 1900 816 1576 28 
Q 1253 -759 791 -1347 
z
" transform="scale(0.015625)"/>
      </defs>
      <use xlink:href="#ArialMT-4e"/>
      <use xlink:href="#ArialMT-6f" transform="translate(72.216797 0)"/>
      <use xlink:href="#ArialMT-72" transform="translate(127.832031 0)"/>
      <use xlink:href="#ArialMT-6d" transform="translate(161.132812 0)"/>
      <use xlink:href="#ArialMT-61" transform="translate(244.433594 0)"/>
      <use xlink:href="#ArialMT-6c" transform="translate(300.048828 0)"/>
      <use xlink:href="#ArialMT-69" transform="translate(322.265625 0)"/>
      <use xlink:href="#ArialMT-73" transform="translate(344.482422 0)"/>
      <use xlink:href="#ArialMT-65" transform="translate(394.482422 0)"/>
      <use xlink:href="#ArialMT-64" transform="translate(450.097656 0)"/>
      <use xlink:href="#ArialMT-20" transform="translate(505.712891 0)"/>
      <use xlink:href="#ArialMT-61" transform="translate(533.496094 0)"/>
      <use xlink:href="#ArialMT-6c" transform="translate(589.111328 0)"/>
      <use xlink:href="#ArialMT-69" transform="translate(611.328125 0)"/>
      <use xlink:href="#ArialMT-67" transform="translate(633.544922 0)"/>
      <use xlink:href="#ArialMT-6e" transform="translate(689.160156 0)"/>
      <use xlink:href="#ArialMT-6d" transform="translate(744.775391 0)"/>
      <use xlink:href="#ArialMT-65" transform="translate(828.076172 0)"/>
      <use xlink:href="#ArialMT-6e" transform="translate(883.691406 0)"/>
      <use xlink:href="#ArialMT-74" transform="translate(939.306641 0)"/>
      <use xlink:href="#ArialMT-20" transform="translate(967.089844 0)"/>
      <use xlink:href="#ArialMT-70" transform="translate(994.873047 0)"/>
      <use xlink:href="#ArialMT-6f" transform="translate(1050.488281 0)"/>
      <use xlink:href="#ArialMT-73" transform="translate(1106.103516 0)"/>
      <use xlink:href="#ArialMT-69" transform="translate(1156.103516 0)"/>
      <use xlink:href="#ArialMT-74" transform="translate(1178.320312 0)"/>
      <use xlink:href="#ArialMT-69" transform="translate(1206.103516 0)"/>
      <use xlink:href="#ArialMT-6f" transform="translate(1228.320312 0)"/>
      <use xlink:href="#ArialMT-6e" transform="translate(1283.935547 0)"/>
      <use xlink:href="#ArialMT-20" transform="translate(1339.550781 0)"/>
      <use xlink:href="#ArialMT-28" transform="translate(1367.333984 0)"/>
      <use xlink:href="#ArialMT-25" transform="translate(1400.634766 0)"/>
      <use xlink:href="#ArialMT-29" transform="translate(1489.550781 0)"/>
     </g>
    </g>
   </g>
   <g id="matplotlib.axis_2">
    <g id="ytick_1">
     <g id="line2d_6">
      <path d="M 48.922188 314.132969 
L 697.307188 314.132969 
" clip-path="url(#p4bb98c10cd)" style="fill: none; stroke: #cccccc; stroke-width: 0.8; stroke-linecap: round"/>
     </g>
     <g id="text_7">
      <!-- 0.00 -->
      <g style="fill: #262626" transform="translate(22.46125 317.711875) scale(0.1 -0.1)">
       <defs>
        <path id="ArialMT-2e" d="M 581 0 
L 581 641 
L 1222 641 
L 1222 0 
L 581 0 
z
" transform="scale(0.015625)"/>
       </defs>
       <use xlink:href="#ArialMT-30"/>
       <use xlink:href="#ArialMT-2e" transform="translate(55.615234 0)"/>
       <use xlink:href="#ArialMT-30" transform="translate(83.398438 0)"/>
       <use xlink:href="#ArialMT-30" transform="translate(139.013672 0)"/>
      </g>
     </g>
    </g>
    <g id="ytick_2">
     <g id="line2d_7">
      <path d="M 48.922188 241.265625 
L 697.307188 241.265625 
" clip-path="url(#p4bb98c10cd)" style="fill: none; stroke: #cccccc; stroke-width: 0.8; stroke-linecap: round"/>
     </g>
     <g id="text_8">
      <!-- 0.25 -->
      <g style="fill: #262626" transform="translate(22.46125 244.844531) scale(0.1 -0.1)">
       <use xlink:href="#ArialMT-30"/>
       <use xlink:href="#ArialMT-2e" transform="translate(55.615234 0)"/>
       <use xlink:href="#ArialMT-32" transform="translate(83.398438 0)"/>
       <use xlink:href="#ArialMT-35" transform="translate(139.013672 0)"/>
      </g>
     </g>
    </g>
    <g id="ytick_3">
     <g id="line2d_8">
      <path d="M 48.922188 168.398281 
L 697.307188 168.398281 
" clip-path="url(#p4bb98c10cd)" style="fill: none; stroke: #cccccc; stroke-width: 0.8; stroke-linecap: round"/>
     </g>
     <g id="text_9">
      <!-- 0.50 -->
      <g style="fill: #262626" transform="translate(22.46125 171.977187) scale(0.1 -0.1)">
       <use xlink:href="#ArialMT-30"/>
       <use xlink:href="#ArialMT-2e" transform="translate(55.615234 0)"/>
       <use xlink:href="#ArialMT-35" transform="translate(83.398438 0)"/>
       <use xlink:href="#ArialMT-30" transform="translate(139.013672 0)"/>
      </g>
     </g>
    </g>
    <g id="ytick_4">
     <g id="line2d_9">
      <path d="M 48.922188 95.530937 
L 697.307188 95.530937 
" clip-path="url(#p4bb98c10cd)" style="fill: none; stroke: #cccccc; stroke-width: 0.8; stroke-linecap: round"/>
     </g>
     <g id="text_10">
      <!-- 0.75 -->
      <g style="fill: #262626" transform="translate(22.46125 99.109844) scale(0.1 -0.1)">
       <use xlink:href="#ArialMT-30"/>
       <use xlink:href="#ArialMT-2e" transform="translate(55.615234 0)"/>
       <use xlink:href="#ArialMT-37" transform="translate(83.398438 0)"/>
       <use xlink:href="#ArialMT-35" transform="translate(139.013672 0)"/>
      </g>
     </g>
    </g>
    <g id="ytick_5">
     <g id="line2d_10">
      <path d="M 48.922188 22.663594 
L 697.307188 22.663594 
" clip-path="url(#p4bb98c10cd)" style="fill: none; stroke: #cccccc; stroke-width: 0.8; stroke-linecap: round"/>
     </g>
     <g id="text_11">
      <!-- 1.00 -->
      <g style="fill: #262626" transform="translate(22.46125 26.2425) scale(0.1 -0.1)">
       <use xlink:href="#ArialMT-31"/>
       <use xlink:href="#ArialMT-2e" transform="translate(55.615234 0)"/>
       <use xlink:href="#ArialMT-30" transform="translate(83.398438 0)"/>
       <use xlink:href="#ArialMT-30" transform="translate(139.013672 0)"/>
      </g>
     </g>
    </g>
    <g id="text_12">
     <!-- Gap frequency -->
     <g style="fill: #262626" transform="translate(15.935625 207.752656) rotate(-90) scale(0.12 -0.12)">
      <defs>
       <path id="ArialMT-47" d="M 2638 1797 
L 2638 2334 
L 4578 2338 
L 4578 638 
Q 4131 281 3656 101 
Q 3181 -78 2681 -78 
Q 2006 -78 1454 211 
Q 903 500 622 1047 
Q 341 1594 341 2269 
Q 341 2938 620 3517 
Q 900 4097 1425 4378 
Q 1950 4659 2634 4659 
Q 3131 4659 3532 4498 
Q 3934 4338 4162 4050 
Q 4391 3763 4509 3300 
L 3963 3150 
Q 3859 3500 3706 3700 
Q 3553 3900 3268 4020 
Q 2984 4141 2638 4141 
Q 2222 4141 1919 4014 
Q 1616 3888 1430 3681 
Q 1244 3475 1141 3228 
Q 966 2803 966 2306 
Q 966 1694 1177 1281 
Q 1388 869 1791 669 
Q 2194 469 2647 469 
Q 3041 469 3416 620 
Q 3791 772 3984 944 
L 3984 1797 
L 2638 1797 
z
" transform="scale(0.015625)"/>
       <path id="ArialMT-66" d="M 556 0 
L 556 2881 
L 59 2881 
L 59 3319 
L 556 3319 
L 556 3672 
Q 556 4006 616 4169 
Q 697 4388 901 4523 
Q 1106 4659 1475 4659 
Q 1713 4659 2000 4603 
L 1916 4113 
Q 1741 4144 1584 4144 
Q 1328 4144 1222 4034 
Q 1116 3925 1116 3625 
L 1116 3319 
L 1763 3319 
L 1763 2881 
L 1116 2881 
L 1116 0 
L 556 0 
z
" transform="scale(0.015625)"/>
       <path id="ArialMT-71" d="M 2538 -1272 
L 2538 353 
Q 2406 169 2170 47 
Q 1934 -75 1669 -75 
Q 1078 -75 651 397 
Q 225 869 225 1691 
Q 225 2191 398 2587 
Q 572 2984 901 3189 
Q 1231 3394 1625 3394 
Q 2241 3394 2594 2875 
L 2594 3319 
L 3100 3319 
L 3100 -1272 
L 2538 -1272 
z
M 803 1669 
Q 803 1028 1072 708 
Q 1341 388 1716 388 
Q 2075 388 2334 692 
Q 2594 997 2594 1619 
Q 2594 2281 2320 2615 
Q 2047 2950 1678 2950 
Q 1313 2950 1058 2639 
Q 803 2328 803 1669 
z
" transform="scale(0.015625)"/>
       <path id="ArialMT-75" d="M 2597 0 
L 2597 488 
Q 2209 -75 1544 -75 
Q 1250 -75 995 37 
Q 741 150 617 320 
Q 494 491 444 738 
Q 409 903 409 1263 
L 409 3319 
L 972 3319 
L 972 1478 
Q 972 1038 1006 884 
Q 1059 663 1231 536 
Q 1403 409 1656 409 
Q 1909 409 2131 539 
Q 2353 669 2445 892 
Q 2538 1116 2538 1541 
L 2538 3319 
L 3100 3319 
L 3100 0 
L 2597 0 
z
" transform="scale(0.015625)"/>
       <path id="ArialMT-63" d="M 2588 1216 
L 3141 1144 
Q 3050 572 2676 248 
Q 2303 -75 1759 -75 
Q 1078 -75 664 370 
Q 250 816 250 1647 
Q 250 2184 428 2587 
Q 606 2991 970 3192 
Q 1334 3394 1763 3394 
Q 2303 3394 2647 3120 
Q 2991 2847 3088 2344 
L 2541 2259 
Q 2463 2594 2264 2762 
Q 2066 2931 1784 2931 
Q 1359 2931 1093 2626 
Q 828 2322 828 1663 
Q 828 994 1084 691 
Q 1341 388 1753 388 
Q 2084 388 2306 591 
Q 2528 794 2588 1216 
z
" transform="scale(0.015625)"/>
       <path id="ArialMT-79" d="M 397 -1278 
L 334 -750 
Q 519 -800 656 -800 
Q 844 -800 956 -737 
Q 1069 -675 1141 -563 
Q 1194 -478 1313 -144 
Q 1328 -97 1363 -6 
L 103 3319 
L 709 3319 
L 1400 1397 
Q 1534 1031 1641 628 
Q 1738 1016 1872 1384 
L 2581 3319 
L 3144 3319 
L 1881 -56 
Q 1678 -603 1566 -809 
Q 1416 -1088 1222 -1217 
Q 1028 -1347 759 -1347 
Q 597 -1347 397 -1278 
z
" transform="scale(0.015625)"/>
      </defs>
      <use xlink:href="#ArialMT-47"/>
      <use xlink:href="#ArialMT-61" transform="translate(77.783203 0)"/>
      <use xlink:href="#ArialMT-70" transform="translate(133.398438 0)"/>
      <use xlink:href="#ArialMT-20" transform="translate(189.013672 0)"/>
      <use xlink:href="#ArialMT-66" transform="translate(216.796875 0)"/>
      <use xlink:href="#ArialMT-72" transform="translate(244.580078 0)"/>
      <use xlink:href="#ArialMT-65" transform="translate(277.880859 0)"/>
      <use xlink:href="#ArialMT-71" transform="translate(333.496094 0)"/>
      <use xlink:href="#ArialMT-75" transform="translate(389.111328 0)"/>
      <use xlink:href="#ArialMT-65" transform="translate(444.726562 0)"/>
      <use xlink:href="#ArialMT-6e" transform="translate(500.341797 0)"/>
      <use xlink:href="#ArialMT-63" transform="translate(555.957031 0)"/>
      <use xlink:href="#ArialMT-79" transform="translate(605.957031 0)"/>
     </g>
    </g>
   </g>
   <g id="FillBetweenPolyCollection_1">
    <defs>
     <path id="mbcb1e75099" d="M 59.728604 -283.519915 
L 59.728604 -122.89512 
L 81.341438 -94.747539 
L 102.954271 -86.760541 
L 124.567104 -45.08366 
L 146.179937 -73.951278 
L 167.792771 -44.534595 
L 189.405604 -38.606563 
L 211.018438 -38.606563 
L 232.631271 -38.606563 
L 254.244104 -38.606563 
L 275.856938 -38.606563 
L 297.469771 -38.606563 
L 319.082604 -38.606563 
L 340.695438 -38.606563 
L 362.308271 -38.606563 
L 383.921104 -38.606563 
L 405.533938 -38.606563 
L 427.146771 -38.606563 
L 448.759604 -38.606563 
L 470.372438 -38.606563 
L 491.985271 -38.606563 
L 513.598104 -38.606563 
L 535.210938 -38.606563 
L 556.823771 -38.606563 
L 578.436604 -38.606563 
L 600.049438 -38.606563 
L 621.662271 -38.606563 
L 643.275104 -38.606563 
L 664.887938 -38.606563 
L 686.500771 -38.606563 
L 686.500771 -38.606563 
L 686.500771 -38.606563 
L 664.887938 -49.992085 
L 643.275104 -38.606563 
L 621.662271 -46.080136 
L 600.049438 -42.705351 
L 578.436604 -45.437876 
L 556.823771 -38.606563 
L 535.210938 -38.606563 
L 513.598104 -38.606563 
L 491.985271 -38.606563 
L 470.372438 -38.606563 
L 448.759604 -38.606563 
L 427.146771 -38.606563 
L 405.533938 -38.677722 
L 383.921104 -41.465804 
L 362.308271 -38.606563 
L 340.695438 -38.606563 
L 319.082604 -43.546491 
L 297.469771 -40.474956 
L 275.856938 -46.24901 
L 254.244104 -46.24901 
L 232.631271 -52.223547 
L 211.018438 -56.476411 
L 189.405604 -117.741365 
L 167.792771 -126.835153 
L 146.179937 -156.495515 
L 124.567104 -222.300777 
L 102.954271 -268.333653 
L 81.341438 -285.473714 
L 59.728604 -283.519915 
z
" style="stroke: #1f77b4; stroke-opacity: 0.3"/>
    </defs>
    <g clip-path="url(#p4bb98c10cd)">
     <use xlink:href="#mbcb1e75099" x="0" y="352.739531" style="fill: #1f77b4; fill-opacity: 0.3; stroke: #1f77b4; stroke-opacity: 0.3"/>
    </g>
   </g>
   <g id="line2d_11">
    <path d="M 59.728604 302.072167 
L 81.341438 289.149879 
L 102.954271 314.132969 
L 124.567104 314.132969 
L 146.179937 314.132969 
L 167.792771 314.132969 
L 189.405604 314.132969 
L 211.018438 314.132969 
L 232.631271 314.132969 
L 254.244104 314.132969 
L 275.856938 314.132969 
L 297.469771 314.132969 
L 319.082604 314.132969 
L 340.695438 314.132969 
L 362.308271 314.132969 
L 383.921104 314.132969 
L 405.533938 314.132969 
L 427.146771 314.132969 
L 448.759604 314.132969 
L 470.372438 314.132969 
L 491.985271 314.132969 
L 513.598104 314.132969 
L 535.210938 314.132969 
L 556.823771 314.132969 
L 578.436604 314.132969 
L 600.049438 314.132969 
L 621.662271 314.132969 
L 643.275104 314.132969 
L 664.887938 314.132969 
L 686.500771 314.132969 
" clip-path="url(#p4bb98c10cd)" style="fill: none; stroke: #cccccc; stroke-opacity: 0.7; stroke-width: 0.8; stroke-linecap: round"/>
   </g>
   <g id="line2d_12">
    <path d="M 59.728604 101.68264 
L 81.341438 67.025163 
L 102.954271 71.530635 
L 124.567104 120.051102 
L 146.179937 239.96597 
L 167.792771 259.027582 
L 189.405604 155.748302 
L 211.018438 308.38973 
L 232.631271 306.508324 
L 254.244104 304.428875 
L 275.856938 314.132969 
L 297.469771 314.132969 
L 319.082604 308.934347 
L 340.695438 314.132969 
L 362.308271 314.132969 
L 383.921104 310.320646 
L 405.533938 306.508324 
L 427.146771 308.934347 
L 448.759604 314.132969 
L 470.372438 314.132969 
L 491.985271 314.132969 
L 513.598104 314.132969 
L 535.210938 314.132969 
L 556.823771 314.132969 
L 578.436604 314.132969 
L 600.049438 314.132969 
L 621.662271 314.132969 
L 643.275104 314.132969 
L 664.887938 314.132969 
L 686.500771 314.132969 
" clip-path="url(#p4bb98c10cd)" style="fill: none; stroke: #cccccc; stroke-opacity: 0.7; stroke-width: 0.8; stroke-linecap: round"/>
   </g>
   <g id="line2d_13">
    <path d="M 59.728604 65.750371 
L 81.341438 44.629402 
L 102.954271 42.094885 
L 124.567104 42.094885 
L 146.179937 128.652457 
L 167.792771 265.977159 
L 189.405604 306.183804 
L 211.018438 266.821998 
L 232.631271 312.443291 
L 254.244104 314.132969 
L 275.856938 314.132969 
L 297.469771 314.132969 
L 319.082604 314.132969 
L 340.695438 314.132969 
L 362.308271 314.132969 
L 383.921104 314.132969 
L 405.533938 314.132969 
L 427.146771 314.132969 
L 448.759604 314.132969 
L 470.372438 314.132969 
L 491.985271 314.132969 
L 513.598104 314.132969 
L 535.210938 314.132969 
L 556.823771 314.132969 
L 578.436604 314.132969 
L 600.049438 314.132969 
L 621.662271 314.132969 
L 643.275104 314.132969 
L 664.887938 314.132969 
L 686.500771 314.132969 
" clip-path="url(#p4bb98c10cd)" style="fill: none; stroke: #cccccc; stroke-opacity: 0.7; stroke-width: 0.8; stroke-linecap: round"/>
   </g>
   <g id="line2d_14">
    <path d="M 59.728604 79.627351 
L 81.341438 71.820135 
L 102.954271 121.108862 
L 124.567104 256.5909 
L 146.179937 137.16942 
L 167.792771 282.011854 
L 189.405604 314.132969 
L 211.018438 314.132969 
L 232.631271 314.132969 
L 254.244104 314.132969 
L 275.856938 314.132969 
L 297.469771 314.132969 
L 319.082604 314.132969 
L 340.695438 314.132969 
L 362.308271 314.132969 
L 383.921104 314.132969 
L 405.533938 314.132969 
L 427.146771 314.132969 
L 448.759604 314.132969 
L 470.372438 314.132969 
L 491.985271 314.132969 
L 513.598104 314.132969 
L 535.210938 314.132969 
L 556.823771 314.132969 
L 578.436604 314.132969 
L 600.049438 314.132969 
L 621.662271 314.132969 
L 643.275104 314.132969 
L 664.887938 314.132969 
L 686.500771 314.132969 
" clip-path="url(#p4bb98c10cd)" style="fill: none; stroke: #cccccc; stroke-opacity: 0.7; stroke-width: 0.8; stroke-linecap: round"/>
   </g>
   <g id="line2d_15">
    <path d="M 59.728604 178.625277 
L 81.341438 311.465057 
L 102.954271 306.129233 
L 124.567104 314.132969 
L 146.179937 314.132969 
L 167.792771 314.132969 
L 189.405604 314.132969 
L 211.018438 314.132969 
L 232.631271 311.465057 
L 254.244104 314.132969 
L 275.856938 314.132969 
L 297.469771 314.132969 
L 319.082604 314.132969 
L 340.695438 314.132969 
L 362.308271 314.132969 
L 383.921104 314.132969 
L 405.533938 314.132969 
L 427.146771 314.132969 
L 448.759604 314.132969 
L 470.372438 314.132969 
L 491.985271 314.132969 
L 513.598104 314.132969 
L 535.210938 314.132969 
L 556.823771 314.132969 
L 578.436604 314.132969 
L 600.049438 302.127365 
L 621.662271 298.792475 
L 643.275104 298.792475 
L 664.887938 298.792475 
L 686.500771 298.792475 
" clip-path="url(#p4bb98c10cd)" style="fill: none; stroke: #cccccc; stroke-opacity: 0.7; stroke-width: 0.8; stroke-linecap: round"/>
   </g>
   <g id="line2d_16">
    <path d="M 59.728604 49.16081 
L 81.341438 67.987779 
L 102.954271 72.17155 
L 124.567104 190.014431 
L 146.179937 271.329774 
L 167.792771 235.338616 
L 189.405604 314.132969 
L 211.018438 314.132969 
L 232.631271 314.132969 
L 254.244104 314.132969 
L 275.856938 314.132969 
L 297.469771 314.132969 
L 319.082604 314.132969 
L 340.695438 314.132969 
L 362.308271 314.132969 
L 383.921104 314.132969 
L 405.533938 314.132969 
L 427.146771 314.132969 
L 448.759604 314.132969 
L 470.372438 314.132969 
L 491.985271 314.132969 
L 513.598104 314.132969 
L 535.210938 314.132969 
L 556.823771 314.132969 
L 578.436604 314.132969 
L 600.049438 314.132969 
L 621.662271 314.132969 
L 643.275104 314.132969 
L 664.887938 314.132969 
L 686.500771 314.132969 
" clip-path="url(#p4bb98c10cd)" style="fill: none; stroke: #cccccc; stroke-opacity: 0.7; stroke-width: 0.8; stroke-linecap: round"/>
   </g>
   <g id="line2d_17">
    <path d="M 59.728604 83.559874 
L 81.341438 51.810531 
L 102.954271 161.632028 
L 124.567104 128.99594 
L 146.179937 243.087309 
L 167.792771 235.598165 
L 189.405604 261.304145 
L 211.018438 306.846234 
L 232.631271 298.518538 
L 254.244104 306.846234 
L 275.856938 306.846234 
L 297.469771 306.846234 
L 319.082604 309.969121 
L 340.695438 314.132969 
L 362.308271 314.132969 
L 383.921104 304.957081 
L 405.533938 307.887196 
L 427.146771 314.132969 
L 448.759604 314.132969 
L 470.372438 314.132969 
L 491.985271 307.887196 
L 513.598104 283.424588 
L 535.210938 255.839094 
L 556.823771 255.839094 
L 578.436604 255.839094 
L 600.049438 248.822238 
L 621.662271 255.839094 
L 643.275104 255.839094 
L 664.887938 255.839094 
L 686.500771 255.839094 
" clip-path="url(#p4bb98c10cd)" style="fill: none; stroke: #cccccc; stroke-opacity: 0.7; stroke-width: 0.8; stroke-linecap: round"/>
   </g>
   <g id="line2d_18">
    <path d="M 59.728604 31.392494 
L 81.341438 69.628874 
L 102.954271 44.011448 
L 124.567104 51.886435 
L 146.179937 278.74297 
L 167.792771 205.909293 
L 189.405604 166.690453 
L 211.018438 274.28364 
L 232.631271 219.822891 
L 254.244104 46.66807 
L 275.856938 122.761312 
L 297.469771 308.06069 
L 319.082604 308.06069 
L 340.695438 308.440208 
L 362.308271 314.132969 
L 383.921104 303.60136 
L 405.533938 314.038089 
L 427.146771 311.096829 
L 448.759604 309.863398 
L 470.372438 310.907071 
L 491.985271 311.096829 
L 513.598104 310.812191 
L 535.210938 305.024551 
L 556.823771 304.045151 
L 578.436604 300.280583 
L 600.049438 298.952272 
L 621.662271 298.952272 
L 643.275104 298.952272 
L 664.887938 298.952272 
L 686.500771 298.952272 
" clip-path="url(#p4bb98c10cd)" style="fill: none; stroke: #cccccc; stroke-opacity: 0.7; stroke-width: 0.8; stroke-linecap: round"/>
   </g>
   <g id="line2d_19">
    <path d="M 59.728604 208.144105 
L 81.341438 242.590486 
L 102.954271 268.448114 
L 124.567104 226.692156 
L 146.179937 278.803348 
L 167.792771 309.107635 
L 189.405604 301.767601 
L 211.018438 309.716766 
L 232.631271 314.132969 
L 254.244104 314.132969 
L 275.856938 314.132969 
L 297.469771 314.132969 
L 319.082604 314.132969 
L 340.695438 314.132969 
L 362.308271 314.132969 
L 383.921104 314.132969 
L 405.533938 314.132969 
L 427.146771 314.132969 
L 448.759604 314.132969 
L 470.372438 314.132969 
L 491.985271 314.132969 
L 513.598104 314.132969 
L 535.210938 314.132969 
L 556.823771 314.132969 
L 578.436604 314.132969 
L 600.049438 314.132969 
L 621.662271 314.132969 
L 643.275104 314.132969 
L 664.887938 314.132969 
L 686.500771 314.132969 
" clip-path="url(#p4bb98c10cd)" style="fill: none; stroke: #cccccc; stroke-opacity: 0.7; stroke-width: 0.8; stroke-linecap: round"/>
   </g>
   <g id="line2d_20">
    <path d="M 59.728604 237.077847 
L 81.341438 292.735415 
L 102.954271 218.711447 
L 124.567104 205.410265 
L 146.179937 215.241574 
L 167.792771 222.759633 
L 189.405604 226.229506 
L 211.018438 292.735415 
L 232.631271 293.313728 
L 254.244104 297.940226 
L 275.856938 303.145036 
L 297.469771 314.132969 
L 319.082604 303.145036 
L 340.695438 297.940226 
L 362.308271 306.036597 
L 383.921104 314.132969 
L 405.533938 314.132969 
L 427.146771 314.132969 
L 448.759604 314.132969 
L 470.372438 314.132969 
L 491.985271 314.132969 
L 513.598104 314.132969 
L 535.210938 314.132969 
L 556.823771 314.132969 
L 578.436604 314.132969 
L 600.049438 314.132969 
L 621.662271 314.132969 
L 643.275104 314.132969 
L 664.887938 314.132969 
L 686.500771 314.132969 
" clip-path="url(#p4bb98c10cd)" style="fill: none; stroke: #cccccc; stroke-opacity: 0.7; stroke-width: 0.8; stroke-linecap: round"/>
   </g>
   <g id="line2d_21">
    <path d="M 59.728604 314.132969 
L 81.341438 314.132969 
L 102.954271 314.132969 
L 124.567104 314.132969 
L 146.179937 314.132969 
L 167.792771 314.132969 
L 189.405604 314.132969 
L 211.018438 314.132969 
L 232.631271 314.132969 
L 254.244104 314.132969 
L 275.856938 314.132969 
L 297.469771 314.132969 
L 319.082604 314.132969 
L 340.695438 314.132969 
L 362.308271 314.132969 
L 383.921104 314.132969 
L 405.533938 314.132969 
L 427.146771 314.132969 
L 448.759604 314.132969 
L 470.372438 314.132969 
L 491.985271 314.132969 
L 513.598104 314.132969 
L 535.210938 314.132969 
L 556.823771 314.132969 
L 578.436604 314.132969 
L 600.049438 314.132969 
L 621.662271 314.132969 
L 643.275104 314.132969 
L 664.887938 314.132969 
L 686.500771 314.132969 
" clip-path="url(#p4bb98c10cd)" style="fill: none; stroke: #cccccc; stroke-opacity: 0.7; stroke-width: 0.8; stroke-linecap: round"/>
   </g>
   <g id="line2d_22">
    <path d="M 59.728604 243.86803 
L 81.341438 168.398281 
L 102.954271 238.566834 
L 124.567104 265.55474 
L 146.179937 214.27772 
L 167.792771 252.060787 
L 189.405604 303.337807 
L 211.018438 314.132969 
L 232.631271 314.132969 
L 254.244104 314.132969 
L 275.856938 314.132969 
L 297.469771 314.132969 
L 319.082604 314.132969 
L 340.695438 314.132969 
L 362.308271 314.132969 
L 383.921104 314.132969 
L 405.533938 314.132969 
L 427.146771 314.132969 
L 448.759604 314.132969 
L 470.372438 314.132969 
L 491.985271 314.132969 
L 513.598104 314.132969 
L 535.210938 314.132969 
L 556.823771 314.132969 
L 578.436604 314.132969 
L 600.049438 314.132969 
L 621.662271 314.132969 
L 643.275104 314.132969 
L 664.887938 314.132969 
L 686.500771 314.132969 
" clip-path="url(#p4bb98c10cd)" style="fill: none; stroke: #cccccc; stroke-opacity: 0.7; stroke-width: 0.8; stroke-linecap: round"/>
   </g>
   <g id="line2d_23">
    <path d="M 59.728604 49.988848 
L 81.341438 56.668354 
L 102.954271 258.571619 
L 124.567104 207.868092 
L 146.179937 190.258484 
L 167.792771 258.268005 
L 189.405604 284.075189 
L 211.018438 314.132969 
L 232.631271 314.132969 
L 254.244104 314.132969 
L 275.856938 223.959631 
L 297.469771 303.810095 
L 319.082604 314.132969 
L 340.695438 314.132969 
L 362.308271 314.132969 
L 383.921104 314.132969 
L 405.533938 314.132969 
L 427.146771 313.525741 
L 448.759604 314.132969 
L 470.372438 312.918513 
L 491.985271 314.132969 
L 513.598104 295.612519 
L 535.210938 314.132969 
L 556.823771 305.935393 
L 578.436604 305.024551 
L 600.049438 308.667918 
L 621.662271 314.132969 
L 643.275104 314.132969 
L 664.887938 298.345044 
L 686.500771 314.132969 
" clip-path="url(#p4bb98c10cd)" style="fill: none; stroke: #cccccc; stroke-opacity: 0.7; stroke-width: 0.8; stroke-linecap: round"/>
   </g>
   <g id="line2d_24">
    <path d="M 59.728604 89.285165 
L 81.341438 80.957469 
L 102.954271 232.937929 
L 124.567104 288.22458 
L 146.179937 214.200612 
L 167.792771 305.496839 
L 189.405604 297.477576 
L 211.018438 311.973936 
L 232.631271 314.132969 
L 254.244104 314.132969 
L 275.856938 314.132969 
L 297.469771 314.132969 
L 319.082604 311.973936 
L 340.695438 314.132969 
L 362.308271 314.132969 
L 383.921104 314.132969 
L 405.533938 314.132969 
L 427.146771 314.132969 
L 448.759604 314.132969 
L 470.372438 314.132969 
L 491.985271 314.132969 
L 513.598104 314.132969 
L 535.210938 314.132969 
L 556.823771 314.132969 
L 578.436604 314.132969 
L 600.049438 314.132969 
L 621.662271 314.132969 
L 643.275104 314.132969 
L 664.887938 314.132969 
L 686.500771 314.132969 
" clip-path="url(#p4bb98c10cd)" style="fill: none; stroke: #cccccc; stroke-opacity: 0.7; stroke-width: 0.8; stroke-linecap: round"/>
   </g>
   <g id="line2d_25">
    <path d="M 59.728604 165.491891 
L 81.341438 120.969833 
L 102.954271 134.7672 
L 124.567104 134.7672 
L 146.179937 134.7672 
L 167.792771 133.904864 
L 189.405604 161.499598 
L 211.018438 290.051453 
L 232.631271 296.88626 
L 254.244104 306.37195 
L 275.856938 306.37195 
L 297.469771 311.641778 
L 319.082604 296.88626 
L 340.695438 215.82673 
L 362.308271 275.327874 
L 383.921104 247.701202 
L 405.533938 305.509614 
L 427.146771 276.19021 
L 448.759604 314.132969 
L 470.372438 314.132969 
L 491.985271 314.132969 
L 513.598104 314.132969 
L 535.210938 314.132969 
L 556.823771 314.132969 
L 578.436604 298.610931 
L 600.049438 314.132969 
L 621.662271 304.168204 
L 643.275104 314.132969 
L 664.887938 314.132969 
L 686.500771 314.132969 
" clip-path="url(#p4bb98c10cd)" style="fill: none; stroke: #cccccc; stroke-opacity: 0.7; stroke-width: 0.8; stroke-linecap: round"/>
   </g>
   <g id="line2d_26">
    <path d="M 59.728604 156.739506 
L 81.341438 150.181445 
L 102.954271 233.250217 
L 124.567104 314.132969 
L 146.179937 243.451645 
L 167.792771 199.002566 
L 189.405604 300.470342 
L 211.018438 314.132969 
L 232.631271 314.132969 
L 254.244104 314.132969 
L 275.856938 314.132969 
L 297.469771 314.132969 
L 319.082604 314.132969 
L 340.695438 314.132969 
L 362.308271 314.132969 
L 383.921104 314.132969 
L 405.533938 314.132969 
L 427.146771 314.132969 
L 448.759604 314.132969 
L 470.372438 314.132969 
L 491.985271 314.132969 
L 513.598104 314.132969 
L 535.210938 311.946948 
L 556.823771 314.132969 
L 578.436604 314.132969 
L 600.049438 314.132969 
L 621.662271 314.132969 
L 643.275104 314.132969 
L 664.887938 314.132969 
L 686.500771 314.132969 
" clip-path="url(#p4bb98c10cd)" style="fill: none; stroke: #cccccc; stroke-opacity: 0.7; stroke-width: 0.8; stroke-linecap: round"/>
   </g>
   <g id="line2d_27">
    <path d="M 59.728604 304.323903 
L 81.341438 263.125828 
L 102.954271 314.132969 
L 124.567104 314.132969 
L 146.179937 314.132969 
L 167.792771 314.132969 
L 189.405604 314.132969 
L 211.018438 314.132969 
L 232.631271 314.132969 
L 254.244104 314.132969 
L 275.856938 314.132969 
L 297.469771 314.132969 
L 319.082604 314.132969 
L 340.695438 314.132969 
L 362.308271 314.132969 
L 383.921104 314.132969 
L 405.533938 314.132969 
L 427.146771 314.132969 
L 448.759604 314.132969 
L 470.372438 314.132969 
L 491.985271 314.132969 
L 513.598104 314.132969 
L 535.210938 314.132969 
L 556.823771 314.132969 
L 578.436604 314.132969 
L 600.049438 314.132969 
L 621.662271 314.132969 
L 643.275104 314.132969 
L 664.887938 314.132969 
L 686.500771 314.132969 
" clip-path="url(#p4bb98c10cd)" style="fill: none; stroke: #cccccc; stroke-opacity: 0.7; stroke-width: 0.8; stroke-linecap: round"/>
   </g>
   <g id="line2d_28">
    <path d="M 59.728604 45.369475 
L 81.341438 41.237623 
L 102.954271 33.321456 
L 124.567104 71.956209 
L 146.179937 94.372474 
L 167.792771 111.961809 
L 189.405604 150.673792 
L 211.018438 249.957318 
L 232.631271 232.097675 
L 254.244104 244.161783 
L 275.856938 219.595925 
L 297.469771 26.949908 
L 319.082604 26.949908 
L 340.695438 26.949908 
L 362.308271 69.455859 
L 383.921104 245.313811 
L 405.533938 245.320247 
L 427.146771 314.132969 
L 448.759604 304.401877 
L 470.372438 314.132969 
L 491.985271 314.132969 
L 513.598104 314.132969 
L 535.210938 307.822562 
L 556.823771 293.744014 
L 578.436604 292.701397 
L 600.049438 292.701397 
L 621.662271 292.701397 
L 643.275104 292.701397 
L 664.887938 288.89134 
L 686.500771 288.415083 
" clip-path="url(#p4bb98c10cd)" style="fill: none; stroke: #cccccc; stroke-opacity: 0.7; stroke-width: 0.8; stroke-linecap: round"/>
   </g>
   <g id="line2d_29">
    <path d="M 59.728604 129.211073 
L 81.341438 100.963651 
L 102.954271 225.824688 
L 124.567104 217.280124 
L 146.179937 241.526639 
L 167.792771 258.647793 
L 189.405604 301.118972 
L 211.018438 313.053453 
L 232.631271 314.132969 
L 254.244104 314.132969 
L 275.856938 314.132969 
L 297.469771 314.132969 
L 319.082604 314.132969 
L 340.695438 314.132969 
L 362.308271 314.132969 
L 383.921104 314.132969 
L 405.533938 314.132969 
L 427.146771 314.132969 
L 448.759604 314.132969 
L 470.372438 314.132969 
L 491.985271 314.132969 
L 513.598104 314.132969 
L 535.210938 314.132969 
L 556.823771 314.132969 
L 578.436604 314.132969 
L 600.049438 314.132969 
L 621.662271 314.132969 
L 643.275104 314.132969 
L 664.887938 314.132969 
L 686.500771 314.132969 
" clip-path="url(#p4bb98c10cd)" style="fill: none; stroke: #1f77b4; stroke-width: 2.5; stroke-linecap: round"/>
   </g>
   <g id="patch_3">
    <path d="M 48.922188 314.132969 
L 48.922188 22.663594 
" style="fill: none; stroke: #cccccc; stroke-width: 0.8; stroke-linejoin: miter; stroke-linecap: square"/>
   </g>
   <g id="patch_4">
    <path d="M 48.922188 314.132969 
L 697.307188 314.132969 
" style="fill: none; stroke: #cccccc; stroke-width: 0.8; stroke-linejoin: miter; stroke-linecap: square"/>
   </g>
   <g id="text_13">
    <!-- Gap frequency profile across alignments (n=18) -->
    <g style="fill: #262626" transform="translate(236.011406 16.663594) scale(0.13 -0.13)">
     <defs>
      <path id="ArialMT-3d" d="M 3381 2694 
L 356 2694 
L 356 3219 
L 3381 3219 
L 3381 2694 
z
M 3381 1303 
L 356 1303 
L 356 1828 
L 3381 1828 
L 3381 1303 
z
" transform="scale(0.015625)"/>
      <path id="ArialMT-38" d="M 1131 2484 
Q 781 2613 612 2850 
Q 444 3088 444 3419 
Q 444 3919 803 4259 
Q 1163 4600 1759 4600 
Q 2359 4600 2725 4251 
Q 3091 3903 3091 3403 
Q 3091 3084 2923 2848 
Q 2756 2613 2416 2484 
Q 2838 2347 3058 2040 
Q 3278 1734 3278 1309 
Q 3278 722 2862 322 
Q 2447 -78 1769 -78 
Q 1091 -78 675 323 
Q 259 725 259 1325 
Q 259 1772 486 2073 
Q 713 2375 1131 2484 
z
M 1019 3438 
Q 1019 3113 1228 2906 
Q 1438 2700 1772 2700 
Q 2097 2700 2305 2904 
Q 2513 3109 2513 3406 
Q 2513 3716 2298 3927 
Q 2084 4138 1766 4138 
Q 1444 4138 1231 3931 
Q 1019 3725 1019 3438 
z
M 838 1322 
Q 838 1081 952 856 
Q 1066 631 1291 507 
Q 1516 384 1775 384 
Q 2178 384 2440 643 
Q 2703 903 2703 1303 
Q 2703 1709 2433 1975 
Q 2163 2241 1756 2241 
Q 1359 2241 1098 1978 
Q 838 1716 838 1322 
z
" transform="scale(0.015625)"/>
     </defs>
     <use xlink:href="#ArialMT-47"/>
     <use xlink:href="#ArialMT-61" transform="translate(77.783203 0)"/>
     <use xlink:href="#ArialMT-70" transform="translate(133.398438 0)"/>
     <use xlink:href="#ArialMT-20" transform="translate(189.013672 0)"/>
     <use xlink:href="#ArialMT-66" transform="translate(216.796875 0)"/>
     <use xlink:href="#ArialMT-72" transform="translate(244.580078 0)"/>
     <use xlink:href="#ArialMT-65" transform="translate(277.880859 0)"/>
     <use xlink:href="#ArialMT-71" transform="translate(333.496094 0)"/>
     <use xlink:href="#ArialMT-75" transform="translate(389.111328 0)"/>
     <use xlink:href="#ArialMT-65" transform="translate(444.726562 0)"/>
     <use xlink:href="#ArialMT-6e" transform="translate(500.341797 0)"/>
     <use xlink:href="#ArialMT-63" transform="translate(555.957031 0)"/>
     <use xlink:href="#ArialMT-79" transform="translate(605.957031 0)"/>
     <use xlink:href="#ArialMT-20" transform="translate(655.957031 0)"/>
     <use xlink:href="#ArialMT-70" transform="translate(683.740234 0)"/>
     <use xlink:href="#ArialMT-72" transform="translate(739.355469 0)"/>
     <use xlink:href="#ArialMT-6f" transform="translate(772.65625 0)"/>
     <use xlink:href="#ArialMT-66" transform="translate(828.271484 0)"/>
     <use xlink:href="#ArialMT-69" transform="translate(856.054688 0)"/>
     <use xlink:href="#ArialMT-6c" transform="translate(878.271484 0)"/>
     <use xlink:href="#ArialMT-65" transform="translate(900.488281 0)"/>
     <use xlink:href="#ArialMT-20" transform="translate(956.103516 0)"/>
     <use xlink:href="#ArialMT-61" transform="translate(983.886719 0)"/>
     <use xlink:href="#ArialMT-63" transform="translate(1039.501953 0)"/>
     <use xlink:href="#ArialMT-72" transform="translate(1089.501953 0)"/>
     <use xlink:href="#ArialMT-6f" transform="translate(1122.802734 0)"/>
     <use xlink:href="#ArialMT-73" transform="translate(1178.417969 0)"/>
     <use xlink:href="#ArialMT-73" transform="translate(1228.417969 0)"/>
     <use xlink:href="#ArialMT-20" transform="translate(1278.417969 0)"/>
     <use xlink:href="#ArialMT-61" transform="translate(1306.201172 0)"/>
     <use xlink:href="#ArialMT-6c" transform="translate(1361.816406 0)"/>
     <use xlink:href="#ArialMT-69" transform="translate(1384.033203 0)"/>
     <use xlink:href="#ArialMT-67" transform="translate(1406.25 0)"/>
     <use xlink:href="#ArialMT-6e" transform="translate(1461.865234 0)"/>
     <use xlink:href="#ArialMT-6d" transform="translate(1517.480469 0)"/>
     <use xlink:href="#ArialMT-65" transform="translate(1600.78125 0)"/>
     <use xlink:href="#ArialMT-6e" transform="translate(1656.396484 0)"/>
     <use xlink:href="#ArialMT-74" transform="translate(1712.011719 0)"/>
     <use xlink:href="#ArialMT-73" transform="translate(1739.794922 0)"/>
     <use xlink:href="#ArialMT-20" transform="translate(1789.794922 0)"/>
     <use xlink:href="#ArialMT-28" transform="translate(1817.578125 0)"/>
     <use xlink:href="#ArialMT-6e" transform="translate(1850.878906 0)"/>
     <use xlink:href="#ArialMT-3d" transform="translate(1906.494141 0)"/>
     <use xlink:href="#ArialMT-31" transform="translate(1964.892578 0)"/>
     <use xlink:href="#ArialMT-38" transform="translate(2020.507812 0)"/>
     <use xlink:href="#ArialMT-29" transform="translate(2076.123047 0)"/>
    </g>
   </g>
   <g id="legend_1">
    <g id="patch_5">
     <path d="M 540.474375 59.199531 
L 690.307188 59.199531 
Q 692.307188 59.199531 692.307188 57.199531 
L 692.307188 29.663594 
Q 692.307188 27.663594 690.307188 27.663594 
L 540.474375 27.663594 
Q 538.474375 27.663594 538.474375 29.663594 
L 538.474375 57.199531 
Q 538.474375 59.199531 540.474375 59.199531 
z
" style="fill: #ffffff; opacity: 0.8; stroke: #cccccc; stroke-linejoin: miter"/>
    </g>
    <g id="patch_6">
     <path d="M 542.474375 38.949531 
L 562.474375 38.949531 
L 562.474375 31.949531 
L 542.474375 31.949531 
z
" style="fill: #1f77b4; fill-opacity: 0.3; stroke: #1f77b4; stroke-opacity: 0.3; stroke-linejoin: miter"/>
    </g>
    <g id="text_14">
     <!-- IQR (25th–75th percentile) -->
     <g style="fill: #262626" transform="translate(570.474375 38.949531) scale(0.1 -0.1)">
      <defs>
       <path id="ArialMT-49" d="M 597 0 
L 597 4581 
L 1203 4581 
L 1203 0 
L 597 0 
z
" transform="scale(0.015625)"/>
       <path id="ArialMT-51" d="M 3966 491 
Q 4388 200 4744 66 
L 4566 -356 
Q 4072 -178 3581 206 
Q 3072 -78 2456 -78 
Q 1834 -78 1328 222 
Q 822 522 548 1065 
Q 275 1609 275 2291 
Q 275 2969 550 3525 
Q 825 4081 1333 4372 
Q 1841 4663 2469 4663 
Q 3103 4663 3612 4361 
Q 4122 4059 4389 3517 
Q 4656 2975 4656 2294 
Q 4656 1728 4484 1276 
Q 4313 825 3966 491 
z
M 2631 1266 
Q 3156 1119 3497 828 
Q 4031 1316 4031 2294 
Q 4031 2850 3842 3265 
Q 3653 3681 3289 3911 
Q 2925 4141 2472 4141 
Q 1794 4141 1347 3677 
Q 900 3213 900 2291 
Q 900 1397 1342 919 
Q 1784 441 2472 441 
Q 2797 441 3084 563 
Q 2800 747 2484 825 
L 2631 1266 
z
" transform="scale(0.015625)"/>
       <path id="ArialMT-52" d="M 503 0 
L 503 4581 
L 2534 4581 
Q 3147 4581 3465 4457 
Q 3784 4334 3975 4021 
Q 4166 3709 4166 3331 
Q 4166 2844 3850 2509 
Q 3534 2175 2875 2084 
Q 3116 1969 3241 1856 
Q 3506 1613 3744 1247 
L 4541 0 
L 3778 0 
L 3172 953 
Q 2906 1366 2734 1584 
Q 2563 1803 2427 1890 
Q 2291 1978 2150 2013 
Q 2047 2034 1813 2034 
L 1109 2034 
L 1109 0 
L 503 0 
z
M 1109 2559 
L 2413 2559 
Q 2828 2559 3062 2645 
Q 3297 2731 3419 2920 
Q 3541 3109 3541 3331 
Q 3541 3656 3305 3865 
Q 3069 4075 2559 4075 
L 1109 4075 
L 1109 2559 
z
" transform="scale(0.015625)"/>
       <path id="ArialMT-68" d="M 422 0 
L 422 4581 
L 984 4581 
L 984 2938 
Q 1378 3394 1978 3394 
Q 2347 3394 2619 3248 
Q 2891 3103 3008 2847 
Q 3125 2591 3125 2103 
L 3125 0 
L 2563 0 
L 2563 2103 
Q 2563 2525 2380 2717 
Q 2197 2909 1863 2909 
Q 1613 2909 1392 2779 
Q 1172 2650 1078 2428 
Q 984 2206 984 1816 
L 984 0 
L 422 0 
z
" transform="scale(0.015625)"/>
       <path id="ArialMT-2013" d="M -13 1431 
L -13 1884 
L 3547 1884 
L 3547 1431 
L -13 1431 
z
" transform="scale(0.015625)"/>
      </defs>
      <use xlink:href="#ArialMT-49"/>
      <use xlink:href="#ArialMT-51" transform="translate(27.783203 0)"/>
      <use xlink:href="#ArialMT-52" transform="translate(105.566406 0)"/>
      <use xlink:href="#ArialMT-20" transform="translate(177.783203 0)"/>
      <use xlink:href="#ArialMT-28" transform="translate(205.566406 0)"/>
      <use xlink:href="#ArialMT-32" transform="translate(238.867188 0)"/>
      <use xlink:href="#ArialMT-35" transform="translate(294.482422 0)"/>
      <use xlink:href="#ArialMT-74" transform="translate(350.097656 0)"/>
      <use xlink:href="#ArialMT-68" transform="translate(377.880859 0)"/>
      <use xlink:href="#ArialMT-2013" transform="translate(433.496094 0)"/>
      <use xlink:href="#ArialMT-37" transform="translate(489.111328 0)"/>
      <use xlink:href="#ArialMT-35" transform="translate(544.726562 0)"/>
      <use xlink:href="#ArialMT-74" transform="translate(600.341797 0)"/>
      <use xlink:href="#ArialMT-68" transform="translate(628.125 0)"/>
      <use xlink:href="#ArialMT-20" transform="translate(683.740234 0)"/>
      <use xlink:href="#ArialMT-70" transform="translate(711.523438 0)"/>
      <use xlink:href="#ArialMT-65" transform="translate(767.138672 0)"/>
      <use xlink:href="#ArialMT-72" transform="translate(822.753906 0)"/>
      <use xlink:href="#ArialMT-63" transform="translate(856.054688 0)"/>
      <use xlink:href="#ArialMT-65" transform="translate(906.054688 0)"/>
      <use xlink:href="#ArialMT-6e" transform="translate(961.669922 0)"/>
      <use xlink:href="#ArialMT-74" transform="translate(1017.285156 0)"/>
      <use xlink:href="#ArialMT-69" transform="translate(1045.068359 0)"/>
      <use xlink:href="#ArialMT-6c" transform="translate(1067.285156 0)"/>
      <use xlink:href="#ArialMT-65" transform="translate(1089.501953 0)"/>
      <use xlink:href="#ArialMT-29" transform="translate(1145.117188 0)"/>
     </g>
    </g>
    <g id="line2d_30">
     <path d="M 542.474375 49.712031 
L 552.474375 49.712031 
L 562.474375 49.712031 
" style="fill: none; stroke: #1f77b4; stroke-width: 2.5; stroke-linecap: round"/>
    </g>
    <g id="text_15">
     <!-- Median -->
     <g style="fill: #262626" transform="translate(570.474375 53.212031) scale(0.1 -0.1)">
      <defs>
       <path id="ArialMT-4d" d="M 475 0 
L 475 4581 
L 1388 4581 
L 2472 1338 
Q 2622 884 2691 659 
Q 2769 909 2934 1394 
L 4031 4581 
L 4847 4581 
L 4847 0 
L 4263 0 
L 4263 3834 
L 2931 0 
L 2384 0 
L 1059 3900 
L 1059 0 
L 475 0 
z
" transform="scale(0.015625)"/>
      </defs>
      <use xlink:href="#ArialMT-4d"/>
      <use xlink:href="#ArialMT-65" transform="translate(83.300781 0)"/>
      <use xlink:href="#ArialMT-64" transform="translate(138.916016 0)"/>
      <use xlink:href="#ArialMT-69" transform="translate(194.53125 0)"/>
      <use xlink:href="#ArialMT-61" transform="translate(216.748047 0)"/>
      <use xlink:href="#ArialMT-6e" transform="translate(272.363281 0)"/>
     </g>
    </g>
   </g>
  </g>
 </g>
 <defs>
  <clipPath id="p4bb98c10cd">
   <rect x="48.922188" y="22.663594" width="648.385" height="291.469375"/>
  </clipPath>
 </defs>
</svg>
