<?xml version="1.0" encoding="utf-8" standalone="no"?>
<!DOCTYPE svg PUBLIC "-//W3C//DTD SVG 1.1//EN"
  "http://www.w3.org/Graphics/SVG/1.1/DTD/svg11.dtd">
<svg xmlns:xlink="http://www.w3.org/1999/xlink" width="864pt" height="576pt" viewBox="0 0 864 576" xmlns="http://www.w3.org/2000/svg" version="1.1">
 <metadata>
  <rdf:RDF xmlns:dc="http://purl.org/dc/elements/1.1/" xmlns:cc="http://creativecommons.org/ns#" xmlns:rdf="http://www.w3.org/1999/02/22-rdf-syntax-ns#">
   <cc:Work>
    <dc:type rdf:resource="http://purl.org/dc/dcmitype/StillImage"/>
    <dc:date>2026-03-04T14:41:10.214584</dc:date>
    <dc:format>image/svg+xml</dc:format>
    <dc:creator>
     <cc:Agent>
      <dc:title>Matplotlib v3.10.6, https://matplotlib.org/</dc:title>
     </cc:Agent>
    </dc:creator>
   </cc:Work>
  </rdf:RDF>
 </metadata>
 <defs>
  <style type="text/css">*{stroke-linejoin: round; stroke-linecap: butt}</style>
 </defs>
 <g id="figure_1">
  <g id="patch_1">
   <path d="M 0 576 
L 864 576 
L 864 0 
L 0 0 
z
" style="fill: #ffffff"/>
  </g>
  <g id="axes_1">
   <g id="patch_2">
    <path d="M 92.563636 565.2 
L 771.436364 565.2 
L 771.436364 31.8 
L 92.563636 31.8 
z
" style="fill: #ffffff"/>
   </g>
   <g id="patch_3">
    <path d="M 238.036364 439.123636 
C 243.180339 439.123636 248.114324 437.079913 251.751664 433.442573 
C 255.389004 429.805233 257.432727 424.871248 257.432727 419.727273 
C 257.432727 414.583297 255.389004 409.649313 251.751664 406.011972 
C 248.114324 402.374632 243.180339 400.330909 238.036364 400.330909 
C 232.892388 400.330909 227.958404 402.374632 224.321063 406.011972 
C 220.683723 409.649313 218.64 414.583297 218.64 419.727273 
C 218.64 424.871248 220.683723 429.805233 224.321063 433.442573 
C 227.958404 437.079913 232.892388 439.123636 238.036364 439.123636 
z
" clip-path="url(#p3ad9a7d674)" style="fill: #ffbf00; stroke: #000000; stroke-width: 3; stroke-linejoin: miter"/>
   </g>
   <g id="patch_4">
    <path d="M 335.018182 439.123636 
C 340.162158 439.123636 345.096142 437.079913 348.733482 433.442573 
C 352.370822 429.805233 354.414545 424.871248 354.414545 419.727273 
C 354.414545 414.583297 352.370822 409.649313 348.733482 406.011972 
C 345.096142 402.374632 340.162158 400.330909 335.018182 400.330909 
C 329.874206 400.330909 324.940222 402.374632 321.302882 406.011972 
C 317.665541 409.649313 315.621818 414.583297 315.621818 419.727273 
C 315.621818 424.871248 317.665541 429.805233 321.302882 433.442573 
C 324.940222 437.079913 329.874206 439.123636 335.018182 439.123636 
z
" clip-path="url(#p3ad9a7d674)" style="fill: #4ea3ff; stroke: #000000; stroke-width: 3; stroke-linejoin: miter"/>
   </g>
   <g id="patch_5">
    <path d="M 335.018182 424.576364 
C 336.304176 424.576364 337.537672 424.065433 338.447007 423.156098 
C 339.356342 422.246763 339.867273 421.013267 339.867273 419.727273 
C 339.867273 418.441279 339.356342 417.207783 338.447007 416.298448 
C 337.537672 415.389113 336.304176 414.878182 335.018182 414.878182 
C 333.732188 414.878182 332.498692 415.389113 331.589357 416.298448 
C 330.680022 417.207783 330.169091 418.441279 330.169091 419.727273 
C 330.169091 421.013267 330.680022 422.246763 331.589357 423.156098 
C 332.498692 424.065433 333.732188 424.576364 335.018182 424.576364 
z
" clip-path="url(#p3ad9a7d674)" style="fill: #ffffff; stroke: #ffffff; stroke-width: 2; stroke-linejoin: miter"/>
   </g>
   <g id="patch_6">
    <path d="M 432 439.123636 
C 437.143976 439.123636 442.07796 437.079913 445.7153 433.442573 
C 449.35264 429.805233 451.396364 424.871248 451.396364 419.727273 
C 451.396364 414.583297 449.35264 409.649313 445.7153 406.011972 
C 442.07796 402.374632 437.143976 400.330909 432 400.330909 
C 426.856024 400.330909 421.92204 402.374632 418.2847 406.011972 
C 414.64736 409.649313 412.603636 414.583297 412.603636 419.727273 
C 412.603636 424.871248 414.64736 429.805233 418.2847 433.442573 
C 421.92204 437.079913 426.856024 439.123636 432 439.123636 
z
" clip-path="url(#p3ad9a7d674)" style="fill: #3cb371; stroke: #000000; stroke-width: 3; stroke-linejoin: miter"/>
   </g>
   <g id="patch_7">
    <path d="M 528.981818 439.123636 
C 534.125794 439.123636 539.059778 437.079913 542.697118 433.442573 
C 546.334459 429.805233 548.378182 424.871248 548.378182 419.727273 
C 548.378182 414.583297 546.334459 409.649313 542.697118 406.011972 
C 539.059778 402.374632 534.125794 400.330909 528.981818 400.330909 
C 523.837842 400.330909 518.903858 402.374632 515.266518 406.011972 
C 511.629178 409.649313 509.585455 414.583297 509.585455 419.727273 
C 509.585455 424.871248 511.629178 429.805233 515.266518 433.442573 
C 518.903858 437.079913 523.837842 439.123636 528.981818 439.123636 
z
" clip-path="url(#p3ad9a7d674)" style="fill: #3cb371; stroke: #000000; stroke-width: 3; stroke-linejoin: miter"/>
   </g>
   <g id="patch_8">
    <path d="M 276.829091 342.141818 
C 281.973067 342.141818 286.907051 340.098095 290.544391 336.460755 
C 294.181731 332.823415 296.225455 327.88943 296.225455 322.745455 
C 296.225455 317.601479 294.181731 312.667494 290.544391 309.030154 
C 286.907051 305.392814 281.973067 303.349091 276.829091 303.349091 
C 271.685115 303.349091 266.751131 305.392814 263.113791 309.030154 
C 259.476451 312.667494 257.432727 317.601479 257.432727 322.745455 
C 257.432727 327.88943 259.476451 332.823415 263.113791 336.460755 
C 266.751131 340.098095 271.685115 342.141818 276.829091 342.141818 
z
" clip-path="url(#p3ad9a7d674)" style="fill: #4ea3ff; stroke: #000000; stroke-width: 3; stroke-linejoin: miter"/>
   </g>
   <g id="patch_9">
    <path d="M 276.829091 245.16 
C 281.973067 245.16 286.907051 243.116277 290.544391 239.478937 
C 294.181731 235.841596 296.225455 230.907612 296.225455 225.763636 
C 296.225455 220.619661 294.181731 215.685676 290.544391 212.048336 
C 286.907051 208.410996 281.973067 206.367273 276.829091 206.367273 
C 271.685115 206.367273 266.751131 208.410996 263.113791 212.048336 
C 259.476451 215.685676 257.432727 220.619661 257.432727 225.763636 
C 257.432727 230.907612 259.476451 235.841596 263.113791 239.478937 
C 266.751131 243.116277 271.685115 245.16 276.829091 245.16 
z
" clip-path="url(#p3ad9a7d674)" style="fill: #4ea3ff; stroke: #000000; stroke-width: 3; stroke-linejoin: miter"/>
   </g>
   <g id="patch_10">
    <path d="M 276.829091 148.178182 
C 281.973067 148.178182 286.907051 146.134459 290.544391 142.497118 
C 294.181731 138.859778 296.225455 133.925794 296.225455 128.781818 
C 296.225455 123.637842 294.181731 118.703858 290.544391 115.066518 
C 286.907051 111.429178 281.973067 109.385455 276.829091 109.385455 
C 271.685115 109.385455 266.751131 111.429178 263.113791 115.066518 
C 259.476451 118.703858 257.432727 123.637842 257.432727 128.781818 
C 257.432727 133.925794 259.476451 138.859778 263.113791 142.497118 
C 266.751131 146.134459 271.685115 148.178182 276.829091 148.178182 
z
" clip-path="url(#p3ad9a7d674)" style="fill: #ffbf00; stroke: #000000; stroke-width: 3; stroke-linejoin: miter"/>
   </g>
   <g id="patch_11">
    <path d="M 313.197273 72.255734 
C 314.911931 72.255734 316.556593 71.574493 317.769039 70.362046 
C 318.981486 69.1496 319.662727 67.504938 319.662727 65.790279 
C 319.662727 64.075621 318.981486 62.430959 317.769039 61.218513 
C 316.556593 60.006066 314.911931 59.324825 313.197273 59.324825 
C 311.482614 59.324825 309.837953 60.006066 308.625506 61.218513 
C 307.413059 62.430959 306.731818 64.075621 306.731818 65.790279 
C 306.731818 67.504938 307.413059 69.1496 308.625506 70.362046 
C 309.837953 71.574493 311.482614 72.255734 313.197273 72.255734 
z
" clip-path="url(#p3ad9a7d674)" style="fill: #1f77b4; stroke: #000000; stroke-width: 1.5; stroke-linejoin: miter"/>
   </g>
   <g id="matplotlib.axis_1"/>
   <g id="matplotlib.axis_2"/>
   <g id="line2d_1">
    <path d="M 335.018182 419.727273 
" clip-path="url(#p3ad9a7d674)" style="fill: none; stroke: #000000; stroke-width: 1.5; stroke-linecap: square"/>
    <defs>
     <path id="ma44799efd6" d="M 0 1.4 
C 0.371284 1.4 0.727412 1.252487 0.989949 0.989949 
C 1.252487 0.727412 1.4 0.371284 1.4 0 
C 1.4 -0.371284 1.252487 -0.727412 0.989949 -0.989949 
C 0.727412 -1.252487 0.371284 -1.4 0 -1.4 
C -0.371284 -1.4 -0.727412 -1.252487 -0.989949 -0.989949 
C -1.252487 -0.727412 -1.4 -0.371284 -1.4 0 
C -1.4 0.371284 -1.252487 0.727412 -0.989949 0.989949 
C -0.727412 1.252487 -0.371284 1.4 0 1.4 
z
" style="stroke: #000000"/>
    </defs>
    <g clip-path="url(#p3ad9a7d674)">
     <use xlink:href="#ma44799efd6" x="335.018182" y="419.727273" style="stroke: #000000"/>
    </g>
   </g>
   <g id="line2d_2">
    <path d="M 286.527273 111.984075 
L 313.197273 65.790279 
" clip-path="url(#p3ad9a7d674)" style="fill: none; stroke: #000000; stroke-width: 1.5; stroke-linecap: square"/>
   </g>
   <g id="text_1">
    <!-- Gal -->
    <g transform="translate(225.167301 454.61054) scale(0.14 -0.14)">
     <defs>
      <path id="DejaVuSans-Bold-47" d="M 4781 347 
Q 4331 128 3847 18 
Q 3363 -91 2847 -91 
Q 1681 -91 1000 561 
Q 319 1213 319 2328 
Q 319 3456 1012 4103 
Q 1706 4750 2913 4750 
Q 3378 4750 3804 4662 
Q 4231 4575 4609 4403 
L 4609 3438 
Q 4219 3659 3833 3768 
Q 3447 3878 3059 3878 
Q 2341 3878 1952 3476 
Q 1563 3075 1563 2328 
Q 1563 1588 1938 1184 
Q 2313 781 3003 781 
Q 3191 781 3352 804 
Q 3513 828 3641 878 
L 3641 1784 
L 2906 1784 
L 2906 2591 
L 4781 2591 
L 4781 347 
z
" transform="scale(0.015625)"/>
      <path id="DejaVuSans-Bold-61" d="M 2106 1575 
Q 1756 1575 1579 1456 
Q 1403 1338 1403 1106 
Q 1403 894 1545 773 
Q 1688 653 1941 653 
Q 2256 653 2472 879 
Q 2688 1106 2688 1447 
L 2688 1575 
L 2106 1575 
z
M 3816 1997 
L 3816 0 
L 2688 0 
L 2688 519 
Q 2463 200 2181 54 
Q 1900 -91 1497 -91 
Q 953 -91 614 226 
Q 275 544 275 1050 
Q 275 1666 698 1953 
Q 1122 2241 2028 2241 
L 2688 2241 
L 2688 2328 
Q 2688 2594 2478 2717 
Q 2269 2841 1825 2841 
Q 1466 2841 1156 2769 
Q 847 2697 581 2553 
L 581 3406 
Q 941 3494 1303 3539 
Q 1666 3584 2028 3584 
Q 2975 3584 3395 3211 
Q 3816 2838 3816 1997 
z
" transform="scale(0.015625)"/>
      <path id="DejaVuSans-Bold-6c" d="M 538 4863 
L 1656 4863 
L 1656 0 
L 538 0 
L 538 4863 
z
" transform="scale(0.015625)"/>
     </defs>
     <use xlink:href="#DejaVuSans-Bold-47"/>
     <use xlink:href="#DejaVuSans-Bold-61" transform="translate(82.080078 0)"/>
     <use xlink:href="#DejaVuSans-Bold-6c" transform="translate(149.560547 0)"/>
    </g>
   </g>
   <g id="text_2">
    <!-- GlcA -->
    <g transform="translate(317.305994 454.61054) scale(0.14 -0.14)">
     <defs>
      <path id="DejaVuSans-Bold-63" d="M 3366 3391 
L 3366 2478 
Q 3138 2634 2908 2709 
Q 2678 2784 2431 2784 
Q 1963 2784 1702 2511 
Q 1441 2238 1441 1747 
Q 1441 1256 1702 982 
Q 1963 709 2431 709 
Q 2694 709 2930 787 
Q 3166 866 3366 1019 
L 3366 103 
Q 3103 6 2833 -42 
Q 2563 -91 2291 -91 
Q 1344 -91 809 395 
Q 275 881 275 1747 
Q 275 2613 809 3098 
Q 1344 3584 2291 3584 
Q 2566 3584 2833 3536 
Q 3100 3488 3366 3391 
z
" transform="scale(0.015625)"/>
      <path id="DejaVuSans-Bold-41" d="M 3419 850 
L 1538 850 
L 1241 0 
L 31 0 
L 1759 4666 
L 3194 4666 
L 4922 0 
L 3713 0 
L 3419 850 
z
M 1838 1716 
L 3116 1716 
L 2478 3572 
L 1838 1716 
z
" transform="scale(0.015625)"/>
     </defs>
     <use xlink:href="#DejaVuSans-Bold-47"/>
     <use xlink:href="#DejaVuSans-Bold-6c" transform="translate(82.080078 0)"/>
     <use xlink:href="#DejaVuSans-Bold-63" transform="translate(116.357422 0)"/>
     <use xlink:href="#DejaVuSans-Bold-41" transform="translate(175.634766 0)"/>
    </g>
   </g>
   <g id="text_3">
    <!-- Man -->
    <g transform="translate(415.326875 454.61054) scale(0.14 -0.14)">
     <defs>
      <path id="DejaVuSans-Bold-4d" d="M 588 4666 
L 2119 4666 
L 3181 2169 
L 4250 4666 
L 5778 4666 
L 5778 0 
L 4641 0 
L 4641 3413 
L 3566 897 
L 2803 897 
L 1728 3413 
L 1728 0 
L 588 0 
L 588 4666 
z
" transform="scale(0.015625)"/>
      <path id="DejaVuSans-Bold-6e" d="M 4056 2131 
L 4056 0 
L 2931 0 
L 2931 347 
L 2931 1631 
Q 2931 2084 2911 2256 
Q 2891 2428 2841 2509 
Q 2775 2619 2662 2680 
Q 2550 2741 2406 2741 
Q 2056 2741 1856 2470 
Q 1656 2200 1656 1722 
L 1656 0 
L 538 0 
L 538 3500 
L 1656 3500 
L 1656 2988 
Q 1909 3294 2193 3439 
Q 2478 3584 2822 3584 
Q 3428 3584 3742 3212 
Q 4056 2841 4056 2131 
z
" transform="scale(0.015625)"/>
     </defs>
     <use xlink:href="#DejaVuSans-Bold-4d"/>
     <use xlink:href="#DejaVuSans-Bold-61" transform="translate(99.511719 0)"/>
     <use xlink:href="#DejaVuSans-Bold-6e" transform="translate(166.992188 0)"/>
    </g>
   </g>
   <g id="text_4">
    <!-- Man -->
    <g transform="translate(512.308693 454.61054) scale(0.14 -0.14)">
     <use xlink:href="#DejaVuSans-Bold-4d"/>
     <use xlink:href="#DejaVuSans-Bold-61" transform="translate(99.511719 0)"/>
     <use xlink:href="#DejaVuSans-Bold-6e" transform="translate(166.992188 0)"/>
    </g>
   </g>
   <g id="patch_12">
    <path d="M 240.034128 419.727273 
Q 286.527558 419.727273 329.666887 419.727273 
" style="fill: none; stroke: #000000; stroke-width: 3; stroke-linecap: round"/>
    <path d="M 323.666887 416.727273 
L 329.666887 419.727273 
L 323.666887 422.727273 
" style="fill: none; stroke: #000000; stroke-width: 3; stroke-linecap: round"/>
   </g>
   <g id="text_5">
    <!-- β1-2 -->
    <g transform="translate(268.870866 404.28919) scale(0.14 -0.14)">
     <defs>
      <path id="DejaVuSans-Bold-3b2" d="M 2575 3038 
Q 2772 3309 2772 3503 
Q 2772 3769 2648 3948 
Q 2525 4128 2241 4128 
Q 1900 4128 1778 3864 
Q 1656 3600 1656 3103 
L 1656 1747 
Q 1656 1250 1848 986 
Q 2041 722 2400 722 
Q 2800 722 2953 934 
Q 3106 1147 3106 1275 
Q 3106 1722 2738 1988 
Q 2538 2122 1988 2134 
L 1988 2847 
Q 2497 2925 2575 3038 
z
M 538 -1331 
L 538 3044 
Q 538 3922 969 4369 
Q 1325 4741 1672 4845 
Q 2019 4950 2259 4950 
Q 2500 4947 2538 4941 
Q 3178 4841 3538 4438 
Q 3788 4163 3788 3600 
Q 3788 3313 3616 3053 
Q 3406 2734 3094 2709 
Q 3556 2584 3844 2322 
Q 4294 1919 4294 1288 
Q 4294 731 3903 320 
Q 3513 -91 2809 -91 
Q 2106 -91 1656 506 
L 1656 -1331 
L 538 -1331 
z
" transform="scale(0.015625)"/>
      <path id="DejaVuSans-Bold-31" d="M 750 831 
L 1813 831 
L 1813 3847 
L 722 3622 
L 722 4441 
L 1806 4666 
L 2950 4666 
L 2950 831 
L 4013 831 
L 4013 0 
L 750 0 
L 750 831 
z
" transform="scale(0.015625)"/>
      <path id="DejaVuSans-Bold-2d" d="M 347 2297 
L 2309 2297 
L 2309 1388 
L 347 1388 
L 347 2297 
z
" transform="scale(0.015625)"/>
      <path id="DejaVuSans-Bold-32" d="M 1844 884 
L 3897 884 
L 3897 0 
L 506 0 
L 506 884 
L 2209 2388 
Q 2438 2594 2547 2791 
Q 2656 2988 2656 3200 
Q 2656 3528 2436 3728 
Q 2216 3928 1850 3928 
Q 1569 3928 1234 3808 
Q 900 3688 519 3450 
L 519 4475 
Q 925 4609 1322 4679 
Q 1719 4750 2100 4750 
Q 2938 4750 3402 4381 
Q 3866 4013 3866 3353 
Q 3866 2972 3669 2642 
Q 3472 2313 2841 1759 
L 1844 884 
z
" transform="scale(0.015625)"/>
     </defs>
     <use xlink:href="#DejaVuSans-Bold-3b2"/>
     <use xlink:href="#DejaVuSans-Bold-31" transform="translate(71.582031 0)"/>
     <use xlink:href="#DejaVuSans-Bold-2d" transform="translate(141.162109 0)"/>
     <use xlink:href="#DejaVuSans-Bold-32" transform="translate(182.666016 0)"/>
    </g>
   </g>
   <g id="patch_13">
    <path d="M 337.015946 419.727273 
Q 383.509376 419.727273 426.648705 419.727273 
" style="fill: none; stroke: #000000; stroke-width: 3; stroke-linecap: round"/>
    <path d="M 420.648705 416.727273 
L 426.648705 419.727273 
L 420.648705 422.727273 
" style="fill: none; stroke: #000000; stroke-width: 3; stroke-linecap: round"/>
   </g>
   <g id="text_6">
    <!-- α1-3 -->
    <g transform="translate(366.053935 404.194034) scale(0.14 -0.14)">
     <defs>
      <path id="DejaVuSans-Bold-3b1" d="M 3006 3163 
L 3119 3500 
L 4088 3500 
L 3484 1697 
L 3569 1219 
Q 3659 703 3872 703 
L 4128 703 
L 4128 0 
L 3809 0 
Q 3313 0 3059 263 
Q 3003 322 2988 353 
Q 2838 163 2689 39 
Q 2541 -84 1763 -78 
Q 988 -72 648 400 
Q 309 872 309 1794 
Q 309 2713 663 3088 
Q 1109 3569 1966 3578 
Q 2688 3588 3006 3163 
z
M 2575 1841 
L 2481 2350 
Q 2394 2825 1981 2828 
Q 1772 2828 1598 2558 
Q 1425 2288 1425 1741 
Q 1425 1191 1581 944 
Q 1738 697 1969 691 
Q 2213 684 2363 1163 
L 2575 1841 
z
" transform="scale(0.015625)"/>
      <path id="DejaVuSans-Bold-33" d="M 2981 2516 
Q 3453 2394 3698 2092 
Q 3944 1791 3944 1325 
Q 3944 631 3412 270 
Q 2881 -91 1863 -91 
Q 1503 -91 1142 -33 
Q 781 25 428 141 
L 428 1069 
Q 766 900 1098 814 
Q 1431 728 1753 728 
Q 2231 728 2486 893 
Q 2741 1059 2741 1369 
Q 2741 1688 2480 1852 
Q 2219 2016 1709 2016 
L 1228 2016 
L 1228 2791 
L 1734 2791 
Q 2188 2791 2409 2933 
Q 2631 3075 2631 3366 
Q 2631 3634 2415 3781 
Q 2200 3928 1806 3928 
Q 1516 3928 1219 3862 
Q 922 3797 628 3669 
L 628 4550 
Q 984 4650 1334 4700 
Q 1684 4750 2022 4750 
Q 2931 4750 3382 4451 
Q 3834 4153 3834 3553 
Q 3834 3144 3618 2883 
Q 3403 2622 2981 2516 
z
" transform="scale(0.015625)"/>
     </defs>
     <use xlink:href="#DejaVuSans-Bold-3b1"/>
     <use xlink:href="#DejaVuSans-Bold-31" transform="translate(68.701172 0)"/>
     <use xlink:href="#DejaVuSans-Bold-2d" transform="translate(138.28125 0)"/>
     <use xlink:href="#DejaVuSans-Bold-33" transform="translate(179.785156 0)"/>
    </g>
   </g>
   <g id="patch_14">
    <path d="M 433.997764 419.727273 
Q 480.491195 419.727273 523.630523 419.727273 
" style="fill: none; stroke: #000000; stroke-width: 3; stroke-linecap: round"/>
    <path d="M 517.630523 416.727273 
L 523.630523 419.727273 
L 517.630523 422.727273 
" style="fill: none; stroke: #000000; stroke-width: 3; stroke-linecap: round"/>
   </g>
   <g id="text_7">
    <!-- α1-2 -->
    <g transform="translate(463.035753 404.194034) scale(0.14 -0.14)">
     <use xlink:href="#DejaVuSans-Bold-3b1"/>
     <use xlink:href="#DejaVuSans-Bold-31" transform="translate(68.701172 0)"/>
     <use xlink:href="#DejaVuSans-Bold-2d" transform="translate(138.28125 0)"/>
     <use xlink:href="#DejaVuSans-Bold-32" transform="translate(179.785156 0)"/>
    </g>
   </g>
   <g id="patch_15">
    <path d="M 530.979582 419.727273 
Q 577.473013 419.727273 620.612342 419.727273 
" style="fill: none; stroke: #000000; stroke-width: 3; stroke-linecap: round"/>
    <path d="M 614.612342 416.727273 
L 620.612342 419.727273 
L 614.612342 422.727273 
" style="fill: none; stroke: #000000; stroke-width: 3; stroke-linecap: round"/>
   </g>
   <g id="text_8">
    <!-- α1-3 -->
    <g transform="translate(560.017571 404.194034) scale(0.14 -0.14)">
     <use xlink:href="#DejaVuSans-Bold-3b1"/>
     <use xlink:href="#DejaVuSans-Bold-31" transform="translate(68.701172 0)"/>
     <use xlink:href="#DejaVuSans-Bold-2d" transform="translate(138.28125 0)"/>
     <use xlink:href="#DejaVuSans-Bold-33" transform="translate(179.785156 0)"/>
    </g>
   </g>
   <g id="patch_16">
    <path d="M 277.857273 324.459092 
Q 305.923998 371.236967 332.265052 415.138722 
" style="fill: none; stroke: #000000; stroke-width: 3; stroke-linecap: round"/>
    <path d="M 331.750556 408.450278 
L 332.265052 415.138722 
L 326.605598 411.537252 
" style="fill: none; stroke: #000000; stroke-width: 3; stroke-linecap: round"/>
   </g>
   <g id="text_9">
    <!-- α1-4 -->
    <g transform="translate(305.273001 351.270709) rotate(-300.963757) scale(0.14 -0.14)">
     <defs>
      <path id="DejaVuSans-Bold-34" d="M 2356 3675 
L 1038 1722 
L 2356 1722 
L 2356 3675 
z
M 2156 4666 
L 3494 4666 
L 3494 1722 
L 4159 1722 
L 4159 850 
L 3494 850 
L 3494 0 
L 2356 0 
L 2356 850 
L 288 850 
L 288 1881 
L 2156 4666 
z
" transform="scale(0.015625)"/>
     </defs>
     <use xlink:href="#DejaVuSans-Bold-3b1"/>
     <use xlink:href="#DejaVuSans-Bold-31" transform="translate(68.701172 0)"/>
     <use xlink:href="#DejaVuSans-Bold-2d" transform="translate(138.28125 0)"/>
     <use xlink:href="#DejaVuSans-Bold-34" transform="translate(179.785156 0)"/>
    </g>
   </g>
   <g id="text_10">
    <!-- Glc -->
    <g transform="translate(227.993949 326.60858) scale(0.14 -0.14)">
     <use xlink:href="#DejaVuSans-Bold-47"/>
     <use xlink:href="#DejaVuSans-Bold-6c" transform="translate(82.080078 0)"/>
     <use xlink:href="#DejaVuSans-Bold-63" transform="translate(116.357422 0)"/>
    </g>
   </g>
   <g id="patch_17">
    <path d="M 276.829091 227.7614 
Q 276.829091 274.254831 276.829091 317.39416 
" style="fill: none; stroke: #000000; stroke-width: 3; stroke-linecap: round"/>
    <path d="M 279.829091 311.39416 
L 276.829091 317.39416 
L 273.829091 311.39416 
" style="fill: none; stroke: #000000; stroke-width: 3; stroke-linecap: round"/>
   </g>
   <g id="text_11">
    <!-- β1-6 -->
    <g transform="translate(292.961443 278.212827) scale(0.14 -0.14)">
     <defs>
      <path id="DejaVuSans-Bold-36" d="M 2316 2303 
Q 2000 2303 1842 2098 
Q 1684 1894 1684 1484 
Q 1684 1075 1842 870 
Q 2000 666 2316 666 
Q 2634 666 2792 870 
Q 2950 1075 2950 1484 
Q 2950 1894 2792 2098 
Q 2634 2303 2316 2303 
z
M 3803 4544 
L 3803 3681 
Q 3506 3822 3243 3889 
Q 2981 3956 2731 3956 
Q 2194 3956 1894 3657 
Q 1594 3359 1544 2772 
Q 1750 2925 1990 3001 
Q 2231 3078 2516 3078 
Q 3231 3078 3670 2659 
Q 4109 2241 4109 1563 
Q 4109 813 3618 361 
Q 3128 -91 2303 -91 
Q 1394 -91 895 523 
Q 397 1138 397 2266 
Q 397 3422 980 4083 
Q 1563 4744 2578 4744 
Q 2900 4744 3203 4694 
Q 3506 4644 3803 4544 
z
" transform="scale(0.015625)"/>
     </defs>
     <use xlink:href="#DejaVuSans-Bold-3b2"/>
     <use xlink:href="#DejaVuSans-Bold-31" transform="translate(71.582031 0)"/>
     <use xlink:href="#DejaVuSans-Bold-2d" transform="translate(141.162109 0)"/>
     <use xlink:href="#DejaVuSans-Bold-36" transform="translate(182.666016 0)"/>
    </g>
   </g>
   <g id="text_12">
    <!-- Glc -->
    <g transform="translate(227.993949 229.626761) scale(0.14 -0.14)">
     <use xlink:href="#DejaVuSans-Bold-47"/>
     <use xlink:href="#DejaVuSans-Bold-6c" transform="translate(82.080078 0)"/>
     <use xlink:href="#DejaVuSans-Bold-63" transform="translate(116.357422 0)"/>
    </g>
   </g>
   <g id="patch_18">
    <path d="M 276.829091 130.779582 
Q 276.829091 177.273013 276.829091 220.412342 
" style="fill: none; stroke: #000000; stroke-width: 3; stroke-linecap: round"/>
    <path d="M 279.829091 214.412342 
L 276.829091 220.412342 
L 273.829091 214.412342 
" style="fill: none; stroke: #000000; stroke-width: 3; stroke-linecap: round"/>
   </g>
   <g id="text_13">
    <!-- β1-4 -->
    <g transform="translate(292.961443 181.231009) scale(0.14 -0.14)">
     <use xlink:href="#DejaVuSans-Bold-3b2"/>
     <use xlink:href="#DejaVuSans-Bold-31" transform="translate(71.582031 0)"/>
     <use xlink:href="#DejaVuSans-Bold-2d" transform="translate(141.162109 0)"/>
     <use xlink:href="#DejaVuSans-Bold-34" transform="translate(182.666016 0)"/>
    </g>
   </g>
   <g id="text_14">
    <!-- Gal -->
    <g transform="translate(226.845511 132.644943) scale(0.14 -0.14)">
     <use xlink:href="#DejaVuSans-Bold-47"/>
     <use xlink:href="#DejaVuSans-Bold-61" transform="translate(82.080078 0)"/>
     <use xlink:href="#DejaVuSans-Bold-6c" transform="translate(149.560547 0)"/>
    </g>
   </g>
   <g id="text_15">
    <!-- Pyr -->
    <g transform="translate(305.696233 51.170588) scale(0.12 -0.12)">
     <defs>
      <path id="DejaVuSans-Bold-50" d="M 588 4666 
L 2584 4666 
Q 3475 4666 3951 4270 
Q 4428 3875 4428 3144 
Q 4428 2409 3951 2014 
Q 3475 1619 2584 1619 
L 1791 1619 
L 1791 0 
L 588 0 
L 588 4666 
z
M 1791 3794 
L 1791 2491 
L 2456 2491 
Q 2806 2491 2997 2661 
Q 3188 2831 3188 3144 
Q 3188 3456 2997 3625 
Q 2806 3794 2456 3794 
L 1791 3794 
z
" transform="scale(0.015625)"/>
      <path id="DejaVuSans-Bold-79" d="M 78 3500 
L 1197 3500 
L 2138 1125 
L 2938 3500 
L 4056 3500 
L 2584 -331 
Q 2363 -916 2067 -1148 
Q 1772 -1381 1288 -1381 
L 641 -1381 
L 641 -647 
L 991 -647 
Q 1275 -647 1404 -556 
Q 1534 -466 1606 -231 
L 1638 -134 
L 78 3500 
z
" transform="scale(0.015625)"/>
      <path id="DejaVuSans-Bold-72" d="M 3138 2547 
Q 2991 2616 2845 2648 
Q 2700 2681 2553 2681 
Q 2122 2681 1889 2404 
Q 1656 2128 1656 1613 
L 1656 0 
L 538 0 
L 538 3500 
L 1656 3500 
L 1656 2925 
Q 1872 3269 2151 3426 
Q 2431 3584 2822 3584 
Q 2878 3584 2943 3579 
Q 3009 3575 3134 3559 
L 3138 2547 
z
" transform="scale(0.015625)"/>
     </defs>
     <use xlink:href="#DejaVuSans-Bold-50"/>
     <use xlink:href="#DejaVuSans-Bold-79" transform="translate(75.166016 0)"/>
     <use xlink:href="#DejaVuSans-Bold-72" transform="translate(140.351562 0)"/>
    </g>
   </g>
   <g id="text_16">
    <!-- CPS27_K26 -->
    <g transform="translate(398.17875 19.8) scale(0.12 -0.12)">
     <defs>
      <path id="DejaVuSans-43" d="M 4122 4306 
L 4122 3641 
Q 3803 3938 3442 4084 
Q 3081 4231 2675 4231 
Q 1875 4231 1450 3742 
Q 1025 3253 1025 2328 
Q 1025 1406 1450 917 
Q 1875 428 2675 428 
Q 3081 428 3442 575 
Q 3803 722 4122 1019 
L 4122 359 
Q 3791 134 3420 21 
Q 3050 -91 2638 -91 
Q 1578 -91 968 557 
Q 359 1206 359 2328 
Q 359 3453 968 4101 
Q 1578 4750 2638 4750 
Q 3056 4750 3426 4639 
Q 3797 4528 4122 4306 
z
" transform="scale(0.015625)"/>
      <path id="DejaVuSans-50" d="M 1259 4147 
L 1259 2394 
L 2053 2394 
Q 2494 2394 2734 2622 
Q 2975 2850 2975 3272 
Q 2975 3691 2734 3919 
Q 2494 4147 2053 4147 
L 1259 4147 
z
M 628 4666 
L 2053 4666 
Q 2838 4666 3239 4311 
Q 3641 3956 3641 3272 
Q 3641 2581 3239 2228 
Q 2838 1875 2053 1875 
L 1259 1875 
L 1259 0 
L 628 0 
L 628 4666 
z
" transform="scale(0.015625)"/>
      <path id="DejaVuSans-53" d="M 3425 4513 
L 3425 3897 
Q 3066 4069 2747 4153 
Q 2428 4238 2131 4238 
Q 1616 4238 1336 4038 
Q 1056 3838 1056 3469 
Q 1056 3159 1242 3001 
Q 1428 2844 1947 2747 
L 2328 2669 
Q 3034 2534 3370 2195 
Q 3706 1856 3706 1288 
Q 3706 609 3251 259 
Q 2797 -91 1919 -91 
Q 1588 -91 1214 -16 
Q 841 59 441 206 
L 441 856 
Q 825 641 1194 531 
Q 1563 422 1919 422 
Q 2459 422 2753 634 
Q 3047 847 3047 1241 
Q 3047 1584 2836 1778 
Q 2625 1972 2144 2069 
L 1759 2144 
Q 1053 2284 737 2584 
Q 422 2884 422 3419 
Q 422 4038 858 4394 
Q 1294 4750 2059 4750 
Q 2388 4750 2728 4690 
Q 3069 4631 3425 4513 
z
" transform="scale(0.015625)"/>
      <path id="DejaVuSans-32" d="M 1228 531 
L 3431 531 
L 3431 0 
L 469 0 
L 469 531 
Q 828 903 1448 1529 
Q 2069 2156 2228 2338 
Q 2531 2678 2651 2914 
Q 2772 3150 2772 3378 
Q 2772 3750 2511 3984 
Q 2250 4219 1831 4219 
Q 1534 4219 1204 4116 
Q 875 4013 500 3803 
L 500 4441 
Q 881 4594 1212 4672 
Q 1544 4750 1819 4750 
Q 2544 4750 2975 4387 
Q 3406 4025 3406 3419 
Q 3406 3131 3298 2873 
Q 3191 2616 2906 2266 
Q 2828 2175 2409 1742 
Q 1991 1309 1228 531 
z
" transform="scale(0.015625)"/>
      <path id="DejaVuSans-37" d="M 525 4666 
L 3525 4666 
L 3525 4397 
L 1831 0 
L 1172 0 
L 2766 4134 
L 525 4134 
L 525 4666 
z
" transform="scale(0.015625)"/>
      <path id="DejaVuSans-5f" d="M 3263 -1063 
L 3263 -1509 
L -63 -1509 
L -63 -1063 
L 3263 -1063 
z
" transform="scale(0.015625)"/>
      <path id="DejaVuSans-4b" d="M 628 4666 
L 1259 4666 
L 1259 2694 
L 3353 4666 
L 4166 4666 
L 1850 2491 
L 4331 0 
L 3500 0 
L 1259 2247 
L 1259 0 
L 628 0 
L 628 4666 
z
" transform="scale(0.015625)"/>
      <path id="DejaVuSans-36" d="M 2113 2584 
Q 1688 2584 1439 2293 
Q 1191 2003 1191 1497 
Q 1191 994 1439 701 
Q 1688 409 2113 409 
Q 2538 409 2786 701 
Q 3034 994 3034 1497 
Q 3034 2003 2786 2293 
Q 2538 2584 2113 2584 
z
M 3366 4563 
L 3366 3988 
Q 3128 4100 2886 4159 
Q 2644 4219 2406 4219 
Q 1781 4219 1451 3797 
Q 1122 3375 1075 2522 
Q 1259 2794 1537 2939 
Q 1816 3084 2150 3084 
Q 2853 3084 3261 2657 
Q 3669 2231 3669 1497 
Q 3669 778 3244 343 
Q 2819 -91 2113 -91 
Q 1303 -91 875 529 
Q 447 1150 447 2328 
Q 447 3434 972 4092 
Q 1497 4750 2381 4750 
Q 2619 4750 2861 4703 
Q 3103 4656 3366 4563 
z
" transform="scale(0.015625)"/>
     </defs>
     <use xlink:href="#DejaVuSans-43"/>
     <use xlink:href="#DejaVuSans-50" transform="translate(69.824219 0)"/>
     <use xlink:href="#DejaVuSans-53" transform="translate(130.126953 0)"/>
     <use xlink:href="#DejaVuSans-32" transform="translate(193.603516 0)"/>
     <use xlink:href="#DejaVuSans-37" transform="translate(257.226562 0)"/>
     <use xlink:href="#DejaVuSans-5f" transform="translate(320.849609 0)"/>
     <use xlink:href="#DejaVuSans-4b" transform="translate(370.849609 0)"/>
     <use xlink:href="#DejaVuSans-32" transform="translate(436.425781 0)"/>
     <use xlink:href="#DejaVuSans-36" transform="translate(500.048828 0)"/>
    </g>
   </g>
  </g>
 </g>
 <defs>
  <clipPath id="p3ad9a7d674">
   <rect x="92.563636" y="31.8" width="678.872727" height="533.4"/>
  </clipPath>
 </defs>
</svg>
