<?xml version="1.0" encoding="UTF-8"?>
<svg id="Warstwa_1" xmlns="http://www.w3.org/2000/svg" xmlns:xlink="http://www.w3.org/1999/xlink" version="1.1" viewBox="0 0 864 576">
  <!-- Generator: Adobe Illustrator 30.2.1, SVG Export Plug-In . SVG Version: 2.1.1 Build 1)  -->
  <defs>
    <style>
      .st0 {
        fill: #d62728;
      }

      .st0, .st1, .st2, .st3, .st4, .st5, .st6, .st7 {
        stroke: #000;
      }

      .st0, .st4, .st7 {
        stroke-width: 1.5px;
      }

      .st8, .st1, .st4 {
        fill: none;
      }

      .st1 {
        stroke-linecap: round;
      }

      .st1, .st2, .st3, .st5 {
        stroke-width: 3px;
      }

      .st1, .st4, .st6 {
        stroke-linejoin: round;
      }

      .st2 {
        fill: #4ea3ff;
      }

      .st9 {
        fill: #fff;
        stroke: #fff;
        stroke-width: 2px;
      }

      .st10 {
        clip-path: url(#clippath-17);
      }

      .st11 {
        clip-path: url(#clippath-19);
      }

      .st12 {
        clip-path: url(#clippath-11);
      }

      .st13 {
        clip-path: url(#clippath-16);
      }

      .st14 {
        clip-path: url(#clippath-18);
      }

      .st15 {
        clip-path: url(#clippath-10);
      }

      .st16 {
        clip-path: url(#clippath-13);
      }

      .st17 {
        clip-path: url(#clippath-14);
      }

      .st18 {
        clip-path: url(#clippath-12);
      }

      .st19 {
        clip-path: url(#clippath-20);
      }

      .st20 {
        clip-path: url(#clippath-21);
      }

      .st21 {
        clip-path: url(#clippath-22);
      }

      .st22 {
        clip-path: url(#clippath-23);
      }

      .st23 {
        clip-path: url(#clippath-1);
      }

      .st24 {
        clip-path: url(#clippath-3);
      }

      .st25 {
        clip-path: url(#clippath-4);
      }

      .st26 {
        clip-path: url(#clippath-2);
      }

      .st27 {
        clip-path: url(#clippath-7);
      }

      .st28 {
        clip-path: url(#clippath-6);
      }

      .st29 {
        clip-path: url(#clippath-9);
      }

      .st30 {
        clip-path: url(#clippath-8);
      }

      .st31 {
        clip-path: url(#clippath-5);
      }

      .st3 {
        fill: #3cb371;
      }

      .st4 {
        stroke-linecap: square;
      }

      .st5 {
        fill: #ffbf00;
      }

      .st7 {
        fill: #1f77b4;
      }

      .st32 {
        clip-path: url(#clippath);
      }
    </style>
    <clipPath id="clippath">
      <rect class="st8" x="10.8" y="47.3" width="842.4" height="481.4"/>
    </clipPath>
    <clipPath id="clippath-1">
      <rect class="st8" x="10.8" y="47.3" width="842.4" height="481.4"/>
    </clipPath>
    <clipPath id="clippath-2">
      <rect class="st8" x="10.8" y="47.3" width="842.4" height="481.4"/>
    </clipPath>
    <clipPath id="clippath-3">
      <rect class="st8" x="10.8" y="47.3" width="842.4" height="481.4"/>
    </clipPath>
    <clipPath id="clippath-4">
      <rect class="st8" x="10.8" y="47.3" width="842.4" height="481.4"/>
    </clipPath>
    <clipPath id="clippath-5">
      <rect class="st8" x="10.8" y="47.3" width="842.4" height="481.4"/>
    </clipPath>
    <clipPath id="clippath-6">
      <rect class="st8" x="10.8" y="47.3" width="842.4" height="481.4"/>
    </clipPath>
    <clipPath id="clippath-7">
      <rect class="st8" x="10.8" y="47.3" width="842.4" height="481.4"/>
    </clipPath>
    <clipPath id="clippath-8">
      <rect class="st8" x="10.8" y="47.3" width="842.4" height="481.4"/>
    </clipPath>
    <clipPath id="clippath-9">
      <rect class="st8" x="10.8" y="47.3" width="842.4" height="481.4"/>
    </clipPath>
    <clipPath id="clippath-10">
      <rect class="st8" x="10.8" y="47.3" width="842.4" height="481.4"/>
    </clipPath>
    <clipPath id="clippath-11">
      <rect class="st8" x="10.8" y="47.3" width="842.4" height="481.4"/>
    </clipPath>
    <clipPath id="clippath-12">
      <rect class="st8" x="14.7" y="365.4" width="842.4" height="481.4"/>
    </clipPath>
    <clipPath id="clippath-13">
      <rect class="st8" x="14.7" y="365.4" width="842.4" height="481.4"/>
    </clipPath>
    <clipPath id="clippath-14">
      <rect class="st8" x="14.7" y="365.4" width="842.4" height="481.4"/>
    </clipPath>
    <clipPath id="clippath-16">
      <rect class="st8" x="14.7" y="365.4" width="842.4" height="481.4"/>
    </clipPath>
    <clipPath id="clippath-17">
      <rect class="st8" x="14.7" y="365.4" width="842.4" height="481.4"/>
    </clipPath>
    <clipPath id="clippath-18">
      <rect class="st8" x="14.7" y="365.4" width="842.4" height="481.4"/>
    </clipPath>
    <clipPath id="clippath-19">
      <rect class="st8" x="14.7" y="365.4" width="842.4" height="481.4"/>
    </clipPath>
    <clipPath id="clippath-20">
      <rect class="st8" x="14.7" y="365.4" width="842.4" height="481.4"/>
    </clipPath>
    <clipPath id="clippath-21">
      <rect class="st8" x="14.7" y="365.4" width="842.4" height="481.4"/>
    </clipPath>
    <clipPath id="clippath-22">
      <rect class="st8" x="14.7" y="365.4" width="842.4" height="481.4"/>
    </clipPath>
    <clipPath id="clippath-23">
      <rect class="st8" x="14.7" y="365.4" width="842.4" height="481.4"/>
    </clipPath>
  </defs>
  <path class="st3" d="M435.7,690.3c6.4,0,12.5-2.5,17-7,4.5-4.5,7-10.6,7-17s-2.5-12.5-7-17c-4.5-4.5-10.6-7-17-7s-12.5,2.5-17,7c-4.5,4.5-7,10.6-7,17s2.5,12.5,7,17c4.5,4.5,10.6,7,17,7Z"/>
  <g id="patch_3">
    <g class="st32">
      <path class="st2" d="M191.3,372.2c6.4,0,12.5-2.5,17-7,4.5-4.5,7-10.6,7-17s-2.5-12.5-7-17c-4.5-4.5-10.6-7-17-7s-12.5,2.5-17,7c-4.5,4.5-7,10.6-7,17s2.5,12.5,7,17c4.5,4.5,10.6,7,17,7Z"/>
    </g>
  </g>
  <g id="patch_4">
    <g class="st23">
      <path class="st9" d="M191.3,354.2c1.6,0,3.1-.6,4.3-1.8,1.1-1.1,1.8-2.7,1.8-4.3s-.6-3.1-1.8-4.3c-1.1-1.1-2.7-1.8-4.3-1.8s-3.1.6-4.3,1.8c-1.1,1.1-1.8,2.7-1.8,4.3s.6,3.1,1.8,4.3c1.1,1.1,2.7,1.8,4.3,1.8Z"/>
    </g>
  </g>
  <g id="patch_5">
    <g class="st26">
      <path class="st3" d="M311.7,318.1l-26.1,45.1h52.1l-26.1-45.1Z"/>
    </g>
  </g>
  <g id="patch_6">
    <g class="st24">
      <path class="st3" d="M432,318.1l-26.1,45.1h52.1l-26.1-45.1Z"/>
    </g>
  </g>
  <g id="patch_7">
    <g class="st25">
      <path class="st5" d="M552.3,372.2c6.4,0,12.5-2.5,17-7,4.5-4.5,7-10.6,7-17s-2.5-12.5-7-17c-4.5-4.5-10.6-7-17-7s-12.5,2.5-17,7c-4.5,4.5-7,10.6-7,17s2.5,12.5,7,17c4.5,4.5,10.6,7,17,7Z"/>
    </g>
  </g>
  <g id="patch_8">
    <g class="st31">
      <path class="st5" d="M119.1,251.9c6.4,0,12.5-2.5,17-7s7-10.6,7-17-2.5-12.5-7-17-10.6-7-17-7-12.5,2.5-17,7-7,10.6-7,17,2.5,12.5,7,17,10.6,7,17,7Z"/>
    </g>
  </g>
  <g id="patch_9">
    <g class="st28">
      <path class="st7" d="M164.2,157.7c2.1,0,4.2-.8,5.7-2.3s2.3-3.5,2.3-5.7-.8-4.2-2.3-5.7-3.5-2.3-5.7-2.3-4.2.8-5.7,2.3-2.3,3.5-2.3,5.7.8,4.2,2.3,5.7,3.5,2.3,5.7,2.3Z"/>
    </g>
  </g>
  <g id="patch_10">
    <g class="st27">
      <path class="st0" d="M236.4,278c2.1,0,4.2-.8,5.7-2.3,1.5-1.5,2.3-3.5,2.3-5.7s-.8-4.2-2.3-5.7c-1.5-1.5-3.5-2.3-5.7-2.3s-4.2.8-5.7,2.3c-1.5,1.5-2.3,3.5-2.3,5.7s.8,4.2,2.3,5.7c1.5,1.5,3.5,2.3,5.7,2.3Z"/>
    </g>
  </g>
  <g id="line2d_1">
    <g class="st30">
      <path class="st4" d="M191.3,348.2"/>
    </g>
    <g class="st29">
      <path id="m37354f7d8d" class="st6" d="M191.3,349.6c.4,0,.7-.1,1-.4.3-.3.4-.6.4-1s-.1-.7-.4-1c-.3-.3-.6-.4-1-.4s-.7.1-1,.4c-.3.3-.4.6-.4,1s.1.7.4,1c.3.3.6.4,1,.4Z"/>
    </g>
  </g>
  <g id="line2d_2">
    <g class="st15">
      <path class="st4" d="M131.1,207l33.1-57.3"/>
    </g>
  </g>
  <g id="line2d_3">
    <g class="st12">
      <path class="st4" d="M203.3,327.3l33.1-57.3"/>
    </g>
  </g>
  <g id="text_1">
    <g>
      <path id="DejaVuSans-Bold-47" d="M184.1,388.1c-.7.3-1.3.6-2,.7-.7.2-1.4.2-2.2.2-1.7,0-3-.5-4-1.4-1-1-1.5-2.2-1.5-3.9s.5-2.9,1.5-3.9c1-.9,2.4-1.4,4.2-1.4s1.3,0,1.9.2c.6.1,1.2.3,1.8.6v2.1c-.6-.3-1.1-.6-1.7-.7-.6-.2-1.1-.2-1.7-.2-1,0-1.9.3-2.4.9-.6.6-.9,1.4-.9,2.5s.3,1.9.8,2.5c.5.6,1.3.9,2.3.9s.5,0,.8,0c.2,0,.4,0,.6-.2v-2h-1.6v-1.8h4.1v4.9Z"/>
      <path id="DejaVuSans-Bold-6c" d="M186.3,378.3h2.4v10.6h-2.4v-10.6Z"/>
      <path id="DejaVuSans-Bold-63" d="M197.3,381.5v2c-.3-.2-.7-.4-1-.5s-.7-.2-1-.2c-.7,0-1.2.2-1.6.6s-.6,1-.6,1.7.2,1.3.6,1.7c.4.4.9.6,1.6.6s.7,0,1.1-.2c.3-.1.7-.3,1-.5v2c-.4.1-.8.2-1.2.3-.4,0-.8.1-1.2.1-1.4,0-2.5-.4-3.2-1.1-.8-.7-1.2-1.7-1.2-3s.4-2.2,1.2-3c.8-.7,1.9-1.1,3.2-1.1s.8,0,1.2.1.8.2,1.2.3Z"/>
      <path id="DejaVuSans-Bold-41" d="M205.7,387h-4.1l-.6,1.9h-2.6l3.8-10.2h3.1l3.8,10.2h-2.6l-.6-1.9ZM202.2,385.1h2.8l-1.4-4.1-1.4,4.1Z"/>
    </g>
  </g>
  <g id="text_2">
    <g>
      <path id="DejaVuSans-Bold-52" d="M301.6,383.2c.6,0,.9-.1,1.2-.3.2-.2.4-.5.4-1s-.1-.8-.4-1c-.2-.2-.6-.3-1.2-.3h-1.1v2.6h1.1ZM300.5,385v3.9h-2.6v-10.2h4c1.3,0,2.3.2,3,.7.6.5.9,1.2.9,2.1s-.2,1.2-.5,1.7c-.3.4-.8.8-1.5,1,.4,0,.7.3,1,.6.3.3.6.7.9,1.3l1.4,2.9h-2.8l-1.2-2.5c-.3-.5-.5-.9-.8-1-.3-.2-.6-.3-1-.3h-.7Z"/>
      <path id="DejaVuSans-Bold-68" d="M316.2,384.2v4.7h-2.5v-3.6c0-.7,0-1.1,0-1.4s0-.4-.2-.6c0-.2-.2-.3-.4-.4-.2,0-.4-.1-.6-.1-.5,0-.9.2-1.2.6-.3.4-.4.9-.4,1.6v3.8h-2.4v-10.6h2.4v4.1c.4-.4.8-.8,1.2-1,.4-.2.9-.3,1.4-.3.9,0,1.6.3,2,.8.5.5.7,1.3.7,2.4Z"/>
      <path id="DejaVuSans-Bold-61" d="M321.9,385.4c-.5,0-.9,0-1.2.3-.3.2-.4.4-.4.8s.1.6.3.7c.2.2.5.3.9.3s.8-.2,1.2-.5c.3-.3.5-.7.5-1.2v-.3h-1.3ZM325.7,384.5v4.4h-2.5v-1.1c-.3.5-.7.8-1.1,1-.4.2-.9.3-1.5.3s-1.4-.2-1.9-.7c-.5-.5-.7-1.1-.7-1.8s.3-1.6.9-2c.6-.4,1.6-.6,2.9-.6h1.4v-.2c0-.4-.2-.7-.5-.9-.3-.2-.8-.3-1.4-.3s-1,0-1.5.2c-.5.1-.9.3-1.3.5v-1.9c.5-.1,1.1-.2,1.6-.3.5,0,1.1,0,1.6,0,1.4,0,2.4.3,3,.8.6.5.9,1.4.9,2.7Z"/>
    </g>
  </g>
  <g id="text_3">
    <g>
      <path id="DejaVuSans-Bold-521" data-name="DejaVuSans-Bold-52" d="M421.9,383.2c.6,0,.9-.1,1.2-.3.2-.2.4-.5.4-1s-.1-.8-.4-1c-.2-.2-.6-.3-1.2-.3h-1.1v2.6h1.1ZM420.8,385v3.9h-2.6v-10.2h4c1.3,0,2.3.2,3,.7.6.5.9,1.2.9,2.1s-.2,1.2-.5,1.7c-.3.4-.8.8-1.5,1,.4,0,.7.3,1,.6.3.3.6.7.9,1.3l1.4,2.9h-2.8l-1.2-2.5c-.3-.5-.5-.9-.8-1-.3-.2-.6-.3-1-.3h-.7Z"/>
      <path id="DejaVuSans-Bold-681" data-name="DejaVuSans-Bold-68" d="M436.6,384.2v4.7h-2.5v-3.6c0-.7,0-1.1,0-1.4s0-.4-.2-.6c0-.2-.2-.3-.4-.4-.2,0-.4-.1-.6-.1-.5,0-.9.2-1.2.6-.3.4-.4.9-.4,1.6v3.8h-2.4v-10.6h2.4v4.1c.4-.4.8-.8,1.2-1,.4-.2.9-.3,1.4-.3.9,0,1.6.3,2,.8.5.5.7,1.3.7,2.4Z"/>
      <path id="DejaVuSans-Bold-611" data-name="DejaVuSans-Bold-61" d="M442.3,385.4c-.5,0-.9,0-1.2.3-.3.2-.4.4-.4.8s.1.6.3.7c.2.2.5.3.9.3s.8-.2,1.2-.5c.3-.3.5-.7.5-1.2v-.3h-1.3ZM446,384.5v4.4h-2.5v-1.1c-.3.5-.7.8-1.1,1-.4.2-.9.3-1.5.3s-1.4-.2-1.9-.7c-.5-.5-.7-1.1-.7-1.8s.3-1.6.9-2c.6-.4,1.6-.6,2.9-.6h1.4v-.2c0-.4-.2-.7-.5-.9-.3-.2-.8-.3-1.4-.3s-1,0-1.5.2c-.5.1-.9.3-1.3.5v-1.9c.5-.1,1.1-.2,1.6-.3.5,0,1.1,0,1.6,0,1.4,0,2.4.3,3,.8.6.5.9,1.4.9,2.7Z"/>
    </g>
  </g>
  <g id="text_4">
    <g>
      <path id="DejaVuSans-Bold-471" data-name="DejaVuSans-Bold-47" d="M549.9,388.1c-.7.3-1.3.6-2,.7-.7.2-1.4.2-2.2.2-1.7,0-3-.5-4-1.4-1-1-1.5-2.2-1.5-3.9s.5-2.9,1.5-3.9c1-.9,2.4-1.4,4.2-1.4s1.3,0,1.9.2c.6.1,1.2.3,1.8.6v2.1c-.6-.3-1.1-.6-1.7-.7-.6-.2-1.1-.2-1.7-.2-1,0-1.9.3-2.4.9-.6.6-.9,1.4-.9,2.5s.3,1.9.8,2.5c.5.6,1.3.9,2.3.9s.5,0,.8,0c.2,0,.4,0,.6-.2v-2h-1.6v-1.8h4.1v4.9Z"/>
      <path id="DejaVuSans-Bold-612" data-name="DejaVuSans-Bold-61" d="M555.6,385.4c-.5,0-.9,0-1.2.3-.3.2-.4.4-.4.8s.1.6.3.7c.2.2.5.3.9.3s.8-.2,1.2-.5c.3-.3.5-.7.5-1.2v-.3h-1.3ZM559.3,384.5v4.4h-2.5v-1.1c-.3.5-.7.8-1.1,1-.4.2-.9.3-1.5.3s-1.4-.2-1.9-.7c-.5-.5-.7-1.1-.7-1.8s.3-1.6.9-2c.6-.4,1.6-.6,2.9-.6h1.4v-.2c0-.4-.2-.7-.5-.9-.3-.2-.8-.3-1.4-.3s-1,0-1.5.2c-.5.1-.9.3-1.3.5v-1.9c.5-.1,1.1-.2,1.6-.3.5,0,1.1,0,1.6,0,1.4,0,2.4.3,3,.8.6.5.9,1.4.9,2.7Z"/>
      <path id="DejaVuSans-Bold-6c1" data-name="DejaVuSans-Bold-6c" d="M561.6,378.3h2.4v10.6h-2.4v-10.6Z"/>
    </g>
  </g>
  <g id="patch_11">
    <path class="st1" d="M193.3,348.2h113"/>
    <path class="st1" d="M300.3,345.2l6,3-6,3"/>
  </g>
  <g id="text_5">
    <g>
      <path id="DejaVuSans-Bold-3b2" d="M239.5,321.4c.3-.4.4-.7.4-1s0-.7-.3-1c-.2-.3-.5-.4-.9-.4s-.8.2-1,.6-.3.9-.3,1.7v3c0,.7.1,1.3.4,1.7.3.4.7.6,1.2.6s1-.2,1.2-.5c.2-.3.3-.6.3-.7,0-.7-.3-1.2-.8-1.6-.3-.2-.8-.3-1.6-.3v-1.6c.7-.1,1.2-.3,1.3-.4ZM235,331v-9.6c0-1.3.3-2.2.9-2.9.5-.5,1-.9,1.5-1,.5-.2.9-.2,1.3-.2.4,0,.6,0,.6,0,.9.1,1.7.5,2.2,1.1.4.4.5,1,.5,1.8s-.1.8-.4,1.2c-.3.5-.7.7-1.1.8.7.2,1.2.5,1.6.8.7.6,1,1.3,1,2.3s-.3,1.5-.9,2.1c-.6.6-1.4.9-2.4.9s-1.9-.4-2.5-1.3v4h-2.4Z"/>
      <path id="DejaVuSans-Bold-31" d="M245.5,326.2h2.3v-6.6l-2.4.5v-1.8l2.4-.5h2.5v8.4h2.3v1.8h-7.1v-1.8Z"/>
      <path id="DejaVuSans-Bold-2d" d="M254.4,323h4.3v2h-4.3v-2Z"/>
      <path id="DejaVuSans-Bold-33" d="M265.9,322.6c.7.2,1.2.5,1.6.9.4.4.5,1,.5,1.7,0,1-.4,1.8-1.2,2.3-.8.5-1.9.8-3.4.8s-1.1,0-1.6-.1c-.5,0-1-.2-1.6-.4v-2c.5.2,1,.4,1.5.6.5.1,1,.2,1.4.2.7,0,1.2-.1,1.6-.4.4-.2.6-.6.6-1s-.2-.8-.6-1.1-.9-.4-1.7-.4h-1.1v-1.7h1.1c.7,0,1.2-.1,1.5-.3.3-.2.5-.5.5-.9s-.2-.7-.5-.9c-.3-.2-.8-.3-1.3-.3s-.9,0-1.3.1c-.4,0-.9.2-1.3.4v-1.9c.5-.1,1-.3,1.5-.3s1-.1,1.5-.1c1.3,0,2.3.2,3,.7.7.4,1,1.1,1,2s-.2,1.1-.5,1.5c-.3.4-.8.6-1.4.8Z"/>
    </g>
  </g>
  <g id="patch_12">
    <path class="st1" d="M313.7,348.2h113"/>
    <path class="st1" d="M420.6,345.2l6,3-6,3"/>
  </g>
  <g id="text_6">
    <g>
      <path id="DejaVuSans-Bold-3b1" d="M360.9,321l.2-.7h2.1l-1.3,3.9.2,1c.1.8.4,1.1.7,1.1h.6v1.5h-.7c-.7,0-1.3-.2-1.6-.6,0,0-.1-.2-.2-.2-.2.3-.4.5-.7.7-.2.2-.9.3-2,.3-1.1,0-1.9-.4-2.4-1-.5-.7-.7-1.7-.7-3s.3-2.3.8-2.8c.7-.7,1.6-1.1,2.9-1.1,1.1,0,1.8.3,2.3.9ZM360,323.9l-.2-1.1c-.1-.7-.5-1-1.1-1-.3,0-.6.2-.8.6-.3.4-.4,1-.4,1.8s.1,1.4.3,1.7c.2.4.5.5.8.6.4,0,.6-.3.9-1l.5-1.5Z"/>
      <path id="DejaVuSans-Bold-311" data-name="DejaVuSans-Bold-31" d="M365.6,326.1h2.3v-6.6l-2.4.5v-1.8l2.4-.5h2.5v8.4h2.3v1.8h-7.1v-1.8Z"/>
      <path id="DejaVuSans-Bold-2d1" data-name="DejaVuSans-Bold-2d" d="M374.5,322.9h4.3v2h-4.3v-2Z"/>
      <path id="DejaVuSans-Bold-331" data-name="DejaVuSans-Bold-33" d="M386.1,322.5c.7.2,1.2.5,1.6.9.4.4.5,1,.5,1.7,0,1-.4,1.8-1.2,2.3-.8.5-1.9.8-3.4.8s-1.1,0-1.6-.1c-.5,0-1-.2-1.6-.4v-2c.5.2,1,.4,1.5.6.5.1,1,.2,1.4.2.7,0,1.2-.1,1.6-.4.4-.2.6-.6.6-1s-.2-.8-.6-1.1-.9-.4-1.7-.4h-1.1v-1.7h1.1c.7,0,1.2-.1,1.5-.3.3-.2.5-.5.5-.9s-.2-.7-.5-.9c-.3-.2-.8-.3-1.3-.3s-.9,0-1.3.1c-.4,0-.9.2-1.3.4v-1.9c.5-.1,1-.3,1.5-.3s1-.1,1.5-.1c1.3,0,2.3.2,3,.7.7.4,1,1.1,1,2s-.2,1.1-.5,1.5c-.3.4-.8.6-1.4.8Z"/>
    </g>
  </g>
  <g id="patch_13">
    <path class="st1" d="M434,348.2h113"/>
    <path class="st1" d="M541,345.2l6,3-6,3"/>
  </g>
  <g id="text_7">
    <g>
      <path id="DejaVuSans-Bold-3b11" data-name="DejaVuSans-Bold-3b1" d="M481.3,321l.2-.7h2.1l-1.3,3.9.2,1c.1.8.4,1.1.7,1.1h.6v1.5h-.7c-.7,0-1.3-.2-1.6-.6,0,0-.1-.2-.2-.2-.2.3-.4.5-.7.7-.2.2-.9.3-2,.3-1.1,0-1.9-.4-2.4-1-.5-.7-.7-1.7-.7-3s.3-2.3.8-2.8c.7-.7,1.6-1.1,2.9-1.1,1.1,0,1.8.3,2.3.9ZM480.3,323.9l-.2-1.1c-.1-.7-.5-1-1.1-1-.3,0-.6.2-.8.6-.3.4-.4,1-.4,1.8s.1,1.4.3,1.7c.2.4.5.5.8.6.4,0,.6-.3.9-1l.5-1.5Z"/>
      <path id="DejaVuSans-Bold-312" data-name="DejaVuSans-Bold-31" d="M486,326.1h2.3v-6.6l-2.4.5v-1.8l2.4-.5h2.5v8.4h2.3v1.8h-7.1v-1.8Z"/>
      <path id="DejaVuSans-Bold-2d2" data-name="DejaVuSans-Bold-2d" d="M494.8,322.9h4.3v2h-4.3v-2Z"/>
      <path id="DejaVuSans-Bold-332" data-name="DejaVuSans-Bold-33" d="M506.4,322.5c.7.2,1.2.5,1.6.9.4.4.5,1,.5,1.7,0,1-.4,1.8-1.2,2.3-.8.5-1.9.8-3.4.8s-1.1,0-1.6-.1c-.5,0-1-.2-1.6-.4v-2c.5.2,1,.4,1.5.6.5.1,1,.2,1.4.2.7,0,1.2-.1,1.6-.4.4-.2.6-.6.6-1s-.2-.8-.6-1.1-.9-.4-1.7-.4h-1.1v-1.7h1.1c.7,0,1.2-.1,1.5-.3.3-.2.5-.5.5-.9s-.2-.7-.5-.9c-.3-.2-.8-.3-1.3-.3s-.9,0-1.3.1c-.4,0-.9.2-1.3.4v-1.9c.5-.1,1-.3,1.5-.3s1-.1,1.5-.1c1.3,0,2.3.2,3,.7.7.4,1,1.1,1,2s-.2,1.1-.5,1.5c-.3.4-.8.6-1.4.8Z"/>
    </g>
  </g>
  <g id="patch_14">
    <path class="st1" d="M554.3,348.2h113"/>
    <path class="st1" d="M661.3,345.2l6,3-6,3"/>
  </g>
  <g id="text_8">
    <g>
      <path id="DejaVuSans-Bold-3b21" data-name="DejaVuSans-Bold-3b2" d="M600.5,321.4c.3-.4.4-.7.4-1s0-.7-.3-1c-.2-.3-.5-.4-.9-.4s-.8.2-1,.6-.3.9-.3,1.7v3c0,.7.1,1.3.4,1.7.3.4.7.6,1.2.6s1-.2,1.2-.5c.2-.3.3-.6.3-.7,0-.7-.3-1.2-.8-1.6-.3-.2-.8-.3-1.6-.3v-1.6c.7-.1,1.2-.3,1.3-.4ZM596,331v-9.6c0-1.3.3-2.2.9-2.9.5-.5,1-.9,1.5-1,.5-.2.9-.2,1.3-.2.4,0,.6,0,.6,0,.9.1,1.7.5,2.2,1.1.4.4.5,1,.5,1.8s-.1.8-.4,1.2c-.3.5-.7.7-1.1.8.7.2,1.2.5,1.6.8.7.6,1,1.3,1,2.3s-.3,1.5-.9,2.1c-.6.6-1.4.9-2.4.9s-1.9-.4-2.5-1.3v4h-2.4Z"/>
      <path id="DejaVuSans-Bold-313" data-name="DejaVuSans-Bold-31" d="M606.5,326.2h2.3v-6.6l-2.4.5v-1.8l2.4-.5h2.5v8.4h2.3v1.8h-7.1v-1.8Z"/>
      <path id="DejaVuSans-Bold-2d3" data-name="DejaVuSans-Bold-2d" d="M615.4,323h4.3v2h-4.3v-2Z"/>
      <path id="DejaVuSans-Bold-333" data-name="DejaVuSans-Bold-33" d="M627,322.6c.7.2,1.2.5,1.6.9.4.4.5,1,.5,1.7,0,1-.4,1.8-1.2,2.3-.8.5-1.9.8-3.4.8s-1.1,0-1.6-.1c-.5,0-1-.2-1.6-.4v-2c.5.2,1,.4,1.5.6.5.1,1,.2,1.4.2.7,0,1.2-.1,1.6-.4.4-.2.6-.6.6-1s-.2-.8-.6-1.1-.9-.4-1.7-.4h-1.1v-1.7h1.1c.7,0,1.2-.1,1.5-.3.3-.2.5-.5.5-.9s-.2-.7-.5-.9c-.3-.2-.8-.3-1.3-.3s-.9,0-1.3.1c-.4,0-.9.2-1.3.4v-1.9c.5-.1,1-.3,1.5-.3s1-.1,1.5-.1c1.3,0,2.3.2,3,.7.7.4,1,1.1,1,2s-.2,1.1-.5,1.5c-.3.4-.8.6-1.4.8Z"/>
    </g>
  </g>
  <g id="patch_15">
    <path class="st1" d="M120.1,229.5c23.4,39,46.2,77,68.4,114"/>
    <path class="st1" d="M188,336.9l.5,6.7-5.7-3.6"/>
  </g>
  <g id="text_9">
    <g>
      <path id="DejaVuSans-Bold-3b12" data-name="DejaVuSans-Bold-3b1" d="M166.7,268.4l.8-.2,1.1,1.8-4.1.9-.8.7c-.6.5-.8.9-.6,1.1l.3.5-1.3.8-.4-.6c-.4-.6-.5-1.2-.4-1.7,0-.1,0-.2,0-.2-.4,0-.7-.1-.9-.2-.3,0-.7-.6-1.3-1.6-.6-1-.7-1.9-.4-2.6.3-.8,1.1-1.5,2.2-2.2s2.1-1,2.8-.8c.9.2,1.7.8,2.4,1.9.6.9.7,1.7.4,2.4ZM163.7,269.1l.8-.7c.5-.5.6-1,.3-1.5-.2-.3-.5-.4-.9-.4-.5,0-1,.2-1.7.6s-1.1.8-1.3,1.2c-.2.4-.2.7,0,1,.2.3.6.4,1.3.2l1.5-.4Z"/>
      <path id="DejaVuSans-Bold-314" data-name="DejaVuSans-Bold-31" d="M164.7,275.1l1.2,2,5.7-3.4-1.6-1.8,1.5-.9,1.6,1.8,1.3,2.1-7.2,4.3,1.2,2-1.6.9-3.7-6.1,1.6-.9Z"/>
      <path id="DejaVuSans-Bold-2d4" data-name="DejaVuSans-Bold-2d" d="M172,281l2.2,3.7-1.7,1-2.2-3.7,1.7-1Z"/>
      <path id="DejaVuSans-Bold-34" d="M179.9,288.2l-5.1-.3,1.5,2.5,3.7-2.2ZM181.5,286.7l1.5,2.5-5.5,3.3.7,1.2-1.6,1-.7-1.2-1.6,1-1.3-2.1,1.6-1-2.3-3.9,1.9-1.2,7.3.4Z"/>
    </g>
  </g>
  <g id="text_10">
    <g>
      <path id="DejaVuSans-Bold-472" data-name="DejaVuSans-Bold-47" d="M73.7,230.9c-.7.3-1.3.6-2,.7-.7.2-1.4.2-2.2.2-1.7,0-3-.5-4-1.4-1-1-1.5-2.2-1.5-3.9s.5-2.9,1.5-3.9c1-.9,2.4-1.4,4.2-1.4s1.3,0,1.9.2c.6.1,1.2.3,1.8.6v2.1c-.6-.3-1.1-.6-1.7-.7-.6-.2-1.1-.2-1.7-.2-1,0-1.9.3-2.4.9-.6.6-.9,1.4-.9,2.5s.3,1.9.8,2.5c.5.6,1.3.9,2.3.9s.5,0,.8,0c.2,0,.4,0,.6-.2v-2h-1.6v-1.8h4.1v4.9Z"/>
      <path id="DejaVuSans-Bold-613" data-name="DejaVuSans-Bold-61" d="M79.4,228.2c-.5,0-.9,0-1.2.3-.3.2-.4.4-.4.8s.1.6.3.7c.2.2.5.3.9.3s.8-.2,1.2-.5c.3-.3.5-.7.5-1.2v-.3h-1.3ZM83.1,227.3v4.4h-2.5v-1.1c-.3.5-.7.8-1.1,1-.4.2-.9.3-1.5.3s-1.4-.2-1.9-.7c-.5-.5-.7-1.1-.7-1.8s.3-1.6.9-2c.6-.4,1.6-.6,2.9-.6h1.4v-.2c0-.4-.2-.7-.5-.9-.3-.2-.8-.3-1.4-.3s-1,0-1.5.2c-.5.1-.9.3-1.3.5v-1.9c.5-.1,1.1-.2,1.6-.3.5,0,1.1,0,1.6,0,1.4,0,2.4.3,3,.8.6.5.9,1.4.9,2.7Z"/>
      <path id="DejaVuSans-Bold-6c2" data-name="DejaVuSans-Bold-6c" d="M85.4,221.1h2.4v10.6h-2.4v-10.6Z"/>
    </g>
  </g>
  <g id="text_11">
    <g>
      <path id="DejaVuSans-Bold-50" d="M158.8,122h3.7c1.1,0,2,.2,2.6.7.6.5.9,1.2.9,2.1s-.3,1.6-.9,2.1c-.6.5-1.4.7-2.6.7h-1.5v3h-2.3v-8.7ZM161,123.6v2.4h1.2c.4,0,.8-.1,1-.3s.4-.5.4-.9-.1-.7-.4-.9-.6-.3-1-.3h-1.2Z"/>
      <path id="DejaVuSans-Bold-79" d="M166.8,124.2h2.1l1.8,4.5,1.5-4.5h2.1l-2.8,7.2c-.3.7-.6,1.2-1,1.5-.4.3-.9.4-1.5.4h-1.2v-1.4h.7c.4,0,.6,0,.8-.2.2-.1.3-.3.4-.6v-.2c0,0-2.9-6.8-2.9-6.8Z"/>
      <path id="DejaVuSans-Bold-72" d="M180.4,126c-.2,0-.4-.1-.5-.2-.2,0-.4,0-.5,0-.5,0-1,.2-1.2.5-.3.3-.4.8-.4,1.5v3h-2.1v-6.6h2.1v1.1c.3-.4.6-.7.9-.9.4-.2.8-.3,1.3-.3s.1,0,.2,0c0,0,.2,0,.4,0v1.9Z"/>
    </g>
  </g>
  <g id="text_12">
    <g>
      <path id="DejaVuSans-Bold-411" data-name="DejaVuSans-Bold-41" d="M239.5,249.6h-3.5l-.6,1.6h-2.3l3.2-8.7h2.7l3.2,8.7h-2.3l-.6-1.6ZM236.5,248h2.4l-1.2-3.5-1.2,3.5Z"/>
      <path id="DejaVuSans-Bold-631" data-name="DejaVuSans-Bold-63" d="M248.7,244.8v1.7c-.3-.2-.6-.3-.9-.4s-.6-.1-.9-.1c-.6,0-1,.2-1.4.5s-.5.8-.5,1.4.2,1.1.5,1.4c.3.3.8.5,1.4.5s.6,0,.9-.1c.3,0,.6-.2.8-.4v1.7c-.3.1-.7.2-1,.3-.3,0-.7,0-1,0-1.2,0-2.1-.3-2.8-.9-.7-.6-1-1.5-1-2.5s.3-1.9,1-2.5c.7-.6,1.6-.9,2.8-.9s.7,0,1,0,.7.2,1,.3Z"/>
    </g>
  </g>
  <g id="text_13">
    <g>
      <path id="DejaVuSans-43" d="M402.1,27.2v1.2c-.4-.4-.8-.6-1.3-.8-.5-.2-.9-.3-1.4-.3-1,0-1.8.3-2.3.9s-.8,1.5-.8,2.7.3,2,.8,2.6,1.3.9,2.3.9,1,0,1.4-.3.9-.5,1.3-.8v1.2c-.4.3-.9.5-1.3.6-.5.1-1,.2-1.5.2-1.3,0-2.4-.4-3.1-1.2-.8-.8-1.1-1.9-1.1-3.3s.4-2.5,1.1-3.3c.8-.8,1.8-1.2,3.1-1.2s1,0,1.5.2c.5.1.9.3,1.3.6Z"/>
      <path id="DejaVuSans-50" d="M405.1,27.5v3.3h1.5c.6,0,1-.1,1.3-.4.3-.3.5-.7.5-1.2s-.2-.9-.5-1.2c-.3-.3-.7-.4-1.3-.4h-1.5ZM403.9,26.6h2.7c1,0,1.7.2,2.2.7.5.4.8,1.1.8,1.9s-.3,1.5-.8,2c-.5.4-1.2.7-2.2.7h-1.5v3.5h-1.2v-8.7Z"/>
      <path id="DejaVuSans-53" d="M416.4,26.9v1.2c-.4-.2-.9-.4-1.3-.5-.4-.1-.8-.2-1.2-.2-.6,0-1.1.1-1.5.4-.3.2-.5.6-.5,1.1s.1.7.3.9c.2.2.7.4,1.3.5h.7c.9.3,1.5.6,2,1s.6,1,.6,1.7-.3,1.5-.9,1.9c-.6.4-1.4.7-2.5.7s-.9,0-1.3-.1c-.5,0-.9-.2-1.4-.4v-1.2c.5.3,1,.5,1.4.6.5.1.9.2,1.4.2.7,0,1.2-.1,1.6-.4.4-.3.6-.6.6-1.1s-.1-.8-.4-1-.7-.4-1.3-.5h-.7c-.9-.3-1.5-.6-1.9-1-.4-.4-.6-.9-.6-1.6s.3-1.4.8-1.8c.5-.4,1.3-.7,2.3-.7s.8,0,1.3.1c.4,0,.9.2,1.3.3Z"/>
      <path id="DejaVuSans-32" d="M419.9,34.3h4.1v1h-5.6v-1c.4-.5,1.1-1.1,1.8-1.9.8-.8,1.3-1.3,1.5-1.5.4-.4.6-.8.8-1.1.2-.3.2-.6.2-.9,0-.5-.2-.8-.5-1.1-.3-.3-.8-.4-1.3-.4s-.8,0-1.2.2c-.4.1-.9.3-1.3.6v-1.2c.5-.2.9-.3,1.3-.4.4,0,.8-.1,1.1-.1.9,0,1.6.2,2.2.7.5.5.8,1.1.8,1.8s0,.7-.2,1c-.1.3-.4.7-.7,1.1,0,.1-.4.4-.9,1-.5.5-1.3,1.3-2.2,2.3Z"/>
      <path id="DejaVuSans-321" data-name="DejaVuSans-32" d="M427.5,34.3h4.1v1h-5.6v-1c.4-.5,1.1-1.1,1.8-1.9.8-.8,1.3-1.3,1.5-1.5.4-.4.6-.8.8-1.1.2-.3.2-.6.2-.9,0-.5-.2-.8-.5-1.1-.3-.3-.8-.4-1.3-.4s-.8,0-1.2.2c-.4.1-.9.3-1.3.6v-1.2c.5-.2.9-.3,1.3-.4.4,0,.8-.1,1.1-.1.9,0,1.6.2,2.2.7.5.5.8,1.1.8,1.8s0,.7-.2,1c-.1.3-.4.7-.7,1.1,0,.1-.4.4-.9,1-.5.5-1.3,1.3-2.2,2.3Z"/>
      <path id="DejaVuSans-5f" d="M439,37.3v.8h-6.2v-.8h6.2Z"/>
      <path id="DejaVuSans-4b" d="M440,26.6h1.2v3.7l3.9-3.7h1.5l-4.3,4.1,4.7,4.7h-1.6l-4.2-4.2v4.2h-1.2v-8.7Z"/>
      <path id="DejaVuSans-322" data-name="DejaVuSans-32" d="M449,34.3h4.1v1h-5.6v-1c.4-.5,1.1-1.1,1.8-1.9.8-.8,1.3-1.3,1.5-1.5.4-.4.6-.8.8-1.1.2-.3.2-.6.2-.9,0-.5-.2-.8-.5-1.1-.3-.3-.8-.4-1.3-.4s-.8,0-1.2.2c-.4.1-.9.3-1.3.6v-1.2c.5-.2.9-.3,1.3-.4.4,0,.8-.1,1.1-.1.9,0,1.6.2,2.2.7.5.5.8,1.1.8,1.8s0,.7-.2,1c-.1.3-.4.7-.7,1.1,0,.1-.4.4-.9,1-.5.5-1.3,1.3-2.2,2.3Z"/>
      <path id="DejaVuSans-31" d="M455.9,34.3h1.9v-6.7l-2.1.4v-1.1l2.1-.4h1.2v7.8h1.9v1h-5v-1Z"/>
      <path id="DejaVuSans-62" d="M467.9,32c0-.8-.2-1.4-.5-1.9s-.8-.7-1.3-.7-1,.2-1.3.7-.5,1.1-.5,1.9.2,1.4.5,1.9c.3.5.8.7,1.3.7s1-.2,1.3-.7c.3-.5.5-1.1.5-1.9ZM464.2,29.7c.2-.4.5-.7.9-.9.3-.2.8-.3,1.2-.3.8,0,1.4.3,1.9.9.5.6.7,1.5.7,2.5s-.2,1.9-.7,2.5c-.5.6-1.1.9-1.9.9s-.9,0-1.2-.3c-.3-.2-.6-.5-.9-.9v1h-1.1v-9.1h1.1v3.6Z"/>
    </g>
  </g>
  <g id="patch_31" data-name="patch_3">
    <g class="st18">
      <path class="st2" d="M195.2,690.3c6.4,0,12.5-2.5,17-7,4.5-4.5,7-10.6,7-17s-2.5-12.5-7-17c-4.5-4.5-10.6-7-17-7s-12.5,2.5-17,7c-4.5,4.5-7,10.6-7,17s2.5,12.5,7,17c4.5,4.5,10.6,7,17,7Z"/>
    </g>
  </g>
  <g id="patch_41" data-name="patch_4">
    <g class="st16">
      <path class="st9" d="M195.2,672.2c1.6,0,3.1-.6,4.3-1.8,1.1-1.1,1.8-2.7,1.8-4.3s-.6-3.1-1.8-4.3c-1.1-1.1-2.7-1.8-4.3-1.8s-3.1.6-4.3,1.8c-1.1,1.1-1.8,2.7-1.8,4.3s.6,3.1,1.8,4.3c1.1,1.1,2.7,1.8,4.3,1.8Z"/>
    </g>
  </g>
  <g id="patch_51" data-name="patch_5">
    <g class="st17">
      <path class="st3" d="M315.4,690.3c6.4,0,12.5-2.5,17-7,4.5-4.5,7-10.6,7-17s-2.5-12.5-7-17c-4.5-4.5-10.6-7-17-7s-12.5,2.5-17,7c-4.5,4.5-7,10.6-7,17s2.5,12.5,7,17c4.5,4.5,10.6,7,17,7Z"/>
    </g>
  </g>
  <g id="patch_71" data-name="patch_7">
    <g class="st13">
      <path class="st5" d="M556.2,690.3c6.4,0,12.5-2.5,17-7,4.5-4.5,7-10.6,7-17s-2.5-12.5-7-17c-4.5-4.5-10.6-7-17-7s-12.5,2.5-17,7c-4.5,4.5-7,10.6-7,17s2.5,12.5,7,17c4.5,4.5,10.6,7,17,7Z"/>
    </g>
  </g>
  <g id="patch_81" data-name="patch_8">
    <g class="st10">
      <path class="st5" d="M123,570c6.4,0,12.5-2.5,17-7s7-10.6,7-17-2.5-12.5-7-17-10.6-7-17-7-12.5,2.5-17,7-7,10.6-7,17,2.5,12.5,7,17,10.6,7,17,7Z"/>
    </g>
  </g>
  <g id="patch_91" data-name="patch_9">
    <g class="st14">
      <path class="st7" d="M168.1,475.7c2.1,0,4.2-.8,5.7-2.3s2.3-3.5,2.3-5.7-.8-4.2-2.3-5.7-3.5-2.3-5.7-2.3-4.2.8-5.7,2.3-2.3,3.5-2.3,5.7.8,4.2,2.3,5.7,3.5,2.3,5.7,2.3Z"/>
    </g>
  </g>
  <g id="patch_101" data-name="patch_10">
    <g class="st11">
      <path class="st0" d="M240.3,596.1c2.1,0,4.2-.8,5.7-2.3,1.5-1.5,2.3-3.5,2.3-5.7s-.8-4.2-2.3-5.7c-1.5-1.5-3.5-2.3-5.7-2.3s-4.2.8-5.7,2.3c-1.5,1.5-2.3,3.5-2.3,5.7s.8,4.2,2.3,5.7c1.5,1.5,3.5,2.3,5.7,2.3Z"/>
    </g>
  </g>
  <g id="line2d_11" data-name="line2d_1">
    <g class="st19">
      <path class="st4" d="M195.2,666.2"/>
    </g>
    <g class="st20">
      <path id="m37354f7d8d1" data-name="m37354f7d8d" class="st6" d="M195.2,667.6c.4,0,.7-.1,1-.4.3-.3.4-.6.4-1s-.1-.7-.4-1c-.3-.3-.6-.4-1-.4s-.7.1-1,.4c-.3.3-.4.6-.4,1s.1.7.4,1c.3.3.6.4,1,.4Z"/>
    </g>
  </g>
  <g id="line2d_21" data-name="line2d_2">
    <g class="st21">
      <path class="st4" d="M135,525l33.1-57.3"/>
    </g>
  </g>
  <g id="line2d_31" data-name="line2d_3">
    <g class="st22">
      <path class="st4" d="M207.2,645.4l33.1-57.3"/>
    </g>
  </g>
  <g id="text_14" data-name="text_1">
    <g>
      <path id="DejaVuSans-Bold-473" data-name="DejaVuSans-Bold-47" d="M187.9,706.2c-.7.3-1.3.6-2,.7-.7.2-1.4.2-2.2.2-1.7,0-3-.5-4-1.4-1-1-1.5-2.2-1.5-3.9s.5-2.9,1.5-3.9c1-.9,2.4-1.4,4.2-1.4s1.3,0,1.9.2c.6.1,1.2.3,1.8.6v2.1c-.6-.3-1.1-.6-1.7-.7-.6-.2-1.1-.2-1.7-.2-1,0-1.9.3-2.4.9-.6.6-.9,1.4-.9,2.5s.3,1.9.8,2.5c.5.6,1.3.9,2.3.9s.5,0,.8,0c.2,0,.4,0,.6-.2v-2h-1.6v-1.8h4.1v4.9Z"/>
      <path id="DejaVuSans-Bold-6c3" data-name="DejaVuSans-Bold-6c" d="M190.1,696.3h2.4v10.6h-2.4v-10.6Z"/>
      <path id="DejaVuSans-Bold-632" data-name="DejaVuSans-Bold-63" d="M201.1,699.5v2c-.3-.2-.7-.4-1-.5s-.7-.2-1-.2c-.7,0-1.2.2-1.6.6s-.6,1-.6,1.7.2,1.3.6,1.7c.4.4.9.6,1.6.6s.7,0,1.1-.2c.3-.1.7-.3,1-.5v2c-.4.1-.8.2-1.2.3-.4,0-.8.1-1.2.1-1.4,0-2.5-.4-3.2-1.1-.8-.7-1.2-1.7-1.2-3s.4-2.2,1.2-3c.8-.7,1.9-1.1,3.2-1.1s.8,0,1.2.1.8.2,1.2.3Z"/>
      <path id="DejaVuSans-Bold-412" data-name="DejaVuSans-Bold-41" d="M209.5,705.1h-4.1l-.6,1.9h-2.6l3.8-10.2h3.1l3.8,10.2h-2.6l-.6-1.9ZM206.1,703.2h2.8l-1.4-4.1-1.4,4.1Z"/>
    </g>
  </g>
  <g id="text_21" data-name="text_2">
    <g>
      <path id="DejaVuSans-Bold-522" data-name="DejaVuSans-Bold-52" d="M305.5,701.3c.6,0,.9-.1,1.2-.3.2-.2.4-.5.4-1s-.1-.8-.4-1c-.2-.2-.6-.3-1.2-.3h-1.1v2.6h1.1ZM304.3,703.1v3.9h-2.6v-10.2h4c1.3,0,2.3.2,3,.7.6.5.9,1.2.9,2.1s-.2,1.2-.5,1.7c-.3.4-.8.8-1.5,1,.4,0,.7.3,1,.6.3.3.6.7.9,1.3l1.4,2.9h-2.8l-1.2-2.5c-.3-.5-.5-.9-.8-1-.3-.2-.6-.3-1-.3h-.7Z"/>
      <path id="DejaVuSans-Bold-682" data-name="DejaVuSans-Bold-68" d="M320.1,702.3v4.7h-2.5v-3.6c0-.7,0-1.1,0-1.4s0-.4-.2-.6c0-.2-.2-.3-.4-.4-.2,0-.4-.1-.6-.1-.5,0-.9.2-1.2.6-.3.4-.4.9-.4,1.6v3.8h-2.4v-10.6h2.4v4.1c.4-.4.8-.8,1.2-1,.4-.2.9-.3,1.4-.3.9,0,1.6.3,2,.8.5.5.7,1.3.7,2.4Z"/>
      <path id="DejaVuSans-Bold-614" data-name="DejaVuSans-Bold-61" d="M325.8,703.5c-.5,0-.9,0-1.2.3-.3.2-.4.4-.4.8s.1.6.3.7c.2.2.5.3.9.3s.8-.2,1.2-.5c.3-.3.5-.7.5-1.2v-.3h-1.3ZM329.5,702.6v4.4h-2.5v-1.1c-.3.5-.7.8-1.1,1-.4.2-.9.3-1.5.3s-1.4-.2-1.9-.7c-.5-.5-.7-1.1-.7-1.8s.3-1.6.9-2c.6-.4,1.6-.6,2.9-.6h1.4v-.2c0-.4-.2-.7-.5-.9-.3-.2-.8-.3-1.4-.3s-1,0-1.5.2c-.5.1-.9.3-1.3.5v-1.9c.5-.1,1.1-.2,1.6-.3.5,0,1.1,0,1.6,0,1.4,0,2.4.3,3,.8.6.5.9,1.4.9,2.7Z"/>
    </g>
  </g>
  <g id="text_31" data-name="text_3">
    <g>
      <path id="DejaVuSans-Bold-523" data-name="DejaVuSans-Bold-52" d="M425.8,701.3c.6,0,.9-.1,1.2-.3.2-.2.4-.5.4-1s-.1-.8-.4-1c-.2-.2-.6-.3-1.2-.3h-1.1v2.6h1.1ZM424.7,703.1v3.9h-2.6v-10.2h4c1.3,0,2.3.2,3,.7.6.5.9,1.2.9,2.1s-.2,1.2-.5,1.7c-.3.4-.8.8-1.5,1,.4,0,.7.3,1,.6.3.3.6.7.9,1.3l1.4,2.9h-2.8l-1.2-2.5c-.3-.5-.5-.9-.8-1-.3-.2-.6-.3-1-.3h-.7Z"/>
      <path id="DejaVuSans-Bold-683" data-name="DejaVuSans-Bold-68" d="M440.4,702.3v4.7h-2.5v-3.6c0-.7,0-1.1,0-1.4s0-.4-.2-.6c0-.2-.2-.3-.4-.4-.2,0-.4-.1-.6-.1-.5,0-.9.2-1.2.6-.3.4-.4.9-.4,1.6v3.8h-2.4v-10.6h2.4v4.1c.4-.4.8-.8,1.2-1,.4-.2.9-.3,1.4-.3.9,0,1.6.3,2,.8.5.5.7,1.3.7,2.4Z"/>
      <path id="DejaVuSans-Bold-615" data-name="DejaVuSans-Bold-61" d="M446.1,703.5c-.5,0-.9,0-1.2.3-.3.2-.4.4-.4.8s.1.6.3.7c.2.2.5.3.9.3s.8-.2,1.2-.5c.3-.3.5-.7.5-1.2v-.3h-1.3ZM449.9,702.6v4.4h-2.5v-1.1c-.3.5-.7.8-1.1,1-.4.2-.9.3-1.5.3s-1.4-.2-1.9-.7c-.5-.5-.7-1.1-.7-1.8s.3-1.6.9-2c.6-.4,1.6-.6,2.9-.6h1.4v-.2c0-.4-.2-.7-.5-.9-.3-.2-.8-.3-1.4-.3s-1,0-1.5.2c-.5.1-.9.3-1.3.5v-1.9c.5-.1,1.1-.2,1.6-.3.5,0,1.1,0,1.6,0,1.4,0,2.4.3,3,.8.6.5.9,1.4.9,2.7Z"/>
    </g>
  </g>
  <g id="text_41" data-name="text_4">
    <g>
      <path id="DejaVuSans-Bold-474" data-name="DejaVuSans-Bold-47" d="M553.8,706.2c-.7.3-1.3.6-2,.7-.7.2-1.4.2-2.2.2-1.7,0-3-.5-4-1.4-1-1-1.5-2.2-1.5-3.9s.5-2.9,1.5-3.9c1-.9,2.4-1.4,4.2-1.4s1.3,0,1.9.2c.6.1,1.2.3,1.8.6v2.1c-.6-.3-1.1-.6-1.7-.7-.6-.2-1.1-.2-1.7-.2-1,0-1.9.3-2.4.9-.6.6-.9,1.4-.9,2.5s.3,1.9.8,2.5c.5.6,1.3.9,2.3.9s.5,0,.8,0c.2,0,.4,0,.6-.2v-2h-1.6v-1.8h4.1v4.9Z"/>
      <path id="DejaVuSans-Bold-616" data-name="DejaVuSans-Bold-61" d="M559.4,703.5c-.5,0-.9,0-1.2.3-.3.2-.4.4-.4.8s.1.6.3.7c.2.2.5.3.9.3s.8-.2,1.2-.5c.3-.3.5-.7.5-1.2v-.3h-1.3ZM563.2,702.6v4.4h-2.5v-1.1c-.3.5-.7.8-1.1,1-.4.2-.9.3-1.5.3s-1.4-.2-1.9-.7c-.5-.5-.7-1.1-.7-1.8s.3-1.6.9-2c.6-.4,1.6-.6,2.9-.6h1.4v-.2c0-.4-.2-.7-.5-.9-.3-.2-.8-.3-1.4-.3s-1,0-1.5.2c-.5.1-.9.3-1.3.5v-1.9c.5-.1,1.1-.2,1.6-.3.5,0,1.1,0,1.6,0,1.4,0,2.4.3,3,.8.6.5.9,1.4.9,2.7Z"/>
      <path id="DejaVuSans-Bold-6c4" data-name="DejaVuSans-Bold-6c" d="M565.5,696.3h2.4v10.6h-2.4v-10.6Z"/>
    </g>
  </g>
  <g id="patch_111" data-name="patch_11">
    <path class="st1" d="M197.2,666.2h113"/>
    <path class="st1" d="M304.2,663.2l6,3-6,3"/>
  </g>
  <g id="text_51" data-name="text_5">
    <g>
      <path id="DejaVuSans-Bold-3b22" data-name="DejaVuSans-Bold-3b2" d="M243.3,639.5c.3-.4.4-.7.4-1s0-.7-.3-1c-.2-.3-.5-.4-.9-.4s-.8.2-1,.6-.3.9-.3,1.7v3c0,.7.1,1.3.4,1.7.3.4.7.6,1.2.6s1-.2,1.2-.5c.2-.3.3-.6.3-.7,0-.7-.3-1.2-.8-1.6-.3-.2-.8-.3-1.6-.3v-1.6c.7-.1,1.2-.3,1.3-.4ZM238.9,649v-9.6c0-1.3.3-2.2.9-2.9.5-.5,1-.9,1.5-1,.5-.2.9-.2,1.3-.2.4,0,.6,0,.6,0,.9.1,1.7.5,2.2,1.1.4.4.5,1,.5,1.8s-.1.8-.4,1.2c-.3.5-.7.7-1.1.8.7.2,1.2.5,1.6.8.7.6,1,1.3,1,2.3s-.3,1.5-.9,2.1c-.6.6-1.4.9-2.4.9s-1.9-.4-2.5-1.3v4h-2.4Z"/>
      <path id="DejaVuSans-Bold-315" data-name="DejaVuSans-Bold-31" d="M249.4,644.3h2.3v-6.6l-2.4.5v-1.8l2.4-.5h2.5v8.4h2.3v1.8h-7.1v-1.8Z"/>
      <path id="DejaVuSans-Bold-2d5" data-name="DejaVuSans-Bold-2d" d="M258.2,641.1h4.3v2h-4.3v-2Z"/>
      <path id="DejaVuSans-Bold-334" data-name="DejaVuSans-Bold-33" d="M269.8,640.6c.7.2,1.2.5,1.6.9.4.4.5,1,.5,1.7,0,1-.4,1.8-1.2,2.3-.8.5-1.9.8-3.4.8s-1.1,0-1.6-.1c-.5,0-1-.2-1.6-.4v-2c.5.2,1,.4,1.5.6.5.1,1,.2,1.4.2.7,0,1.2-.1,1.6-.4.4-.2.6-.6.6-1s-.2-.8-.6-1.1-.9-.4-1.7-.4h-1.1v-1.7h1.1c.7,0,1.2-.1,1.5-.3.3-.2.5-.5.5-.9s-.2-.7-.5-.9c-.3-.2-.8-.3-1.3-.3s-.9,0-1.3.1c-.4,0-.9.2-1.3.4v-1.9c.5-.1,1-.3,1.5-.3s1-.1,1.5-.1c1.3,0,2.3.2,3,.7.7.4,1,1.1,1,2s-.2,1.1-.5,1.5c-.3.4-.8.6-1.4.8Z"/>
    </g>
  </g>
  <g id="patch_121" data-name="patch_12">
    <path class="st1" d="M317.5,666.2h113"/>
    <path class="st1" d="M424.5,663.2l6,3-6,3"/>
  </g>
  <g id="text_61" data-name="text_6">
    <g>
      <path id="DejaVuSans-Bold-3b13" data-name="DejaVuSans-Bold-3b1" d="M364.8,639.1l.2-.7h2.1l-1.3,3.9.2,1c.1.8.4,1.1.7,1.1h.6v1.5h-.7c-.7,0-1.3-.2-1.6-.6,0,0-.1-.2-.2-.2-.2.3-.4.5-.7.7-.2.2-.9.3-2,.3-1.1,0-1.9-.4-2.4-1-.5-.7-.7-1.7-.7-3s.3-2.3.8-2.8c.7-.7,1.6-1.1,2.9-1.1,1.1,0,1.8.3,2.3.9ZM363.9,642l-.2-1.1c-.1-.7-.5-1-1.1-1-.3,0-.6.2-.8.6-.3.4-.4,1-.4,1.8s.1,1.4.3,1.7c.2.4.5.5.8.6.4,0,.6-.3.9-1l.5-1.5Z"/>
      <path id="DejaVuSans-Bold-316" data-name="DejaVuSans-Bold-31" d="M369.5,644.2h2.3v-6.6l-2.4.5v-1.8l2.4-.5h2.5v8.4h2.3v1.8h-7.1v-1.8Z"/>
      <path id="DejaVuSans-Bold-2d6" data-name="DejaVuSans-Bold-2d" d="M378.4,641h4.3v2h-4.3v-2Z"/>
      <path id="DejaVuSans-Bold-335" data-name="DejaVuSans-Bold-33" d="M389.9,640.5c.7.2,1.2.5,1.6.9.4.4.5,1,.5,1.7,0,1-.4,1.8-1.2,2.3-.8.5-1.9.8-3.4.8s-1.1,0-1.6-.1c-.5,0-1-.2-1.6-.4v-2c.5.2,1,.4,1.5.6.5.1,1,.2,1.4.2.7,0,1.2-.1,1.6-.4.4-.2.6-.6.6-1s-.2-.8-.6-1.1-.9-.4-1.7-.4h-1.1v-1.7h1.1c.7,0,1.2-.1,1.5-.3.3-.2.5-.5.5-.9s-.2-.7-.5-.9c-.3-.2-.8-.3-1.3-.3s-.9,0-1.3.1c-.4,0-.9.2-1.3.4v-1.9c.5-.1,1-.3,1.5-.3s1-.1,1.5-.1c1.3,0,2.3.2,3,.7.7.4,1,1.1,1,2s-.2,1.1-.5,1.5c-.3.4-.8.6-1.4.8Z"/>
    </g>
  </g>
  <g id="patch_131" data-name="patch_13">
    <path class="st1" d="M437.9,666.2h113"/>
    <path class="st1" d="M544.9,663.2l6,3-6,3"/>
  </g>
  <g id="text_71" data-name="text_7">
    <g>
      <path id="DejaVuSans-Bold-3b14" data-name="DejaVuSans-Bold-3b1" d="M485.2,639.1l.2-.7h2.1l-1.3,3.9.2,1c.1.8.4,1.1.7,1.1h.6v1.5h-.7c-.7,0-1.3-.2-1.6-.6,0,0-.1-.2-.2-.2-.2.3-.4.5-.7.7-.2.2-.9.3-2,.3-1.1,0-1.9-.4-2.4-1-.5-.7-.7-1.7-.7-3s.3-2.3.8-2.8c.7-.7,1.6-1.1,2.9-1.1,1.1,0,1.8.3,2.3.9ZM484.2,642l-.2-1.1c-.1-.7-.5-1-1.1-1-.3,0-.6.2-.8.6-.3.4-.4,1-.4,1.8s.1,1.4.3,1.7c.2.4.5.5.8.6.4,0,.6-.3.9-1l.5-1.5Z"/>
      <path id="DejaVuSans-Bold-317" data-name="DejaVuSans-Bold-31" d="M489.8,644.2h2.3v-6.6l-2.4.5v-1.8l2.4-.5h2.5v8.4h2.3v1.8h-7.1v-1.8Z"/>
      <path id="DejaVuSans-Bold-2d7" data-name="DejaVuSans-Bold-2d" d="M498.7,641h4.3v2h-4.3v-2Z"/>
      <path id="DejaVuSans-Bold-336" data-name="DejaVuSans-Bold-33" d="M510.3,640.5c.7.2,1.2.5,1.6.9.4.4.5,1,.5,1.7,0,1-.4,1.8-1.2,2.3-.8.5-1.9.8-3.4.8s-1.1,0-1.6-.1c-.5,0-1-.2-1.6-.4v-2c.5.2,1,.4,1.5.6.5.1,1,.2,1.4.2.7,0,1.2-.1,1.6-.4.4-.2.6-.6.6-1s-.2-.8-.6-1.1-.9-.4-1.7-.4h-1.1v-1.7h1.1c.7,0,1.2-.1,1.5-.3.3-.2.5-.5.5-.9s-.2-.7-.5-.9c-.3-.2-.8-.3-1.3-.3s-.9,0-1.3.1c-.4,0-.9.2-1.3.4v-1.9c.5-.1,1-.3,1.5-.3s1-.1,1.5-.1c1.3,0,2.3.2,3,.7.7.4,1,1.1,1,2s-.2,1.1-.5,1.5c-.3.4-.8.6-1.4.8Z"/>
    </g>
  </g>
  <g id="patch_141" data-name="patch_14">
    <path class="st1" d="M558.2,666.2h113"/>
    <path class="st1" d="M665.2,663.2l6,3-6,3"/>
  </g>
  <g id="text_81" data-name="text_8">
    <g>
      <path id="DejaVuSans-Bold-3b23" data-name="DejaVuSans-Bold-3b2" d="M604.4,639.5c.3-.4.4-.7.4-1s0-.7-.3-1c-.2-.3-.5-.4-.9-.4s-.8.2-1,.6-.3.9-.3,1.7v3c0,.7.1,1.3.4,1.7.3.4.7.6,1.2.6s1-.2,1.2-.5c.2-.3.3-.6.3-.7,0-.7-.3-1.2-.8-1.6-.3-.2-.8-.3-1.6-.3v-1.6c.7-.1,1.2-.3,1.3-.4ZM599.9,649v-9.6c0-1.3.3-2.2.9-2.9.5-.5,1-.9,1.5-1,.5-.2.9-.2,1.3-.2.4,0,.6,0,.6,0,.9.1,1.7.5,2.2,1.1.4.4.5,1,.5,1.8s-.1.8-.4,1.2c-.3.5-.7.7-1.1.8.7.2,1.2.5,1.6.8.7.6,1,1.3,1,2.3s-.3,1.5-.9,2.1c-.6.6-1.4.9-2.4.9s-1.9-.4-2.5-1.3v4h-2.4Z"/>
      <path id="DejaVuSans-Bold-318" data-name="DejaVuSans-Bold-31" d="M610.4,644.3h2.3v-6.6l-2.4.5v-1.8l2.4-.5h2.5v8.4h2.3v1.8h-7.1v-1.8Z"/>
      <path id="DejaVuSans-Bold-2d8" data-name="DejaVuSans-Bold-2d" d="M619.3,641.1h4.3v2h-4.3v-2Z"/>
      <path id="DejaVuSans-Bold-337" data-name="DejaVuSans-Bold-33" d="M630.8,640.6c.7.2,1.2.5,1.6.9.4.4.5,1,.5,1.7,0,1-.4,1.8-1.2,2.3-.8.5-1.9.8-3.4.8s-1.1,0-1.6-.1c-.5,0-1-.2-1.6-.4v-2c.5.2,1,.4,1.5.6.5.1,1,.2,1.4.2.7,0,1.2-.1,1.6-.4.4-.2.6-.6.6-1s-.2-.8-.6-1.1-.9-.4-1.7-.4h-1.1v-1.7h1.1c.7,0,1.2-.1,1.5-.3.3-.2.5-.5.5-.9s-.2-.7-.5-.9c-.3-.2-.8-.3-1.3-.3s-.9,0-1.3.1c-.4,0-.9.2-1.3.4v-1.9c.5-.1,1-.3,1.5-.3s1-.1,1.5-.1c1.3,0,2.3.2,3,.7.7.4,1,1.1,1,2s-.2,1.1-.5,1.5c-.3.4-.8.6-1.4.8Z"/>
    </g>
  </g>
  <g id="patch_151" data-name="patch_15">
    <path class="st1" d="M124,547.6c23.4,39,46.2,77,68.4,114"/>
    <path class="st1" d="M191.9,655l.5,6.7-5.7-3.6"/>
  </g>
  <g id="text_91" data-name="text_9">
    <g>
      <path id="DejaVuSans-Bold-3b15" data-name="DejaVuSans-Bold-3b1" d="M170.6,586.5l.8-.2,1.1,1.8-4.1.9-.8.7c-.6.5-.8.9-.6,1.1l.3.5-1.3.8-.4-.6c-.4-.6-.5-1.2-.4-1.7,0-.1,0-.2,0-.2-.4,0-.7-.1-.9-.2-.3,0-.7-.6-1.3-1.6-.6-1-.7-1.9-.4-2.6.3-.8,1.1-1.5,2.2-2.2s2.1-1,2.8-.8c.9.2,1.7.8,2.4,1.9.6.9.7,1.7.4,2.4ZM167.6,587.2l.8-.7c.5-.5.6-1,.3-1.5-.2-.3-.5-.4-.9-.4-.5,0-1,.2-1.7.6s-1.1.8-1.3,1.2c-.2.4-.2.7,0,1,.2.3.6.4,1.3.2l1.5-.4Z"/>
      <path id="DejaVuSans-Bold-319" data-name="DejaVuSans-Bold-31" d="M168.6,593.1l1.2,2,5.7-3.4-1.6-1.8,1.5-.9,1.6,1.8,1.3,2.1-7.2,4.3,1.2,2-1.6.9-3.7-6.1,1.6-.9Z"/>
      <path id="DejaVuSans-Bold-2d9" data-name="DejaVuSans-Bold-2d" d="M175.9,599.1l2.2,3.7-1.7,1-2.2-3.7,1.7-1Z"/>
      <path id="DejaVuSans-Bold-341" data-name="DejaVuSans-Bold-34" d="M183.7,606.3l-5.1-.3,1.5,2.5,3.7-2.2ZM185.4,604.8l1.5,2.5-5.5,3.3.7,1.2-1.6,1-.7-1.2-1.6,1-1.3-2.1,1.6-1-2.3-3.9,1.9-1.2,7.3.4Z"/>
    </g>
  </g>
  <g id="text_101" data-name="text_10">
    <g>
      <path id="DejaVuSans-Bold-475" data-name="DejaVuSans-Bold-47" d="M77.6,549c-.7.3-1.3.6-2,.7-.7.2-1.4.2-2.2.2-1.7,0-3-.5-4-1.4-1-1-1.5-2.2-1.5-3.9s.5-2.9,1.5-3.9c1-.9,2.4-1.4,4.2-1.4s1.3,0,1.9.2c.6.1,1.2.3,1.8.6v2.1c-.6-.3-1.1-.6-1.7-.7-.6-.2-1.1-.2-1.7-.2-1,0-1.9.3-2.4.9-.6.6-.9,1.4-.9,2.5s.3,1.9.8,2.5c.5.6,1.3.9,2.3.9s.5,0,.8,0c.2,0,.4,0,.6-.2v-2h-1.6v-1.8h4.1v4.9Z"/>
      <path id="DejaVuSans-Bold-617" data-name="DejaVuSans-Bold-61" d="M83.3,546.3c-.5,0-.9,0-1.2.3-.3.2-.4.4-.4.8s.1.6.3.7c.2.2.5.3.9.3s.8-.2,1.2-.5c.3-.3.5-.7.5-1.2v-.3h-1.3ZM87,545.4v4.4h-2.5v-1.1c-.3.5-.7.8-1.1,1-.4.2-.9.3-1.5.3s-1.4-.2-1.9-.7c-.5-.5-.7-1.1-.7-1.8s.3-1.6.9-2c.6-.4,1.6-.6,2.9-.6h1.4v-.2c0-.4-.2-.7-.5-.9-.3-.2-.8-.3-1.4-.3s-1,0-1.5.2c-.5.1-.9.3-1.3.5v-1.9c.5-.1,1.1-.2,1.6-.3.5,0,1.1,0,1.6,0,1.4,0,2.4.3,3,.8.6.5.9,1.4.9,2.7Z"/>
      <path id="DejaVuSans-Bold-6c5" data-name="DejaVuSans-Bold-6c" d="M89.3,539.1h2.4v10.6h-2.4v-10.6Z"/>
    </g>
  </g>
  <g id="text_111" data-name="text_11">
    <g>
      <path id="DejaVuSans-Bold-501" data-name="DejaVuSans-Bold-50" d="M162.6,440.1h3.7c1.1,0,2,.2,2.6.7.6.5.9,1.2.9,2.1s-.3,1.6-.9,2.1c-.6.5-1.4.7-2.6.7h-1.5v3h-2.3v-8.7ZM164.9,441.7v2.4h1.2c.4,0,.8-.1,1-.3s.4-.5.4-.9-.1-.7-.4-.9-.6-.3-1-.3h-1.2Z"/>
      <path id="DejaVuSans-Bold-791" data-name="DejaVuSans-Bold-79" d="M170.7,442.2h2.1l1.8,4.5,1.5-4.5h2.1l-2.8,7.2c-.3.7-.6,1.2-1,1.5-.4.3-.9.4-1.5.4h-1.2v-1.4h.7c.4,0,.6,0,.8-.2.2-.1.3-.3.4-.6v-.2c0,0-2.9-6.8-2.9-6.8Z"/>
      <path id="DejaVuSans-Bold-721" data-name="DejaVuSans-Bold-72" d="M184.3,444c-.2,0-.4-.1-.5-.2-.2,0-.4,0-.5,0-.5,0-1,.2-1.2.5-.3.3-.4.8-.4,1.5v3h-2.1v-6.6h2.1v1.1c.3-.4.6-.7.9-.9.4-.2.8-.3,1.3-.3s.1,0,.2,0c0,0,.2,0,.4,0v1.9Z"/>
    </g>
  </g>
  <g id="text_121" data-name="text_12">
    <g>
      <path id="DejaVuSans-Bold-413" data-name="DejaVuSans-Bold-41" d="M243.3,567.6h-3.5l-.6,1.6h-2.3l3.2-8.7h2.7l3.2,8.7h-2.3l-.6-1.6ZM240.4,566h2.4l-1.2-3.5-1.2,3.5Z"/>
      <path id="DejaVuSans-Bold-633" data-name="DejaVuSans-Bold-63" d="M252.5,562.9v1.7c-.3-.2-.6-.3-.9-.4s-.6-.1-.9-.1c-.6,0-1,.2-1.4.5s-.5.8-.5,1.4.2,1.1.5,1.4c.3.3.8.5,1.4.5s.6,0,.9-.1c.3,0,.6-.2.8-.4v1.7c-.3.1-.7.2-1,.3-.3,0-.7,0-1,0-1.2,0-2.1-.3-2.8-.9-.7-.6-1-1.5-1-2.5s.3-1.9,1-2.5c.7-.6,1.6-.9,2.8-.9s.7,0,1,0,.7.2,1,.3Z"/>
    </g>
  </g>
</svg>