<?xml version="1.0" encoding="utf-8" standalone="no"?>
<!DOCTYPE svg PUBLIC "-//W3C//DTD SVG 1.1//EN"
  "http://www.w3.org/Graphics/SVG/1.1/DTD/svg11.dtd">
<svg xmlns:xlink="http://www.w3.org/1999/xlink" width="864pt" height="576pt" viewBox="0 0 864 576" xmlns="http://www.w3.org/2000/svg" version="1.1">
 <metadata>
  <rdf:RDF xmlns:dc="http://purl.org/dc/elements/1.1/" xmlns:cc="http://creativecommons.org/ns#" xmlns:rdf="http://www.w3.org/1999/02/22-rdf-syntax-ns#">
   <cc:Work>
    <dc:type rdf:resource="http://purl.org/dc/dcmitype/StillImage"/>
    <dc:date>2026-03-04T14:41:18.513105</dc:date>
    <dc:format>image/svg+xml</dc:format>
    <dc:creator>
     <cc:Agent>
      <dc:title>Matplotlib v3.10.6, https://matplotlib.org/</dc:title>
     </cc:Agent>
    </dc:creator>
   </cc:Work>
  </rdf:RDF>
 </metadata>
 <defs>
  <style type="text/css">*{stroke-linejoin: round; stroke-linecap: butt}</style>
 </defs>
 <g id="figure_1">
  <g id="patch_1">
   <path d="M 0 576 
L 864 576 
L 864 0 
L 0 0 
z
" style="fill: #ffffff"/>
  </g>
  <g id="axes_1">
   <g id="patch_2">
    <path d="M 31.95 565.2 
L 832.05 565.2 
L 832.05 31.8 
L 31.95 31.8 
z
" style="fill: #ffffff"/>
   </g>
   <g id="patch_3">
    <path d="M 231.975 391.845 
C 239.047967 391.845 245.832195 389.034881 250.833538 384.033538 
C 255.834881 379.032195 258.645 372.247967 258.645 365.175 
C 258.645 358.102033 255.834881 351.317805 250.833538 346.316462 
C 245.832195 341.315119 239.047967 338.505 231.975 338.505 
C 224.902033 338.505 218.117805 341.315119 213.116462 346.316462 
C 208.115119 351.317805 205.305 358.102033 205.305 365.175 
C 205.305 372.247967 208.115119 379.032195 213.116462 384.033538 
C 218.117805 389.034881 224.902033 391.845 231.975 391.845 
z
" clip-path="url(#p846bf03807)" style="fill: #ffbf00; stroke: #000000; stroke-width: 3; stroke-linejoin: miter"/>
   </g>
   <g id="patch_4">
    <path d="M 365.325 391.845 
C 372.397967 391.845 379.182195 389.034881 384.183538 384.033538 
C 389.184881 379.032195 391.995 372.247967 391.995 365.175 
C 391.995 358.102033 389.184881 351.317805 384.183538 346.316462 
C 379.182195 341.315119 372.397967 338.505 365.325 338.505 
C 358.252033 338.505 351.467805 341.315119 346.466462 346.316462 
C 341.465119 351.317805 338.655 358.102033 338.655 365.175 
C 338.655 372.247967 341.465119 379.032195 346.466462 384.033538 
C 351.467805 389.034881 358.252033 391.845 365.325 391.845 
z
" clip-path="url(#p846bf03807)" style="fill: #ffbf00; stroke: #000000; stroke-width: 3; stroke-linejoin: miter"/>
   </g>
   <g id="patch_5">
    <path d="M 365.325 371.8425 
C 367.093242 371.8425 368.789299 371.13997 370.039634 369.889634 
C 371.28997 368.639299 371.9925 366.943242 371.9925 365.175 
C 371.9925 363.406758 371.28997 361.710701 370.039634 360.460366 
C 368.789299 359.21003 367.093242 358.5075 365.325 358.5075 
C 363.556758 358.5075 361.860701 359.21003 360.610366 360.460366 
C 359.36003 361.710701 358.6575 363.406758 358.6575 365.175 
C 358.6575 366.943242 359.36003 368.639299 360.610366 369.889634 
C 361.860701 371.13997 363.556758 371.8425 365.325 371.8425 
z
" clip-path="url(#p846bf03807)" style="fill: #ffffff; stroke: #ffffff; stroke-width: 2; stroke-linejoin: miter"/>
   </g>
   <g id="patch_6">
    <path d="M 498.675 391.845 
C 505.747967 391.845 512.532195 389.034881 517.533538 384.033538 
C 522.534881 379.032195 525.345 372.247967 525.345 365.175 
C 525.345 358.102033 522.534881 351.317805 517.533538 346.316462 
C 512.532195 341.315119 505.747967 338.505 498.675 338.505 
C 491.602033 338.505 484.817805 341.315119 479.816462 346.316462 
C 474.815119 351.317805 472.005 358.102033 472.005 365.175 
C 472.005 372.247967 474.815119 379.032195 479.816462 384.033538 
C 484.817805 389.034881 491.602033 391.845 498.675 391.845 
z
" clip-path="url(#p846bf03807)" style="fill: #3cb371; stroke: #000000; stroke-width: 3; stroke-linejoin: miter"/>
   </g>
   <g id="patch_7">
    <path d="M 285.315 258.495 
C 292.387967 258.495 299.172195 255.684881 304.173538 250.683538 
C 309.174881 245.682195 311.985 238.897967 311.985 231.825 
C 311.985 224.752033 309.174881 217.967805 304.173538 212.966462 
C 299.172195 207.965119 292.387967 205.155 285.315 205.155 
C 278.242033 205.155 271.457805 207.965119 266.456462 212.966462 
C 261.455119 217.967805 258.645 224.752033 258.645 231.825 
C 258.645 238.897967 261.455119 245.682195 266.456462 250.683538 
C 271.457805 255.684881 278.242033 258.495 285.315 258.495 
z
" clip-path="url(#p846bf03807)" style="fill: #3cb371; stroke: #000000; stroke-width: 3; stroke-linejoin: miter"/>
   </g>
   <g id="matplotlib.axis_1"/>
   <g id="matplotlib.axis_2"/>
   <g id="line2d_1">
    <path d="M 365.325 365.175 
" clip-path="url(#p846bf03807)" style="fill: none; stroke: #000000; stroke-width: 1.5; stroke-linecap: square"/>
    <defs>
     <path id="mfd850e6035" d="M 0 1.4 
C 0.371284 1.4 0.727412 1.252487 0.989949 0.989949 
C 1.252487 0.727412 1.4 0.371284 1.4 0 
C 1.4 -0.371284 1.252487 -0.727412 0.989949 -0.989949 
C 0.727412 -1.252487 0.371284 -1.4 0 -1.4 
C -0.371284 -1.4 -0.727412 -1.252487 -0.989949 -0.989949 
C -1.252487 -0.727412 -1.4 -0.371284 -1.4 0 
C -1.4 0.371284 -1.252487 0.727412 -0.989949 0.989949 
C -0.727412 1.252487 -0.371284 1.4 0 1.4 
z
" style="stroke: #000000"/>
    </defs>
    <g clip-path="url(#p846bf03807)">
     <use xlink:href="#mfd850e6035" x="365.325" y="365.175" style="stroke: #000000"/>
    </g>
   </g>
   <g id="text_1">
    <!-- Gal -->
    <g transform="translate(219.105938 409.150313) scale(0.14 -0.14)">
     <defs>
      <path id="DejaVuSans-Bold-47" d="M 4781 347 
Q 4331 128 3847 18 
Q 3363 -91 2847 -91 
Q 1681 -91 1000 561 
Q 319 1213 319 2328 
Q 319 3456 1012 4103 
Q 1706 4750 2913 4750 
Q 3378 4750 3804 4662 
Q 4231 4575 4609 4403 
L 4609 3438 
Q 4219 3659 3833 3768 
Q 3447 3878 3059 3878 
Q 2341 3878 1952 3476 
Q 1563 3075 1563 2328 
Q 1563 1588 1938 1184 
Q 2313 781 3003 781 
Q 3191 781 3352 804 
Q 3513 828 3641 878 
L 3641 1784 
L 2906 1784 
L 2906 2591 
L 4781 2591 
L 4781 347 
z
" transform="scale(0.015625)"/>
      <path id="DejaVuSans-Bold-61" d="M 2106 1575 
Q 1756 1575 1579 1456 
Q 1403 1338 1403 1106 
Q 1403 894 1545 773 
Q 1688 653 1941 653 
Q 2256 653 2472 879 
Q 2688 1106 2688 1447 
L 2688 1575 
L 2106 1575 
z
M 3816 1997 
L 3816 0 
L 2688 0 
L 2688 519 
Q 2463 200 2181 54 
Q 1900 -91 1497 -91 
Q 953 -91 614 226 
Q 275 544 275 1050 
Q 275 1666 698 1953 
Q 1122 2241 2028 2241 
L 2688 2241 
L 2688 2328 
Q 2688 2594 2478 2717 
Q 2269 2841 1825 2841 
Q 1466 2841 1156 2769 
Q 847 2697 581 2553 
L 581 3406 
Q 941 3494 1303 3539 
Q 1666 3584 2028 3584 
Q 2975 3584 3395 3211 
Q 3816 2838 3816 1997 
z
" transform="scale(0.015625)"/>
      <path id="DejaVuSans-Bold-6c" d="M 538 4863 
L 1656 4863 
L 1656 0 
L 538 0 
L 538 4863 
z
" transform="scale(0.015625)"/>
     </defs>
     <use xlink:href="#DejaVuSans-Bold-47"/>
     <use xlink:href="#DejaVuSans-Bold-61" transform="translate(82.080078 0)"/>
     <use xlink:href="#DejaVuSans-Bold-6c" transform="translate(149.560547 0)"/>
    </g>
   </g>
   <g id="text_2">
    <!-- GalA -->
    <g transform="translate(347.038594 409.150313) scale(0.14 -0.14)">
     <defs>
      <path id="DejaVuSans-Bold-41" d="M 3419 850 
L 1538 850 
L 1241 0 
L 31 0 
L 1759 4666 
L 3194 4666 
L 4922 0 
L 3713 0 
L 3419 850 
z
M 1838 1716 
L 3116 1716 
L 2478 3572 
L 1838 1716 
z
" transform="scale(0.015625)"/>
     </defs>
     <use xlink:href="#DejaVuSans-Bold-47"/>
     <use xlink:href="#DejaVuSans-Bold-61" transform="translate(82.080078 0)"/>
     <use xlink:href="#DejaVuSans-Bold-6c" transform="translate(149.560547 0)"/>
     <use xlink:href="#DejaVuSans-Bold-41" transform="translate(183.837891 0)"/>
    </g>
   </g>
   <g id="text_3">
    <!-- Man -->
    <g transform="translate(482.001875 409.150313) scale(0.14 -0.14)">
     <defs>
      <path id="DejaVuSans-Bold-4d" d="M 588 4666 
L 2119 4666 
L 3181 2169 
L 4250 4666 
L 5778 4666 
L 5778 0 
L 4641 0 
L 4641 3413 
L 3566 897 
L 2803 897 
L 1728 3413 
L 1728 0 
L 588 0 
L 588 4666 
z
" transform="scale(0.015625)"/>
      <path id="DejaVuSans-Bold-6e" d="M 4056 2131 
L 4056 0 
L 2931 0 
L 2931 347 
L 2931 1631 
Q 2931 2084 2911 2256 
Q 2891 2428 2841 2509 
Q 2775 2619 2662 2680 
Q 2550 2741 2406 2741 
Q 2056 2741 1856 2470 
Q 1656 2200 1656 1722 
L 1656 0 
L 538 0 
L 538 3500 
L 1656 3500 
L 1656 2988 
Q 1909 3294 2193 3439 
Q 2478 3584 2822 3584 
Q 3428 3584 3742 3212 
Q 4056 2841 4056 2131 
z
" transform="scale(0.015625)"/>
     </defs>
     <use xlink:href="#DejaVuSans-Bold-4d"/>
     <use xlink:href="#DejaVuSans-Bold-61" transform="translate(99.511719 0)"/>
     <use xlink:href="#DejaVuSans-Bold-6e" transform="translate(166.992188 0)"/>
    </g>
   </g>
   <g id="patch_8">
    <path d="M 233.973134 365.175 
Q 298.648936 365.175 359.970636 365.175 
" style="fill: none; stroke: #000000; stroke-width: 3; stroke-linecap: round"/>
    <path d="M 353.970636 362.175 
L 359.970636 365.175 
L 353.970636 368.175 
" style="fill: none; stroke: #000000; stroke-width: 3; stroke-linecap: round"/>
   </g>
   <g id="text_4">
    <!-- β1-3 -->
    <g transform="translate(280.993594 342.463281) scale(0.14 -0.14)">
     <defs>
      <path id="DejaVuSans-Bold-3b2" d="M 2575 3038 
Q 2772 3309 2772 3503 
Q 2772 3769 2648 3948 
Q 2525 4128 2241 4128 
Q 1900 4128 1778 3864 
Q 1656 3600 1656 3103 
L 1656 1747 
Q 1656 1250 1848 986 
Q 2041 722 2400 722 
Q 2800 722 2953 934 
Q 3106 1147 3106 1275 
Q 3106 1722 2738 1988 
Q 2538 2122 1988 2134 
L 1988 2847 
Q 2497 2925 2575 3038 
z
M 538 -1331 
L 538 3044 
Q 538 3922 969 4369 
Q 1325 4741 1672 4845 
Q 2019 4950 2259 4950 
Q 2500 4947 2538 4941 
Q 3178 4841 3538 4438 
Q 3788 4163 3788 3600 
Q 3788 3313 3616 3053 
Q 3406 2734 3094 2709 
Q 3556 2584 3844 2322 
Q 4294 1919 4294 1288 
Q 4294 731 3903 320 
Q 3513 -91 2809 -91 
Q 2106 -91 1656 506 
L 1656 -1331 
L 538 -1331 
z
" transform="scale(0.015625)"/>
      <path id="DejaVuSans-Bold-31" d="M 750 831 
L 1813 831 
L 1813 3847 
L 722 3622 
L 722 4441 
L 1806 4666 
L 2950 4666 
L 2950 831 
L 4013 831 
L 4013 0 
L 750 0 
L 750 831 
z
" transform="scale(0.015625)"/>
      <path id="DejaVuSans-Bold-2d" d="M 347 2297 
L 2309 2297 
L 2309 1388 
L 347 1388 
L 347 2297 
z
" transform="scale(0.015625)"/>
      <path id="DejaVuSans-Bold-33" d="M 2981 2516 
Q 3453 2394 3698 2092 
Q 3944 1791 3944 1325 
Q 3944 631 3412 270 
Q 2881 -91 1863 -91 
Q 1503 -91 1142 -33 
Q 781 25 428 141 
L 428 1069 
Q 766 900 1098 814 
Q 1431 728 1753 728 
Q 2231 728 2486 893 
Q 2741 1059 2741 1369 
Q 2741 1688 2480 1852 
Q 2219 2016 1709 2016 
L 1228 2016 
L 1228 2791 
L 1734 2791 
Q 2188 2791 2409 2933 
Q 2631 3075 2631 3366 
Q 2631 3634 2415 3781 
Q 2200 3928 1806 3928 
Q 1516 3928 1219 3862 
Q 922 3797 628 3669 
L 628 4550 
Q 984 4650 1334 4700 
Q 1684 4750 2022 4750 
Q 2931 4750 3382 4451 
Q 3834 4153 3834 3553 
Q 3834 3144 3618 2883 
Q 3403 2622 2981 2516 
z
" transform="scale(0.015625)"/>
     </defs>
     <use xlink:href="#DejaVuSans-Bold-3b2"/>
     <use xlink:href="#DejaVuSans-Bold-31" transform="translate(71.582031 0)"/>
     <use xlink:href="#DejaVuSans-Bold-2d" transform="translate(141.162109 0)"/>
     <use xlink:href="#DejaVuSans-Bold-33" transform="translate(182.666016 0)"/>
    </g>
   </g>
   <g id="patch_9">
    <path d="M 367.323134 365.175 
Q 431.998936 365.175 493.320636 365.175 
" style="fill: none; stroke: #000000; stroke-width: 3; stroke-linecap: round"/>
    <path d="M 487.320636 362.175 
L 493.320636 365.175 
L 487.320636 368.175 
" style="fill: none; stroke: #000000; stroke-width: 3; stroke-linecap: round"/>
   </g>
   <g id="text_5">
    <!-- α1-2 -->
    <g transform="translate(414.544844 342.368125) scale(0.14 -0.14)">
     <defs>
      <path id="DejaVuSans-Bold-3b1" d="M 3006 3163 
L 3119 3500 
L 4088 3500 
L 3484 1697 
L 3569 1219 
Q 3659 703 3872 703 
L 4128 703 
L 4128 0 
L 3809 0 
Q 3313 0 3059 263 
Q 3003 322 2988 353 
Q 2838 163 2689 39 
Q 2541 -84 1763 -78 
Q 988 -72 648 400 
Q 309 872 309 1794 
Q 309 2713 663 3088 
Q 1109 3569 1966 3578 
Q 2688 3588 3006 3163 
z
M 2575 1841 
L 2481 2350 
Q 2394 2825 1981 2828 
Q 1772 2828 1598 2558 
Q 1425 2288 1425 1741 
Q 1425 1191 1581 944 
Q 1738 697 1969 691 
Q 2213 684 2363 1163 
L 2575 1841 
z
" transform="scale(0.015625)"/>
      <path id="DejaVuSans-Bold-32" d="M 1844 884 
L 3897 884 
L 3897 0 
L 506 0 
L 506 884 
L 2209 2388 
Q 2438 2594 2547 2791 
Q 2656 2988 2656 3200 
Q 2656 3528 2436 3728 
Q 2216 3928 1850 3928 
Q 1569 3928 1234 3808 
Q 900 3688 519 3450 
L 519 4475 
Q 925 4609 1322 4679 
Q 1719 4750 2100 4750 
Q 2938 4750 3402 4381 
Q 3866 4013 3866 3353 
Q 3866 2972 3669 2642 
Q 3472 2313 2841 1759 
L 1844 884 
z
" transform="scale(0.015625)"/>
     </defs>
     <use xlink:href="#DejaVuSans-Bold-3b1"/>
     <use xlink:href="#DejaVuSans-Bold-31" transform="translate(68.701172 0)"/>
     <use xlink:href="#DejaVuSans-Bold-2d" transform="translate(138.28125 0)"/>
     <use xlink:href="#DejaVuSans-Bold-32" transform="translate(179.785156 0)"/>
    </g>
   </g>
   <g id="patch_10">
    <path d="M 500.673134 365.175 
Q 565.348936 365.175 626.670636 365.175 
" style="fill: none; stroke: #000000; stroke-width: 3; stroke-linecap: round"/>
    <path d="M 620.670636 362.175 
L 626.670636 365.175 
L 620.670636 368.175 
" style="fill: none; stroke: #000000; stroke-width: 3; stroke-linecap: round"/>
   </g>
   <g id="text_6">
    <!-- α1-3 -->
    <g transform="translate(547.894844 342.368125) scale(0.14 -0.14)">
     <use xlink:href="#DejaVuSans-Bold-3b1"/>
     <use xlink:href="#DejaVuSans-Bold-31" transform="translate(68.701172 0)"/>
     <use xlink:href="#DejaVuSans-Bold-2d" transform="translate(138.28125 0)"/>
     <use xlink:href="#DejaVuSans-Bold-33" transform="translate(179.785156 0)"/>
    </g>
   </g>
   <g id="patch_11">
    <path d="M 286.342961 233.538268 
Q 325.319373 298.498954 362.570113 360.583522 
" style="fill: none; stroke: #000000; stroke-width: 3; stroke-linecap: round"/>
    <path d="M 362.055618 353.895077 
L 362.570113 360.583522 
L 356.91066 356.982052 
" style="fill: none; stroke: #000000; stroke-width: 3; stroke-linecap: round"/>
   </g>
   <g id="text_7">
    <!-- α1-4 -->
    <g transform="translate(329.035329 275.914767) rotate(-300.963757) scale(0.14 -0.14)">
     <defs>
      <path id="DejaVuSans-Bold-34" d="M 2356 3675 
L 1038 1722 
L 2356 1722 
L 2356 3675 
z
M 2156 4666 
L 3494 4666 
L 3494 1722 
L 4159 1722 
L 4159 850 
L 3494 850 
L 3494 0 
L 2356 0 
L 2356 850 
L 288 850 
L 288 1881 
L 2156 4666 
z
" transform="scale(0.015625)"/>
     </defs>
     <use xlink:href="#DejaVuSans-Bold-3b1"/>
     <use xlink:href="#DejaVuSans-Bold-31" transform="translate(68.701172 0)"/>
     <use xlink:href="#DejaVuSans-Bold-2d" transform="translate(138.28125 0)"/>
     <use xlink:href="#DejaVuSans-Bold-34" transform="translate(179.785156 0)"/>
    </g>
   </g>
   <g id="text_8">
    <!-- Man -->
    <g transform="translate(218.63125 235.688125) scale(0.14 -0.14)">
     <use xlink:href="#DejaVuSans-Bold-4d"/>
     <use xlink:href="#DejaVuSans-Bold-61" transform="translate(99.511719 0)"/>
     <use xlink:href="#DejaVuSans-Bold-6e" transform="translate(166.992188 0)"/>
    </g>
   </g>
   <g id="text_9">
    <!-- CPS56_K57 -->
    <g transform="translate(398.17875 19.8) scale(0.12 -0.12)">
     <defs>
      <path id="DejaVuSans-43" d="M 4122 4306 
L 4122 3641 
Q 3803 3938 3442 4084 
Q 3081 4231 2675 4231 
Q 1875 4231 1450 3742 
Q 1025 3253 1025 2328 
Q 1025 1406 1450 917 
Q 1875 428 2675 428 
Q 3081 428 3442 575 
Q 3803 722 4122 1019 
L 4122 359 
Q 3791 134 3420 21 
Q 3050 -91 2638 -91 
Q 1578 -91 968 557 
Q 359 1206 359 2328 
Q 359 3453 968 4101 
Q 1578 4750 2638 4750 
Q 3056 4750 3426 4639 
Q 3797 4528 4122 4306 
z
" transform="scale(0.015625)"/>
      <path id="DejaVuSans-50" d="M 1259 4147 
L 1259 2394 
L 2053 2394 
Q 2494 2394 2734 2622 
Q 2975 2850 2975 3272 
Q 2975 3691 2734 3919 
Q 2494 4147 2053 4147 
L 1259 4147 
z
M 628 4666 
L 2053 4666 
Q 2838 4666 3239 4311 
Q 3641 3956 3641 3272 
Q 3641 2581 3239 2228 
Q 2838 1875 2053 1875 
L 1259 1875 
L 1259 0 
L 628 0 
L 628 4666 
z
" transform="scale(0.015625)"/>
      <path id="DejaVuSans-53" d="M 3425 4513 
L 3425 3897 
Q 3066 4069 2747 4153 
Q 2428 4238 2131 4238 
Q 1616 4238 1336 4038 
Q 1056 3838 1056 3469 
Q 1056 3159 1242 3001 
Q 1428 2844 1947 2747 
L 2328 2669 
Q 3034 2534 3370 2195 
Q 3706 1856 3706 1288 
Q 3706 609 3251 259 
Q 2797 -91 1919 -91 
Q 1588 -91 1214 -16 
Q 841 59 441 206 
L 441 856 
Q 825 641 1194 531 
Q 1563 422 1919 422 
Q 2459 422 2753 634 
Q 3047 847 3047 1241 
Q 3047 1584 2836 1778 
Q 2625 1972 2144 2069 
L 1759 2144 
Q 1053 2284 737 2584 
Q 422 2884 422 3419 
Q 422 4038 858 4394 
Q 1294 4750 2059 4750 
Q 2388 4750 2728 4690 
Q 3069 4631 3425 4513 
z
" transform="scale(0.015625)"/>
      <path id="DejaVuSans-35" d="M 691 4666 
L 3169 4666 
L 3169 4134 
L 1269 4134 
L 1269 2991 
Q 1406 3038 1543 3061 
Q 1681 3084 1819 3084 
Q 2600 3084 3056 2656 
Q 3513 2228 3513 1497 
Q 3513 744 3044 326 
Q 2575 -91 1722 -91 
Q 1428 -91 1123 -41 
Q 819 9 494 109 
L 494 744 
Q 775 591 1075 516 
Q 1375 441 1709 441 
Q 2250 441 2565 725 
Q 2881 1009 2881 1497 
Q 2881 1984 2565 2268 
Q 2250 2553 1709 2553 
Q 1456 2553 1204 2497 
Q 953 2441 691 2322 
L 691 4666 
z
" transform="scale(0.015625)"/>
      <path id="DejaVuSans-36" d="M 2113 2584 
Q 1688 2584 1439 2293 
Q 1191 2003 1191 1497 
Q 1191 994 1439 701 
Q 1688 409 2113 409 
Q 2538 409 2786 701 
Q 3034 994 3034 1497 
Q 3034 2003 2786 2293 
Q 2538 2584 2113 2584 
z
M 3366 4563 
L 3366 3988 
Q 3128 4100 2886 4159 
Q 2644 4219 2406 4219 
Q 1781 4219 1451 3797 
Q 1122 3375 1075 2522 
Q 1259 2794 1537 2939 
Q 1816 3084 2150 3084 
Q 2853 3084 3261 2657 
Q 3669 2231 3669 1497 
Q 3669 778 3244 343 
Q 2819 -91 2113 -91 
Q 1303 -91 875 529 
Q 447 1150 447 2328 
Q 447 3434 972 4092 
Q 1497 4750 2381 4750 
Q 2619 4750 2861 4703 
Q 3103 4656 3366 4563 
z
" transform="scale(0.015625)"/>
      <path id="DejaVuSans-5f" d="M 3263 -1063 
L 3263 -1509 
L -63 -1509 
L -63 -1063 
L 3263 -1063 
z
" transform="scale(0.015625)"/>
      <path id="DejaVuSans-4b" d="M 628 4666 
L 1259 4666 
L 1259 2694 
L 3353 4666 
L 4166 4666 
L 1850 2491 
L 4331 0 
L 3500 0 
L 1259 2247 
L 1259 0 
L 628 0 
L 628 4666 
z
" transform="scale(0.015625)"/>
      <path id="DejaVuSans-37" d="M 525 4666 
L 3525 4666 
L 3525 4397 
L 1831 0 
L 1172 0 
L 2766 4134 
L 525 4134 
L 525 4666 
z
" transform="scale(0.015625)"/>
     </defs>
     <use xlink:href="#DejaVuSans-43"/>
     <use xlink:href="#DejaVuSans-50" transform="translate(69.824219 0)"/>
     <use xlink:href="#DejaVuSans-53" transform="translate(130.126953 0)"/>
     <use xlink:href="#DejaVuSans-35" transform="translate(193.603516 0)"/>
     <use xlink:href="#DejaVuSans-36" transform="translate(257.226562 0)"/>
     <use xlink:href="#DejaVuSans-5f" transform="translate(320.849609 0)"/>
     <use xlink:href="#DejaVuSans-4b" transform="translate(370.849609 0)"/>
     <use xlink:href="#DejaVuSans-35" transform="translate(436.425781 0)"/>
     <use xlink:href="#DejaVuSans-37" transform="translate(500.048828 0)"/>
    </g>
   </g>
  </g>
 </g>
 <defs>
  <clipPath id="p846bf03807">
   <rect x="31.95" y="31.8" width="800.1" height="533.4"/>
  </clipPath>
 </defs>
</svg>
