<?xml version="1.0" encoding="utf-8" standalone="no"?>
<!DOCTYPE svg PUBLIC "-//W3C//DTD SVG 1.1//EN"
  "http://www.w3.org/Graphics/SVG/1.1/DTD/svg11.dtd">
<svg xmlns:xlink="http://www.w3.org/1999/xlink" width="864pt" height="576pt" viewBox="0 0 864 576" xmlns="http://www.w3.org/2000/svg" version="1.1">
 <metadata>
  <rdf:RDF xmlns:dc="http://purl.org/dc/elements/1.1/" xmlns:cc="http://creativecommons.org/ns#" xmlns:rdf="http://www.w3.org/1999/02/22-rdf-syntax-ns#">
   <cc:Work>
    <dc:type rdf:resource="http://purl.org/dc/dcmitype/StillImage"/>
    <dc:date>2026-03-04T13:44:16.965739</dc:date>
    <dc:format>image/svg+xml</dc:format>
    <dc:creator>
     <cc:Agent>
      <dc:title>Matplotlib v3.10.6, https://matplotlib.org/</dc:title>
     </cc:Agent>
    </dc:creator>
   </cc:Work>
  </rdf:RDF>
 </metadata>
 <defs>
  <style type="text/css">*{stroke-linejoin: round; stroke-linecap: butt}</style>
 </defs>
 <g id="figure_1">
  <g id="patch_1">
   <path d="M 0 576 
L 864 576 
L 864 0 
L 0 0 
z
" style="fill: #ffffff"/>
  </g>
  <g id="axes_1">
   <g id="patch_2">
    <path d="M 32.22 565.2 
L 831.78 565.2 
L 831.78 32.16 
L 32.22 32.16 
z
" style="fill: #ffffff"/>
   </g>
   <g id="patch_3">
    <path d="M 232.11 391.962 
C 239.178193 391.962 245.957843 389.153777 250.95581 384.15581 
C 255.953777 379.157843 258.762 372.378193 258.762 365.31 
C 258.762 358.241807 255.953777 351.462157 250.95581 346.46419 
C 245.957843 341.466223 239.178193 338.658 232.11 338.658 
C 225.041807 338.658 218.262157 341.466223 213.26419 346.46419 
C 208.266223 351.462157 205.458 358.241807 205.458 365.31 
C 205.458 372.378193 208.266223 379.157843 213.26419 384.15581 
C 218.262157 389.153777 225.041807 391.962 232.11 391.962 
z
" clip-path="url(#p14d5f488e2)" style="fill: #4ea3ff; stroke: #000000; stroke-width: 3; stroke-linejoin: miter"/>
   </g>
   <g id="patch_4">
    <path d="M 232.11 371.973 
C 233.877048 371.973 235.571961 371.270944 236.821452 370.021452 
C 238.070944 368.771961 238.773 367.077048 238.773 365.31 
C 238.773 363.542952 238.070944 361.848039 236.821452 360.598548 
C 235.571961 359.349056 233.877048 358.647 232.11 358.647 
C 230.342952 358.647 228.648039 359.349056 227.398548 360.598548 
C 226.149056 361.848039 225.447 363.542952 225.447 365.31 
C 225.447 367.077048 226.149056 368.771961 227.398548 370.021452 
C 228.648039 371.270944 230.342952 371.973 232.11 371.973 
z
" clip-path="url(#p14d5f488e2)" style="fill: #ffffff; stroke: #ffffff; stroke-width: 2; stroke-linejoin: miter"/>
   </g>
   <g id="patch_5">
    <path d="M 365.37 331.995 
L 336.518364 381.9675 
L 394.221636 381.9675 
z
" clip-path="url(#p14d5f488e2)" style="fill: #ff6b6b; stroke: #000000; stroke-width: 3; stroke-linejoin: miter"/>
   </g>
   <g id="patch_6">
    <path d="M 498.63 391.962 
C 505.698193 391.962 512.477843 389.153777 517.47581 384.15581 
C 522.473777 379.157843 525.282 372.378193 525.282 365.31 
C 525.282 358.241807 522.473777 351.462157 517.47581 346.46419 
C 512.477843 341.466223 505.698193 338.658 498.63 338.658 
C 491.561807 338.658 484.782157 341.466223 479.78419 346.46419 
C 474.786223 351.462157 471.978 358.241807 471.978 365.31 
C 471.978 372.378193 474.786223 379.157843 479.78419 384.15581 
C 484.782157 389.153777 491.561807 391.962 498.63 391.962 
z
" clip-path="url(#p14d5f488e2)" style="fill: #4ea3ff; stroke: #000000; stroke-width: 3; stroke-linejoin: miter"/>
   </g>
   <g id="patch_7">
    <path d="M 282.0825 287.639091 
C 284.438564 287.639091 286.698448 286.703017 288.364437 285.037028 
C 290.030426 283.371039 290.9665 281.111155 290.9665 278.755091 
C 290.9665 276.399027 290.030426 274.139143 288.364437 272.473154 
C 286.698448 270.807165 284.438564 269.871091 282.0825 269.871091 
C 279.726436 269.871091 277.466552 270.807165 275.800563 272.473154 
C 274.134574 274.139143 273.1985 276.399027 273.1985 278.755091 
C 273.1985 281.111155 274.134574 283.371039 275.800563 285.037028 
C 277.466552 286.703017 279.726436 287.639091 282.0825 287.639091 
z
" clip-path="url(#p14d5f488e2)" style="fill: #1f77b4; stroke: #000000; stroke-width: 1.5; stroke-linejoin: miter"/>
   </g>
   <g id="matplotlib.axis_1"/>
   <g id="matplotlib.axis_2"/>
   <g id="line2d_1">
    <path d="M 245.436 342.228691 
L 282.0825 278.755091 
" clip-path="url(#p14d5f488e2)" style="fill: none; stroke: #000000; stroke-width: 1.5; stroke-linecap: square"/>
   </g>
   <g id="text_1">
    <!-- GlcA -->
    <g transform="translate(214.397813 409.262812) scale(0.14 -0.14)">
     <defs>
      <path id="DejaVuSans-Bold-47" d="M 4781 347 
Q 4331 128 3847 18 
Q 3363 -91 2847 -91 
Q 1681 -91 1000 561 
Q 319 1213 319 2328 
Q 319 3456 1012 4103 
Q 1706 4750 2913 4750 
Q 3378 4750 3804 4662 
Q 4231 4575 4609 4403 
L 4609 3438 
Q 4219 3659 3833 3768 
Q 3447 3878 3059 3878 
Q 2341 3878 1952 3476 
Q 1563 3075 1563 2328 
Q 1563 1588 1938 1184 
Q 2313 781 3003 781 
Q 3191 781 3352 804 
Q 3513 828 3641 878 
L 3641 1784 
L 2906 1784 
L 2906 2591 
L 4781 2591 
L 4781 347 
z
" transform="scale(0.015625)"/>
      <path id="DejaVuSans-Bold-6c" d="M 538 4863 
L 1656 4863 
L 1656 0 
L 538 0 
L 538 4863 
z
" transform="scale(0.015625)"/>
      <path id="DejaVuSans-Bold-63" d="M 3366 3391 
L 3366 2478 
Q 3138 2634 2908 2709 
Q 2678 2784 2431 2784 
Q 1963 2784 1702 2511 
Q 1441 2238 1441 1747 
Q 1441 1256 1702 982 
Q 1963 709 2431 709 
Q 2694 709 2930 787 
Q 3166 866 3366 1019 
L 3366 103 
Q 3103 6 2833 -42 
Q 2563 -91 2291 -91 
Q 1344 -91 809 395 
Q 275 881 275 1747 
Q 275 2613 809 3098 
Q 1344 3584 2291 3584 
Q 2566 3584 2833 3536 
Q 3100 3488 3366 3391 
z
" transform="scale(0.015625)"/>
      <path id="DejaVuSans-Bold-41" d="M 3419 850 
L 1538 850 
L 1241 0 
L 31 0 
L 1759 4666 
L 3194 4666 
L 4922 0 
L 3713 0 
L 3419 850 
z
M 1838 1716 
L 3116 1716 
L 2478 3572 
L 1838 1716 
z
" transform="scale(0.015625)"/>
     </defs>
     <use xlink:href="#DejaVuSans-Bold-47"/>
     <use xlink:href="#DejaVuSans-Bold-6c" transform="translate(82.080078 0)"/>
     <use xlink:href="#DejaVuSans-Bold-63" transform="translate(116.357422 0)"/>
     <use xlink:href="#DejaVuSans-Bold-41" transform="translate(175.634766 0)"/>
    </g>
   </g>
   <g id="text_2">
    <!-- Fru -->
    <g transform="translate(352.599375 409.262812) scale(0.14 -0.14)">
     <defs>
      <path id="DejaVuSans-Bold-46" d="M 588 4666 
L 3834 4666 
L 3834 3756 
L 1791 3756 
L 1791 2888 
L 3713 2888 
L 3713 1978 
L 1791 1978 
L 1791 0 
L 588 0 
L 588 4666 
z
" transform="scale(0.015625)"/>
      <path id="DejaVuSans-Bold-72" d="M 3138 2547 
Q 2991 2616 2845 2648 
Q 2700 2681 2553 2681 
Q 2122 2681 1889 2404 
Q 1656 2128 1656 1613 
L 1656 0 
L 538 0 
L 538 3500 
L 1656 3500 
L 1656 2925 
Q 1872 3269 2151 3426 
Q 2431 3584 2822 3584 
Q 2878 3584 2943 3579 
Q 3009 3575 3134 3559 
L 3138 2547 
z
" transform="scale(0.015625)"/>
      <path id="DejaVuSans-Bold-75" d="M 500 1363 
L 500 3500 
L 1625 3500 
L 1625 3150 
Q 1625 2866 1622 2436 
Q 1619 2006 1619 1863 
Q 1619 1441 1641 1255 
Q 1663 1069 1716 984 
Q 1784 875 1895 815 
Q 2006 756 2150 756 
Q 2500 756 2700 1025 
Q 2900 1294 2900 1772 
L 2900 3500 
L 4019 3500 
L 4019 0 
L 2900 0 
L 2900 506 
Q 2647 200 2364 54 
Q 2081 -91 1741 -91 
Q 1134 -91 817 281 
Q 500 653 500 1363 
z
" transform="scale(0.015625)"/>
     </defs>
     <use xlink:href="#DejaVuSans-Bold-46"/>
     <use xlink:href="#DejaVuSans-Bold-72" transform="translate(61.935547 0)"/>
     <use xlink:href="#DejaVuSans-Bold-75" transform="translate(111.251953 0)"/>
    </g>
   </g>
   <g id="text_3">
    <!-- Glc -->
    <g transform="translate(486.335156 409.262812) scale(0.14 -0.14)">
     <use xlink:href="#DejaVuSans-Bold-47"/>
     <use xlink:href="#DejaVuSans-Bold-6c" transform="translate(82.080078 0)"/>
     <use xlink:href="#DejaVuSans-Bold-63" transform="translate(116.357422 0)"/>
    </g>
   </g>
   <g id="patch_8">
    <path d="M 234.106785 365.31 
Q 298.738937 365.31 360.016986 365.31 
" style="fill: none; stroke: #000000; stroke-width: 3; stroke-linecap: round"/>
    <path d="M 354.016986 362.31 
L 360.016986 365.31 
L 354.016986 368.31 
" style="fill: none; stroke: #000000; stroke-width: 3; stroke-linecap: round"/>
   </g>
   <g id="text_4">
    <!-- β1-4 -->
    <g transform="translate(281.083594 342.616281) scale(0.14 -0.14)">
     <defs>
      <path id="DejaVuSans-Bold-3b2" d="M 2575 3038 
Q 2772 3309 2772 3503 
Q 2772 3769 2648 3948 
Q 2525 4128 2241 4128 
Q 1900 4128 1778 3864 
Q 1656 3600 1656 3103 
L 1656 1747 
Q 1656 1250 1848 986 
Q 2041 722 2400 722 
Q 2800 722 2953 934 
Q 3106 1147 3106 1275 
Q 3106 1722 2738 1988 
Q 2538 2122 1988 2134 
L 1988 2847 
Q 2497 2925 2575 3038 
z
M 538 -1331 
L 538 3044 
Q 538 3922 969 4369 
Q 1325 4741 1672 4845 
Q 2019 4950 2259 4950 
Q 2500 4947 2538 4941 
Q 3178 4841 3538 4438 
Q 3788 4163 3788 3600 
Q 3788 3313 3616 3053 
Q 3406 2734 3094 2709 
Q 3556 2584 3844 2322 
Q 4294 1919 4294 1288 
Q 4294 731 3903 320 
Q 3513 -91 2809 -91 
Q 2106 -91 1656 506 
L 1656 -1331 
L 538 -1331 
z
" transform="scale(0.015625)"/>
      <path id="DejaVuSans-Bold-31" d="M 750 831 
L 1813 831 
L 1813 3847 
L 722 3622 
L 722 4441 
L 1806 4666 
L 2950 4666 
L 2950 831 
L 4013 831 
L 4013 0 
L 750 0 
L 750 831 
z
" transform="scale(0.015625)"/>
      <path id="DejaVuSans-Bold-2d" d="M 347 2297 
L 2309 2297 
L 2309 1388 
L 347 1388 
L 347 2297 
z
" transform="scale(0.015625)"/>
      <path id="DejaVuSans-Bold-34" d="M 2356 3675 
L 1038 1722 
L 2356 1722 
L 2356 3675 
z
M 2156 4666 
L 3494 4666 
L 3494 1722 
L 4159 1722 
L 4159 850 
L 3494 850 
L 3494 0 
L 2356 0 
L 2356 850 
L 288 850 
L 288 1881 
L 2156 4666 
z
" transform="scale(0.015625)"/>
     </defs>
     <use xlink:href="#DejaVuSans-Bold-3b2"/>
     <use xlink:href="#DejaVuSans-Bold-31" transform="translate(71.582031 0)"/>
     <use xlink:href="#DejaVuSans-Bold-2d" transform="translate(141.162109 0)"/>
     <use xlink:href="#DejaVuSans-Bold-34" transform="translate(182.666016 0)"/>
    </g>
   </g>
   <g id="patch_9">
    <path d="M 367.366785 365.31 
Q 431.998937 365.31 493.276986 365.31 
" style="fill: none; stroke: #000000; stroke-width: 3; stroke-linecap: round"/>
    <path d="M 487.276986 362.31 
L 493.276986 365.31 
L 487.276986 368.31 
" style="fill: none; stroke: #000000; stroke-width: 3; stroke-linecap: round"/>
   </g>
   <g id="text_5">
    <!-- α1-3 -->
    <g transform="translate(414.544844 342.521125) scale(0.14 -0.14)">
     <defs>
      <path id="DejaVuSans-Bold-3b1" d="M 3006 3163 
L 3119 3500 
L 4088 3500 
L 3484 1697 
L 3569 1219 
Q 3659 703 3872 703 
L 4128 703 
L 4128 0 
L 3809 0 
Q 3313 0 3059 263 
Q 3003 322 2988 353 
Q 2838 163 2689 39 
Q 2541 -84 1763 -78 
Q 988 -72 648 400 
Q 309 872 309 1794 
Q 309 2713 663 3088 
Q 1109 3569 1966 3578 
Q 2688 3588 3006 3163 
z
M 2575 1841 
L 2481 2350 
Q 2394 2825 1981 2828 
Q 1772 2828 1598 2558 
Q 1425 2288 1425 1741 
Q 1425 1191 1581 944 
Q 1738 697 1969 691 
Q 2213 684 2363 1163 
L 2575 1841 
z
" transform="scale(0.015625)"/>
      <path id="DejaVuSans-Bold-33" d="M 2981 2516 
Q 3453 2394 3698 2092 
Q 3944 1791 3944 1325 
Q 3944 631 3412 270 
Q 2881 -91 1863 -91 
Q 1503 -91 1142 -33 
Q 781 25 428 141 
L 428 1069 
Q 766 900 1098 814 
Q 1431 728 1753 728 
Q 2231 728 2486 893 
Q 2741 1059 2741 1369 
Q 2741 1688 2480 1852 
Q 2219 2016 1709 2016 
L 1228 2016 
L 1228 2791 
L 1734 2791 
Q 2188 2791 2409 2933 
Q 2631 3075 2631 3366 
Q 2631 3634 2415 3781 
Q 2200 3928 1806 3928 
Q 1516 3928 1219 3862 
Q 922 3797 628 3669 
L 628 4550 
Q 984 4650 1334 4700 
Q 1684 4750 2022 4750 
Q 2931 4750 3382 4451 
Q 3834 4153 3834 3553 
Q 3834 3144 3618 2883 
Q 3403 2622 2981 2516 
z
" transform="scale(0.015625)"/>
     </defs>
     <use xlink:href="#DejaVuSans-Bold-3b1"/>
     <use xlink:href="#DejaVuSans-Bold-31" transform="translate(68.701172 0)"/>
     <use xlink:href="#DejaVuSans-Bold-2d" transform="translate(138.28125 0)"/>
     <use xlink:href="#DejaVuSans-Bold-33" transform="translate(179.785156 0)"/>
    </g>
   </g>
   <g id="patch_10">
    <path d="M 500.626785 365.31 
Q 565.258937 365.31 626.536986 365.31 
" style="fill: none; stroke: #000000; stroke-width: 3; stroke-linecap: round"/>
    <path d="M 620.536986 362.31 
L 626.536986 365.31 
L 620.536986 368.31 
" style="fill: none; stroke: #000000; stroke-width: 3; stroke-linecap: round"/>
   </g>
   <g id="text_6">
    <!-- β1-4 -->
    <g transform="translate(547.603594 342.616281) scale(0.14 -0.14)">
     <use xlink:href="#DejaVuSans-Bold-3b2"/>
     <use xlink:href="#DejaVuSans-Bold-31" transform="translate(71.582031 0)"/>
     <use xlink:href="#DejaVuSans-Bold-2d" transform="translate(141.162109 0)"/>
     <use xlink:href="#DejaVuSans-Bold-34" transform="translate(182.666016 0)"/>
    </g>
   </g>
   <g id="text_7">
    <!-- Pyr -->
    <g transform="translate(276.032588 257.463006) scale(0.12 -0.12)">
     <defs>
      <path id="DejaVuSans-Bold-50" d="M 588 4666 
L 2584 4666 
Q 3475 4666 3951 4270 
Q 4428 3875 4428 3144 
Q 4428 2409 3951 2014 
Q 3475 1619 2584 1619 
L 1791 1619 
L 1791 0 
L 588 0 
L 588 4666 
z
M 1791 3794 
L 1791 2491 
L 2456 2491 
Q 2806 2491 2997 2661 
Q 3188 2831 3188 3144 
Q 3188 3456 2997 3625 
Q 2806 3794 2456 3794 
L 1791 3794 
z
" transform="scale(0.015625)"/>
      <path id="DejaVuSans-Bold-79" d="M 78 3500 
L 1197 3500 
L 2138 1125 
L 2938 3500 
L 4056 3500 
L 2584 -331 
Q 2363 -916 2067 -1148 
Q 1772 -1381 1288 -1381 
L 641 -1381 
L 641 -647 
L 991 -647 
Q 1275 -647 1404 -556 
Q 1534 -466 1606 -231 
L 1638 -134 
L 78 3500 
z
" transform="scale(0.015625)"/>
     </defs>
     <use xlink:href="#DejaVuSans-Bold-50"/>
     <use xlink:href="#DejaVuSans-Bold-79" transform="translate(75.166016 0)"/>
     <use xlink:href="#DejaVuSans-Bold-72" transform="translate(140.351562 0)"/>
    </g>
   </g>
   <g id="text_8">
    <!-- K1 -->
    <g transform="translate(424.247813 20.16) scale(0.12 -0.12)">
     <defs>
      <path id="DejaVuSans-4b" d="M 628 4666 
L 1259 4666 
L 1259 2694 
L 3353 4666 
L 4166 4666 
L 1850 2491 
L 4331 0 
L 3500 0 
L 1259 2247 
L 1259 0 
L 628 0 
L 628 4666 
z
" transform="scale(0.015625)"/>
      <path id="DejaVuSans-31" d="M 794 531 
L 1825 531 
L 1825 4091 
L 703 3866 
L 703 4441 
L 1819 4666 
L 2450 4666 
L 2450 531 
L 3481 531 
L 3481 0 
L 794 0 
L 794 531 
z
" transform="scale(0.015625)"/>
     </defs>
     <use xlink:href="#DejaVuSans-4b"/>
     <use xlink:href="#DejaVuSans-31" transform="translate(65.576172 0)"/>
    </g>
   </g>
  </g>
 </g>
 <defs>
  <clipPath id="p14d5f488e2">
   <rect x="32.22" y="32.16" width="799.56" height="533.04"/>
  </clipPath>
 </defs>
</svg>
