<?xml version="1.0" encoding="utf-8" standalone="no"?>
<!DOCTYPE svg PUBLIC "-//W3C//DTD SVG 1.1//EN"
  "http://www.w3.org/Graphics/SVG/1.1/DTD/svg11.dtd">
<svg xmlns:xlink="http://www.w3.org/1999/xlink" width="864pt" height="576pt" viewBox="0 0 864 576" xmlns="http://www.w3.org/2000/svg" version="1.1">
 <metadata>
  <rdf:RDF xmlns:dc="http://purl.org/dc/elements/1.1/" xmlns:cc="http://creativecommons.org/ns#" xmlns:rdf="http://www.w3.org/1999/02/22-rdf-syntax-ns#">
   <cc:Work>
    <dc:type rdf:resource="http://purl.org/dc/dcmitype/StillImage"/>
    <dc:date>2026-03-04T13:44:29.989655</dc:date>
    <dc:format>image/svg+xml</dc:format>
    <dc:creator>
     <cc:Agent>
      <dc:title>Matplotlib v3.10.6, https://matplotlib.org/</dc:title>
     </cc:Agent>
    </dc:creator>
   </cc:Work>
  </rdf:RDF>
 </metadata>
 <defs>
  <style type="text/css">*{stroke-linejoin: round; stroke-linecap: butt}</style>
 </defs>
 <g id="figure_1">
  <g id="patch_1">
   <path d="M 0 576 
L 864 576 
L 864 0 
L 0 0 
z
" style="fill: #ffffff"/>
  </g>
  <g id="axes_1">
   <g id="patch_2">
    <path d="M 32.22 565.2 
L 831.78 565.2 
L 831.78 32.16 
L 32.22 32.16 
z
" style="fill: #ffffff"/>
   </g>
   <g id="patch_3">
    <path d="M 232.11 391.962 
C 239.178193 391.962 245.957843 389.153777 250.95581 384.15581 
C 255.953777 379.157843 258.762 372.378193 258.762 365.31 
C 258.762 358.241807 255.953777 351.462157 250.95581 346.46419 
C 245.957843 341.466223 239.178193 338.658 232.11 338.658 
C 225.041807 338.658 218.262157 341.466223 213.26419 346.46419 
C 208.266223 351.462157 205.458 358.241807 205.458 365.31 
C 205.458 372.378193 208.266223 379.157843 213.26419 384.15581 
C 218.262157 389.153777 225.041807 391.962 232.11 391.962 
z
" clip-path="url(#p9b7633d452)" style="fill: #ffbf00; stroke: #000000; stroke-width: 3; stroke-linejoin: miter"/>
   </g>
   <g id="patch_4">
    <path d="M 365.37 391.962 
C 372.438193 391.962 379.217843 389.153777 384.21581 384.15581 
C 389.213777 379.157843 392.022 372.378193 392.022 365.31 
C 392.022 358.241807 389.213777 351.462157 384.21581 346.46419 
C 379.217843 341.466223 372.438193 338.658 365.37 338.658 
C 358.301807 338.658 351.522157 341.466223 346.52419 346.46419 
C 341.526223 351.462157 338.718 358.241807 338.718 365.31 
C 338.718 372.378193 341.526223 379.157843 346.52419 384.15581 
C 351.522157 389.153777 358.301807 391.962 365.37 391.962 
z
" clip-path="url(#p9b7633d452)" style="fill: #3cb371; stroke: #000000; stroke-width: 3; stroke-linejoin: miter"/>
   </g>
   <g id="patch_5">
    <path d="M 498.63 391.962 
C 505.698193 391.962 512.477843 389.153777 517.47581 384.15581 
C 522.473777 379.157843 525.282 372.378193 525.282 365.31 
C 525.282 358.241807 522.473777 351.462157 517.47581 346.46419 
C 512.477843 341.466223 505.698193 338.658 498.63 338.658 
C 491.561807 338.658 484.782157 341.466223 479.78419 346.46419 
C 474.786223 351.462157 471.978 358.241807 471.978 365.31 
C 471.978 372.378193 474.786223 379.157843 479.78419 384.15581 
C 484.782157 389.153777 491.561807 391.962 498.63 391.962 
z
" clip-path="url(#p9b7633d452)" style="fill: #ffbf00; stroke: #000000; stroke-width: 3; stroke-linejoin: miter"/>
   </g>
   <g id="patch_6">
    <path d="M 285.414 258.702 
C 292.482193 258.702 299.261843 255.893777 304.25981 250.89581 
C 309.257777 245.897843 312.066 239.118193 312.066 232.05 
C 312.066 224.981807 309.257777 218.202157 304.25981 213.20419 
C 299.261843 208.206223 292.482193 205.398 285.414 205.398 
C 278.345807 205.398 271.566157 208.206223 266.56819 213.20419 
C 261.570223 218.202157 258.762 224.981807 258.762 232.05 
C 258.762 239.118193 261.570223 245.897843 266.56819 250.89581 
C 271.566157 255.893777 278.345807 258.702 285.414 258.702 
z
" clip-path="url(#p9b7633d452)" style="fill: #ffbf00; stroke: #000000; stroke-width: 3; stroke-linejoin: miter"/>
   </g>
   <g id="patch_7">
    <path d="M 285.414 238.713 
C 287.181048 238.713 288.875961 238.010944 290.125452 236.761452 
C 291.374944 235.511961 292.077 233.817048 292.077 232.05 
C 292.077 230.282952 291.374944 228.588039 290.125452 227.338548 
C 288.875961 226.089056 287.181048 225.387 285.414 225.387 
C 283.646952 225.387 281.952039 226.089056 280.702548 227.338548 
C 279.453056 228.588039 278.751 230.282952 278.751 232.05 
C 278.751 233.817048 279.453056 235.511961 280.702548 236.761452 
C 281.952039 238.010944 283.646952 238.713 285.414 238.713 
z
" clip-path="url(#p9b7633d452)" style="fill: #ffffff; stroke: #ffffff; stroke-width: 2; stroke-linejoin: miter"/>
   </g>
   <g id="patch_8">
    <path d="M 335.3865 154.379091 
C 337.742564 154.379091 340.002448 153.443017 341.668437 151.777028 
C 343.334426 150.111039 344.2705 147.851155 344.2705 145.495091 
C 344.2705 143.139027 343.334426 140.879143 341.668437 139.213154 
C 340.002448 137.547165 337.742564 136.611091 335.3865 136.611091 
C 333.030436 136.611091 330.770552 137.547165 329.104563 139.213154 
C 327.438574 140.879143 326.5025 143.139027 326.5025 145.495091 
C 326.5025 147.851155 327.438574 150.111039 329.104563 151.777028 
C 330.770552 153.443017 333.030436 154.379091 335.3865 154.379091 
z
" clip-path="url(#p9b7633d452)" style="fill: #6c757d; fill-opacity: 0.6; stroke: #000000; stroke-width: 1.5; stroke-linejoin: miter"/>
   </g>
   <g id="matplotlib.axis_1"/>
   <g id="matplotlib.axis_2"/>
   <g id="line2d_1">
    <path d="M 365.37 365.31 
" clip-path="url(#p9b7633d452)" style="fill: none; stroke: #000000; stroke-width: 1.5; stroke-linecap: square"/>
    <defs>
     <path id="mc48498e3f1" d="M 0 1.4 
C 0.371284 1.4 0.727412 1.252487 0.989949 0.989949 
C 1.252487 0.727412 1.4 0.371284 1.4 0 
C 1.4 -0.371284 1.252487 -0.727412 0.989949 -0.989949 
C 0.727412 -1.252487 0.371284 -1.4 0 -1.4 
C -0.371284 -1.4 -0.727412 -1.252487 -0.989949 -0.989949 
C -1.252487 -0.727412 -1.4 -0.371284 -1.4 0 
C -1.4 0.371284 -1.252487 0.727412 -0.989949 0.989949 
C -0.727412 1.252487 -0.371284 1.4 0 1.4 
z
" style="stroke: #000000"/>
    </defs>
    <g clip-path="url(#p9b7633d452)">
     <use xlink:href="#mc48498e3f1" x="365.37" y="365.31" style="stroke: #000000"/>
    </g>
   </g>
   <g id="line2d_2">
    <path d="M 298.74 208.968691 
L 335.3865 145.495091 
" clip-path="url(#p9b7633d452)" style="fill: none; stroke: #000000; stroke-width: 1.5; stroke-linecap: square"/>
   </g>
   <g id="text_1">
    <!-- Gal -->
    <g transform="translate(219.240938 409.262812) scale(0.14 -0.14)">
     <defs>
      <path id="DejaVuSans-Bold-47" d="M 4781 347 
Q 4331 128 3847 18 
Q 3363 -91 2847 -91 
Q 1681 -91 1000 561 
Q 319 1213 319 2328 
Q 319 3456 1012 4103 
Q 1706 4750 2913 4750 
Q 3378 4750 3804 4662 
Q 4231 4575 4609 4403 
L 4609 3438 
Q 4219 3659 3833 3768 
Q 3447 3878 3059 3878 
Q 2341 3878 1952 3476 
Q 1563 3075 1563 2328 
Q 1563 1588 1938 1184 
Q 2313 781 3003 781 
Q 3191 781 3352 804 
Q 3513 828 3641 878 
L 3641 1784 
L 2906 1784 
L 2906 2591 
L 4781 2591 
L 4781 347 
z
" transform="scale(0.015625)"/>
      <path id="DejaVuSans-Bold-61" d="M 2106 1575 
Q 1756 1575 1579 1456 
Q 1403 1338 1403 1106 
Q 1403 894 1545 773 
Q 1688 653 1941 653 
Q 2256 653 2472 879 
Q 2688 1106 2688 1447 
L 2688 1575 
L 2106 1575 
z
M 3816 1997 
L 3816 0 
L 2688 0 
L 2688 519 
Q 2463 200 2181 54 
Q 1900 -91 1497 -91 
Q 953 -91 614 226 
Q 275 544 275 1050 
Q 275 1666 698 1953 
Q 1122 2241 2028 2241 
L 2688 2241 
L 2688 2328 
Q 2688 2594 2478 2717 
Q 2269 2841 1825 2841 
Q 1466 2841 1156 2769 
Q 847 2697 581 2553 
L 581 3406 
Q 941 3494 1303 3539 
Q 1666 3584 2028 3584 
Q 2975 3584 3395 3211 
Q 3816 2838 3816 1997 
z
" transform="scale(0.015625)"/>
      <path id="DejaVuSans-Bold-6c" d="M 538 4863 
L 1656 4863 
L 1656 0 
L 538 0 
L 538 4863 
z
" transform="scale(0.015625)"/>
     </defs>
     <use xlink:href="#DejaVuSans-Bold-47"/>
     <use xlink:href="#DejaVuSans-Bold-61" transform="translate(82.080078 0)"/>
     <use xlink:href="#DejaVuSans-Bold-6c" transform="translate(149.560547 0)"/>
    </g>
   </g>
   <g id="text_2">
    <!-- Man -->
    <g transform="translate(348.696875 409.262812) scale(0.14 -0.14)">
     <defs>
      <path id="DejaVuSans-Bold-4d" d="M 588 4666 
L 2119 4666 
L 3181 2169 
L 4250 4666 
L 5778 4666 
L 5778 0 
L 4641 0 
L 4641 3413 
L 3566 897 
L 2803 897 
L 1728 3413 
L 1728 0 
L 588 0 
L 588 4666 
z
" transform="scale(0.015625)"/>
      <path id="DejaVuSans-Bold-6e" d="M 4056 2131 
L 4056 0 
L 2931 0 
L 2931 347 
L 2931 1631 
Q 2931 2084 2911 2256 
Q 2891 2428 2841 2509 
Q 2775 2619 2662 2680 
Q 2550 2741 2406 2741 
Q 2056 2741 1856 2470 
Q 1656 2200 1656 1722 
L 1656 0 
L 538 0 
L 538 3500 
L 1656 3500 
L 1656 2988 
Q 1909 3294 2193 3439 
Q 2478 3584 2822 3584 
Q 3428 3584 3742 3212 
Q 4056 2841 4056 2131 
z
" transform="scale(0.015625)"/>
     </defs>
     <use xlink:href="#DejaVuSans-Bold-4d"/>
     <use xlink:href="#DejaVuSans-Bold-61" transform="translate(99.511719 0)"/>
     <use xlink:href="#DejaVuSans-Bold-6e" transform="translate(166.992188 0)"/>
    </g>
   </g>
   <g id="text_3">
    <!-- Gal -->
    <g transform="translate(485.760938 409.262812) scale(0.14 -0.14)">
     <use xlink:href="#DejaVuSans-Bold-47"/>
     <use xlink:href="#DejaVuSans-Bold-61" transform="translate(82.080078 0)"/>
     <use xlink:href="#DejaVuSans-Bold-6c" transform="translate(149.560547 0)"/>
    </g>
   </g>
   <g id="patch_9">
    <path d="M 234.106785 365.31 
Q 298.738937 365.31 360.016986 365.31 
" style="fill: none; stroke: #000000; stroke-width: 3; stroke-linecap: round"/>
    <path d="M 354.016986 362.31 
L 360.016986 365.31 
L 354.016986 368.31 
" style="fill: none; stroke: #000000; stroke-width: 3; stroke-linecap: round"/>
   </g>
   <g id="text_4">
    <!-- α1-2 -->
    <g transform="translate(281.284844 342.521125) scale(0.14 -0.14)">
     <defs>
      <path id="DejaVuSans-Bold-3b1" d="M 3006 3163 
L 3119 3500 
L 4088 3500 
L 3484 1697 
L 3569 1219 
Q 3659 703 3872 703 
L 4128 703 
L 4128 0 
L 3809 0 
Q 3313 0 3059 263 
Q 3003 322 2988 353 
Q 2838 163 2689 39 
Q 2541 -84 1763 -78 
Q 988 -72 648 400 
Q 309 872 309 1794 
Q 309 2713 663 3088 
Q 1109 3569 1966 3578 
Q 2688 3588 3006 3163 
z
M 2575 1841 
L 2481 2350 
Q 2394 2825 1981 2828 
Q 1772 2828 1598 2558 
Q 1425 2288 1425 1741 
Q 1425 1191 1581 944 
Q 1738 697 1969 691 
Q 2213 684 2363 1163 
L 2575 1841 
z
" transform="scale(0.015625)"/>
      <path id="DejaVuSans-Bold-31" d="M 750 831 
L 1813 831 
L 1813 3847 
L 722 3622 
L 722 4441 
L 1806 4666 
L 2950 4666 
L 2950 831 
L 4013 831 
L 4013 0 
L 750 0 
L 750 831 
z
" transform="scale(0.015625)"/>
      <path id="DejaVuSans-Bold-2d" d="M 347 2297 
L 2309 2297 
L 2309 1388 
L 347 1388 
L 347 2297 
z
" transform="scale(0.015625)"/>
      <path id="DejaVuSans-Bold-32" d="M 1844 884 
L 3897 884 
L 3897 0 
L 506 0 
L 506 884 
L 2209 2388 
Q 2438 2594 2547 2791 
Q 2656 2988 2656 3200 
Q 2656 3528 2436 3728 
Q 2216 3928 1850 3928 
Q 1569 3928 1234 3808 
Q 900 3688 519 3450 
L 519 4475 
Q 925 4609 1322 4679 
Q 1719 4750 2100 4750 
Q 2938 4750 3402 4381 
Q 3866 4013 3866 3353 
Q 3866 2972 3669 2642 
Q 3472 2313 2841 1759 
L 1844 884 
z
" transform="scale(0.015625)"/>
     </defs>
     <use xlink:href="#DejaVuSans-Bold-3b1"/>
     <use xlink:href="#DejaVuSans-Bold-31" transform="translate(68.701172 0)"/>
     <use xlink:href="#DejaVuSans-Bold-2d" transform="translate(138.28125 0)"/>
     <use xlink:href="#DejaVuSans-Bold-32" transform="translate(179.785156 0)"/>
    </g>
   </g>
   <g id="patch_10">
    <path d="M 367.366785 365.31 
Q 431.998937 365.31 493.276986 365.31 
" style="fill: none; stroke: #000000; stroke-width: 3; stroke-linecap: round"/>
    <path d="M 487.276986 362.31 
L 493.276986 365.31 
L 487.276986 368.31 
" style="fill: none; stroke: #000000; stroke-width: 3; stroke-linecap: round"/>
   </g>
   <g id="text_5">
    <!-- α1-3 -->
    <g transform="translate(414.544844 342.521125) scale(0.14 -0.14)">
     <defs>
      <path id="DejaVuSans-Bold-33" d="M 2981 2516 
Q 3453 2394 3698 2092 
Q 3944 1791 3944 1325 
Q 3944 631 3412 270 
Q 2881 -91 1863 -91 
Q 1503 -91 1142 -33 
Q 781 25 428 141 
L 428 1069 
Q 766 900 1098 814 
Q 1431 728 1753 728 
Q 2231 728 2486 893 
Q 2741 1059 2741 1369 
Q 2741 1688 2480 1852 
Q 2219 2016 1709 2016 
L 1228 2016 
L 1228 2791 
L 1734 2791 
Q 2188 2791 2409 2933 
Q 2631 3075 2631 3366 
Q 2631 3634 2415 3781 
Q 2200 3928 1806 3928 
Q 1516 3928 1219 3862 
Q 922 3797 628 3669 
L 628 4550 
Q 984 4650 1334 4700 
Q 1684 4750 2022 4750 
Q 2931 4750 3382 4451 
Q 3834 4153 3834 3553 
Q 3834 3144 3618 2883 
Q 3403 2622 2981 2516 
z
" transform="scale(0.015625)"/>
     </defs>
     <use xlink:href="#DejaVuSans-Bold-3b1"/>
     <use xlink:href="#DejaVuSans-Bold-31" transform="translate(68.701172 0)"/>
     <use xlink:href="#DejaVuSans-Bold-2d" transform="translate(138.28125 0)"/>
     <use xlink:href="#DejaVuSans-Bold-33" transform="translate(179.785156 0)"/>
    </g>
   </g>
   <g id="patch_11">
    <path d="M 500.626785 365.31 
Q 565.258937 365.31 626.536986 365.31 
" style="fill: none; stroke: #000000; stroke-width: 3; stroke-linecap: round"/>
    <path d="M 620.536986 362.31 
L 626.536986 365.31 
L 620.536986 368.31 
" style="fill: none; stroke: #000000; stroke-width: 3; stroke-linecap: round"/>
   </g>
   <g id="text_6">
    <!-- α1-3 -->
    <g transform="translate(547.804844 342.521125) scale(0.14 -0.14)">
     <use xlink:href="#DejaVuSans-Bold-3b1"/>
     <use xlink:href="#DejaVuSans-Bold-31" transform="translate(68.701172 0)"/>
     <use xlink:href="#DejaVuSans-Bold-2d" transform="translate(138.28125 0)"/>
     <use xlink:href="#DejaVuSans-Bold-33" transform="translate(179.785156 0)"/>
    </g>
   </g>
   <g id="patch_12">
    <path d="M 286.441267 233.762111 
Q 325.391373 298.678955 362.615808 360.71968 
" style="fill: none; stroke: #000000; stroke-width: 3; stroke-linecap: round"/>
    <path d="M 362.101312 354.031235 
L 362.615808 360.71968 
L 356.956355 357.11821 
" style="fill: none; stroke: #000000; stroke-width: 3; stroke-linecap: round"/>
   </g>
   <g id="text_7">
    <!-- α1-3 -->
    <g transform="translate(329.096525 276.10125) rotate(-300.963757) scale(0.14 -0.14)">
     <use xlink:href="#DejaVuSans-Bold-3b1"/>
     <use xlink:href="#DejaVuSans-Bold-31" transform="translate(68.701172 0)"/>
     <use xlink:href="#DejaVuSans-Bold-2d" transform="translate(138.28125 0)"/>
     <use xlink:href="#DejaVuSans-Bold-33" transform="translate(179.785156 0)"/>
    </g>
   </g>
   <g id="text_8">
    <!-- GalA -->
    <g transform="translate(215.526188 235.913125) scale(0.14 -0.14)">
     <defs>
      <path id="DejaVuSans-Bold-41" d="M 3419 850 
L 1538 850 
L 1241 0 
L 31 0 
L 1759 4666 
L 3194 4666 
L 4922 0 
L 3713 0 
L 3419 850 
z
M 1838 1716 
L 3116 1716 
L 2478 3572 
L 1838 1716 
z
" transform="scale(0.015625)"/>
     </defs>
     <use xlink:href="#DejaVuSans-Bold-47"/>
     <use xlink:href="#DejaVuSans-Bold-61" transform="translate(82.080078 0)"/>
     <use xlink:href="#DejaVuSans-Bold-6c" transform="translate(149.560547 0)"/>
     <use xlink:href="#DejaVuSans-Bold-41" transform="translate(183.837891 0)"/>
    </g>
   </g>
   <g id="text_9">
    <!-- Ac -->
    <g transform="translate(332.516588 124.296756) scale(0.12 -0.12)">
     <defs>
      <path id="DejaVuSans-Bold-63" d="M 3366 3391 
L 3366 2478 
Q 3138 2634 2908 2709 
Q 2678 2784 2431 2784 
Q 1963 2784 1702 2511 
Q 1441 2238 1441 1747 
Q 1441 1256 1702 982 
Q 1963 709 2431 709 
Q 2694 709 2930 787 
Q 3166 866 3366 1019 
L 3366 103 
Q 3103 6 2833 -42 
Q 2563 -91 2291 -91 
Q 1344 -91 809 395 
Q 275 881 275 1747 
Q 275 2613 809 3098 
Q 1344 3584 2291 3584 
Q 2566 3584 2833 3536 
Q 3100 3488 3366 3391 
z
" transform="scale(0.015625)"/>
     </defs>
     <use xlink:href="#DejaVuSans-Bold-41"/>
     <use xlink:href="#DejaVuSans-Bold-63" transform="translate(77.392578 0)"/>
    </g>
   </g>
   <g id="text_10">
    <!-- K49 -->
    <g transform="translate(420.430313 20.16) scale(0.12 -0.12)">
     <defs>
      <path id="DejaVuSans-4b" d="M 628 4666 
L 1259 4666 
L 1259 2694 
L 3353 4666 
L 4166 4666 
L 1850 2491 
L 4331 0 
L 3500 0 
L 1259 2247 
L 1259 0 
L 628 0 
L 628 4666 
z
" transform="scale(0.015625)"/>
      <path id="DejaVuSans-34" d="M 2419 4116 
L 825 1625 
L 2419 1625 
L 2419 4116 
z
M 2253 4666 
L 3047 4666 
L 3047 1625 
L 3713 1625 
L 3713 1100 
L 3047 1100 
L 3047 0 
L 2419 0 
L 2419 1100 
L 313 1100 
L 313 1709 
L 2253 4666 
z
" transform="scale(0.015625)"/>
      <path id="DejaVuSans-39" d="M 703 97 
L 703 672 
Q 941 559 1184 500 
Q 1428 441 1663 441 
Q 2288 441 2617 861 
Q 2947 1281 2994 2138 
Q 2813 1869 2534 1725 
Q 2256 1581 1919 1581 
Q 1219 1581 811 2004 
Q 403 2428 403 3163 
Q 403 3881 828 4315 
Q 1253 4750 1959 4750 
Q 2769 4750 3195 4129 
Q 3622 3509 3622 2328 
Q 3622 1225 3098 567 
Q 2575 -91 1691 -91 
Q 1453 -91 1209 -44 
Q 966 3 703 97 
z
M 1959 2075 
Q 2384 2075 2632 2365 
Q 2881 2656 2881 3163 
Q 2881 3666 2632 3958 
Q 2384 4250 1959 4250 
Q 1534 4250 1286 3958 
Q 1038 3666 1038 3163 
Q 1038 2656 1286 2365 
Q 1534 2075 1959 2075 
z
" transform="scale(0.015625)"/>
     </defs>
     <use xlink:href="#DejaVuSans-4b"/>
     <use xlink:href="#DejaVuSans-34" transform="translate(65.576172 0)"/>
     <use xlink:href="#DejaVuSans-39" transform="translate(129.199219 0)"/>
    </g>
   </g>
  </g>
 </g>
 <defs>
  <clipPath id="p9b7633d452">
   <rect x="32.22" y="32.16" width="799.56" height="533.04"/>
  </clipPath>
 </defs>
</svg>
