<?xml version="1.0" encoding="utf-8" standalone="no"?>
<!DOCTYPE svg PUBLIC "-//W3C//DTD SVG 1.1//EN"
  "http://www.w3.org/Graphics/SVG/1.1/DTD/svg11.dtd">
<svg xmlns:xlink="http://www.w3.org/1999/xlink" width="864pt" height="576pt" viewBox="0 0 864 576" xmlns="http://www.w3.org/2000/svg" version="1.1">
 <metadata>
  <rdf:RDF xmlns:dc="http://purl.org/dc/elements/1.1/" xmlns:cc="http://creativecommons.org/ns#" xmlns:rdf="http://www.w3.org/1999/02/22-rdf-syntax-ns#">
   <cc:Work>
    <dc:type rdf:resource="http://purl.org/dc/dcmitype/StillImage"/>
    <dc:date>2026-03-04T13:44:38.146147</dc:date>
    <dc:format>image/svg+xml</dc:format>
    <dc:creator>
     <cc:Agent>
      <dc:title>Matplotlib v3.10.6, https://matplotlib.org/</dc:title>
     </cc:Agent>
    </dc:creator>
   </cc:Work>
  </rdf:RDF>
 </metadata>
 <defs>
  <style type="text/css">*{stroke-linejoin: round; stroke-linecap: butt}</style>
 </defs>
 <g id="figure_1">
  <g id="patch_1">
   <path d="M 0 576 
L 864 576 
L 864 0 
L 0 0 
z
" style="fill: #ffffff"/>
  </g>
  <g id="axes_1">
   <g id="patch_2">
    <path d="M 31.95 565.2 
L 832.05 565.2 
L 832.05 31.8 
L 31.95 31.8 
z
" style="fill: #ffffff"/>
   </g>
   <g id="patch_3">
    <path d="M 231.975 391.845 
C 239.047967 391.845 245.832195 389.034881 250.833538 384.033538 
C 255.834881 379.032195 258.645 372.247967 258.645 365.175 
C 258.645 358.102033 255.834881 351.317805 250.833538 346.316462 
C 245.832195 341.315119 239.047967 338.505 231.975 338.505 
C 224.902033 338.505 218.117805 341.315119 213.116462 346.316462 
C 208.115119 351.317805 205.305 358.102033 205.305 365.175 
C 205.305 372.247967 208.115119 379.032195 213.116462 384.033538 
C 218.117805 389.034881 224.902033 391.845 231.975 391.845 
z
" clip-path="url(#p28166f0ef5)" style="fill: #ffbf00; stroke: #000000; stroke-width: 3; stroke-linejoin: miter"/>
   </g>
   <g id="patch_4">
    <path d="M 365.325 391.845 
C 372.397967 391.845 379.182195 389.034881 384.183538 384.033538 
C 389.184881 379.032195 391.995 372.247967 391.995 365.175 
C 391.995 358.102033 389.184881 351.317805 384.183538 346.316462 
C 379.182195 341.315119 372.397967 338.505 365.325 338.505 
C 358.252033 338.505 351.467805 341.315119 346.466462 346.316462 
C 341.465119 351.317805 338.655 358.102033 338.655 365.175 
C 338.655 372.247967 341.465119 379.032195 346.466462 384.033538 
C 351.467805 389.034881 358.252033 391.845 365.325 391.845 
z
" clip-path="url(#p28166f0ef5)" style="fill: #ffbf00; stroke: #000000; stroke-width: 3; stroke-linejoin: miter"/>
   </g>
   <g id="patch_5">
    <path d="M 498.675 391.845 
C 505.747967 391.845 512.532195 389.034881 517.533538 384.033538 
C 522.534881 379.032195 525.345 372.247967 525.345 365.175 
C 525.345 358.102033 522.534881 351.317805 517.533538 346.316462 
C 512.532195 341.315119 505.747967 338.505 498.675 338.505 
C 491.602033 338.505 484.817805 341.315119 479.816462 346.316462 
C 474.815119 351.317805 472.005 358.102033 472.005 365.175 
C 472.005 372.247967 474.815119 379.032195 479.816462 384.033538 
C 484.817805 389.034881 491.602033 391.845 498.675 391.845 
z
" clip-path="url(#p28166f0ef5)" style="fill: #4ea3ff; stroke: #000000; stroke-width: 3; stroke-linejoin: miter"/>
   </g>
   <g id="patch_6">
    <path d="M 151.965 258.495 
C 159.037967 258.495 165.822195 255.684881 170.823538 250.683538 
C 175.824881 245.682195 178.635 238.897967 178.635 231.825 
C 178.635 224.752033 175.824881 217.967805 170.823538 212.966462 
C 165.822195 207.965119 159.037967 205.155 151.965 205.155 
C 144.892033 205.155 138.107805 207.965119 133.106462 212.966462 
C 128.105119 217.967805 125.295 224.752033 125.295 231.825 
C 125.295 238.897967 128.105119 245.682195 133.106462 250.683538 
C 138.107805 255.684881 144.892033 258.495 151.965 258.495 
z
" clip-path="url(#p28166f0ef5)" style="fill: #4ea3ff; stroke: #000000; stroke-width: 3; stroke-linejoin: miter"/>
   </g>
   <g id="patch_7">
    <path d="M 151.965 238.4925 
C 153.733242 238.4925 155.429299 237.78997 156.679634 236.539634 
C 157.92997 235.289299 158.6325 233.593242 158.6325 231.825 
C 158.6325 230.056758 157.92997 228.360701 156.679634 227.110366 
C 155.429299 225.86003 153.733242 225.1575 151.965 225.1575 
C 150.196758 225.1575 148.500701 225.86003 147.250366 227.110366 
C 146.00003 228.360701 145.2975 230.056758 145.2975 231.825 
C 145.2975 233.593242 146.00003 235.289299 147.250366 236.539634 
C 148.500701 237.78997 150.196758 238.4925 151.965 238.4925 
z
" clip-path="url(#p28166f0ef5)" style="fill: #ffffff; stroke: #ffffff; stroke-width: 2; stroke-linejoin: miter"/>
   </g>
   <g id="patch_8">
    <path d="M 311.985 258.495 
C 319.057967 258.495 325.842195 255.684881 330.843538 250.683538 
C 335.844881 245.682195 338.655 238.897967 338.655 231.825 
C 338.655 224.752033 335.844881 217.967805 330.843538 212.966462 
C 325.842195 207.965119 319.057967 205.155 311.985 205.155 
C 304.912033 205.155 298.127805 207.965119 293.126462 212.966462 
C 288.125119 217.967805 285.315 224.752033 285.315 231.825 
C 285.315 238.897967 288.125119 245.682195 293.126462 250.683538 
C 298.127805 255.684881 304.912033 258.495 311.985 258.495 
z
" clip-path="url(#p28166f0ef5)" style="fill: #ffbf00; stroke: #000000; stroke-width: 3; stroke-linejoin: miter"/>
   </g>
   <g id="matplotlib.axis_1"/>
   <g id="matplotlib.axis_2"/>
   <g id="line2d_1">
    <path d="M 231.975 365.175 
" clip-path="url(#p28166f0ef5)" style="fill: none; stroke: #000000; stroke-width: 1.5; stroke-linecap: square"/>
    <defs>
     <path id="m6c0aa14b78" d="M 0 1.4 
C 0.371284 1.4 0.727412 1.252487 0.989949 0.989949 
C 1.252487 0.727412 1.4 0.371284 1.4 0 
C 1.4 -0.371284 1.252487 -0.727412 0.989949 -0.989949 
C 0.727412 -1.252487 0.371284 -1.4 0 -1.4 
C -0.371284 -1.4 -0.727412 -1.252487 -0.989949 -0.989949 
C -1.252487 -0.727412 -1.4 -0.371284 -1.4 0 
C -1.4 0.371284 -1.252487 0.727412 -0.989949 0.989949 
C -0.727412 1.252487 -0.371284 1.4 0 1.4 
z
" style="stroke: #000000"/>
    </defs>
    <g clip-path="url(#p28166f0ef5)">
     <use xlink:href="#m6c0aa14b78" x="231.975" y="365.175" style="stroke: #000000"/>
    </g>
   </g>
   <g id="line2d_2">
    <path d="M 231.975 365.175 
" clip-path="url(#p28166f0ef5)" style="fill: none; stroke: #000000; stroke-width: 1.5; stroke-linecap: square"/>
    <g clip-path="url(#p28166f0ef5)">
     <use xlink:href="#m6c0aa14b78" x="231.975" y="365.175" style="stroke: #000000"/>
    </g>
   </g>
   <g id="text_1">
    <!-- Gal -->
    <g transform="translate(219.105938 409.150313) scale(0.14 -0.14)">
     <defs>
      <path id="DejaVuSans-Bold-47" d="M 4781 347 
Q 4331 128 3847 18 
Q 3363 -91 2847 -91 
Q 1681 -91 1000 561 
Q 319 1213 319 2328 
Q 319 3456 1012 4103 
Q 1706 4750 2913 4750 
Q 3378 4750 3804 4662 
Q 4231 4575 4609 4403 
L 4609 3438 
Q 4219 3659 3833 3768 
Q 3447 3878 3059 3878 
Q 2341 3878 1952 3476 
Q 1563 3075 1563 2328 
Q 1563 1588 1938 1184 
Q 2313 781 3003 781 
Q 3191 781 3352 804 
Q 3513 828 3641 878 
L 3641 1784 
L 2906 1784 
L 2906 2591 
L 4781 2591 
L 4781 347 
z
" transform="scale(0.015625)"/>
      <path id="DejaVuSans-Bold-61" d="M 2106 1575 
Q 1756 1575 1579 1456 
Q 1403 1338 1403 1106 
Q 1403 894 1545 773 
Q 1688 653 1941 653 
Q 2256 653 2472 879 
Q 2688 1106 2688 1447 
L 2688 1575 
L 2106 1575 
z
M 3816 1997 
L 3816 0 
L 2688 0 
L 2688 519 
Q 2463 200 2181 54 
Q 1900 -91 1497 -91 
Q 953 -91 614 226 
Q 275 544 275 1050 
Q 275 1666 698 1953 
Q 1122 2241 2028 2241 
L 2688 2241 
L 2688 2328 
Q 2688 2594 2478 2717 
Q 2269 2841 1825 2841 
Q 1466 2841 1156 2769 
Q 847 2697 581 2553 
L 581 3406 
Q 941 3494 1303 3539 
Q 1666 3584 2028 3584 
Q 2975 3584 3395 3211 
Q 3816 2838 3816 1997 
z
" transform="scale(0.015625)"/>
      <path id="DejaVuSans-Bold-6c" d="M 538 4863 
L 1656 4863 
L 1656 0 
L 538 0 
L 538 4863 
z
" transform="scale(0.015625)"/>
     </defs>
     <use xlink:href="#DejaVuSans-Bold-47"/>
     <use xlink:href="#DejaVuSans-Bold-61" transform="translate(82.080078 0)"/>
     <use xlink:href="#DejaVuSans-Bold-6c" transform="translate(149.560547 0)"/>
    </g>
   </g>
   <g id="text_2">
    <!-- Gal -->
    <g transform="translate(352.455938 409.150313) scale(0.14 -0.14)">
     <use xlink:href="#DejaVuSans-Bold-47"/>
     <use xlink:href="#DejaVuSans-Bold-61" transform="translate(82.080078 0)"/>
     <use xlink:href="#DejaVuSans-Bold-6c" transform="translate(149.560547 0)"/>
    </g>
   </g>
   <g id="text_3">
    <!-- Glc -->
    <g transform="translate(486.380156 409.150313) scale(0.14 -0.14)">
     <defs>
      <path id="DejaVuSans-Bold-63" d="M 3366 3391 
L 3366 2478 
Q 3138 2634 2908 2709 
Q 2678 2784 2431 2784 
Q 1963 2784 1702 2511 
Q 1441 2238 1441 1747 
Q 1441 1256 1702 982 
Q 1963 709 2431 709 
Q 2694 709 2930 787 
Q 3166 866 3366 1019 
L 3366 103 
Q 3103 6 2833 -42 
Q 2563 -91 2291 -91 
Q 1344 -91 809 395 
Q 275 881 275 1747 
Q 275 2613 809 3098 
Q 1344 3584 2291 3584 
Q 2566 3584 2833 3536 
Q 3100 3488 3366 3391 
z
" transform="scale(0.015625)"/>
     </defs>
     <use xlink:href="#DejaVuSans-Bold-47"/>
     <use xlink:href="#DejaVuSans-Bold-6c" transform="translate(82.080078 0)"/>
     <use xlink:href="#DejaVuSans-Bold-63" transform="translate(116.357422 0)"/>
    </g>
   </g>
   <g id="patch_9">
    <path d="M 233.973134 365.175 
Q 298.648936 365.175 359.970636 365.175 
" style="fill: none; stroke: #000000; stroke-width: 3; stroke-linecap: round"/>
    <path d="M 353.970636 362.175 
L 359.970636 365.175 
L 353.970636 368.175 
" style="fill: none; stroke: #000000; stroke-width: 3; stroke-linecap: round"/>
   </g>
   <g id="text_4">
    <!-- β1-3 -->
    <g transform="translate(280.993594 342.463281) scale(0.14 -0.14)">
     <defs>
      <path id="DejaVuSans-Bold-3b2" d="M 2575 3038 
Q 2772 3309 2772 3503 
Q 2772 3769 2648 3948 
Q 2525 4128 2241 4128 
Q 1900 4128 1778 3864 
Q 1656 3600 1656 3103 
L 1656 1747 
Q 1656 1250 1848 986 
Q 2041 722 2400 722 
Q 2800 722 2953 934 
Q 3106 1147 3106 1275 
Q 3106 1722 2738 1988 
Q 2538 2122 1988 2134 
L 1988 2847 
Q 2497 2925 2575 3038 
z
M 538 -1331 
L 538 3044 
Q 538 3922 969 4369 
Q 1325 4741 1672 4845 
Q 2019 4950 2259 4950 
Q 2500 4947 2538 4941 
Q 3178 4841 3538 4438 
Q 3788 4163 3788 3600 
Q 3788 3313 3616 3053 
Q 3406 2734 3094 2709 
Q 3556 2584 3844 2322 
Q 4294 1919 4294 1288 
Q 4294 731 3903 320 
Q 3513 -91 2809 -91 
Q 2106 -91 1656 506 
L 1656 -1331 
L 538 -1331 
z
" transform="scale(0.015625)"/>
      <path id="DejaVuSans-Bold-31" d="M 750 831 
L 1813 831 
L 1813 3847 
L 722 3622 
L 722 4441 
L 1806 4666 
L 2950 4666 
L 2950 831 
L 4013 831 
L 4013 0 
L 750 0 
L 750 831 
z
" transform="scale(0.015625)"/>
      <path id="DejaVuSans-Bold-2d" d="M 347 2297 
L 2309 2297 
L 2309 1388 
L 347 1388 
L 347 2297 
z
" transform="scale(0.015625)"/>
      <path id="DejaVuSans-Bold-33" d="M 2981 2516 
Q 3453 2394 3698 2092 
Q 3944 1791 3944 1325 
Q 3944 631 3412 270 
Q 2881 -91 1863 -91 
Q 1503 -91 1142 -33 
Q 781 25 428 141 
L 428 1069 
Q 766 900 1098 814 
Q 1431 728 1753 728 
Q 2231 728 2486 893 
Q 2741 1059 2741 1369 
Q 2741 1688 2480 1852 
Q 2219 2016 1709 2016 
L 1228 2016 
L 1228 2791 
L 1734 2791 
Q 2188 2791 2409 2933 
Q 2631 3075 2631 3366 
Q 2631 3634 2415 3781 
Q 2200 3928 1806 3928 
Q 1516 3928 1219 3862 
Q 922 3797 628 3669 
L 628 4550 
Q 984 4650 1334 4700 
Q 1684 4750 2022 4750 
Q 2931 4750 3382 4451 
Q 3834 4153 3834 3553 
Q 3834 3144 3618 2883 
Q 3403 2622 2981 2516 
z
" transform="scale(0.015625)"/>
     </defs>
     <use xlink:href="#DejaVuSans-Bold-3b2"/>
     <use xlink:href="#DejaVuSans-Bold-31" transform="translate(71.582031 0)"/>
     <use xlink:href="#DejaVuSans-Bold-2d" transform="translate(141.162109 0)"/>
     <use xlink:href="#DejaVuSans-Bold-33" transform="translate(182.666016 0)"/>
    </g>
   </g>
   <g id="patch_10">
    <path d="M 367.323134 365.175 
Q 431.998936 365.175 493.320636 365.175 
" style="fill: none; stroke: #000000; stroke-width: 3; stroke-linecap: round"/>
    <path d="M 487.320636 362.175 
L 493.320636 365.175 
L 487.320636 368.175 
" style="fill: none; stroke: #000000; stroke-width: 3; stroke-linecap: round"/>
   </g>
   <g id="text_5">
    <!-- α1-3 -->
    <g transform="translate(414.544844 342.368125) scale(0.14 -0.14)">
     <defs>
      <path id="DejaVuSans-Bold-3b1" d="M 3006 3163 
L 3119 3500 
L 4088 3500 
L 3484 1697 
L 3569 1219 
Q 3659 703 3872 703 
L 4128 703 
L 4128 0 
L 3809 0 
Q 3313 0 3059 263 
Q 3003 322 2988 353 
Q 2838 163 2689 39 
Q 2541 -84 1763 -78 
Q 988 -72 648 400 
Q 309 872 309 1794 
Q 309 2713 663 3088 
Q 1109 3569 1966 3578 
Q 2688 3588 3006 3163 
z
M 2575 1841 
L 2481 2350 
Q 2394 2825 1981 2828 
Q 1772 2828 1598 2558 
Q 1425 2288 1425 1741 
Q 1425 1191 1581 944 
Q 1738 697 1969 691 
Q 2213 684 2363 1163 
L 2575 1841 
z
" transform="scale(0.015625)"/>
     </defs>
     <use xlink:href="#DejaVuSans-Bold-3b1"/>
     <use xlink:href="#DejaVuSans-Bold-31" transform="translate(68.701172 0)"/>
     <use xlink:href="#DejaVuSans-Bold-2d" transform="translate(138.28125 0)"/>
     <use xlink:href="#DejaVuSans-Bold-33" transform="translate(179.785156 0)"/>
    </g>
   </g>
   <g id="patch_11">
    <path d="M 500.673134 365.175 
Q 565.348936 365.175 626.670636 365.175 
" style="fill: none; stroke: #000000; stroke-width: 3; stroke-linecap: round"/>
    <path d="M 620.670636 362.175 
L 626.670636 365.175 
L 620.670636 368.175 
" style="fill: none; stroke: #000000; stroke-width: 3; stroke-linecap: round"/>
   </g>
   <g id="text_6">
    <!-- β1-3 -->
    <g transform="translate(547.693594 342.463281) scale(0.14 -0.14)">
     <use xlink:href="#DejaVuSans-Bold-3b2"/>
     <use xlink:href="#DejaVuSans-Bold-31" transform="translate(71.582031 0)"/>
     <use xlink:href="#DejaVuSans-Bold-2d" transform="translate(141.162109 0)"/>
     <use xlink:href="#DejaVuSans-Bold-33" transform="translate(182.666016 0)"/>
    </g>
   </g>
   <g id="patch_12">
    <path d="M 152.992961 233.538268 
Q 191.969373 298.498954 229.220113 360.583522 
" style="fill: none; stroke: #000000; stroke-width: 3; stroke-linecap: round"/>
    <path d="M 228.705618 353.895077 
L 229.220113 360.583522 
L 223.56066 356.982052 
" style="fill: none; stroke: #000000; stroke-width: 3; stroke-linecap: round"/>
   </g>
   <g id="text_7">
    <!-- β1-4 -->
    <g transform="translate(195.500191 275.791154) rotate(-300.963757) scale(0.14 -0.14)">
     <defs>
      <path id="DejaVuSans-Bold-34" d="M 2356 3675 
L 1038 1722 
L 2356 1722 
L 2356 3675 
z
M 2156 4666 
L 3494 4666 
L 3494 1722 
L 4159 1722 
L 4159 850 
L 3494 850 
L 3494 0 
L 2356 0 
L 2356 850 
L 288 850 
L 288 1881 
L 2156 4666 
z
" transform="scale(0.015625)"/>
     </defs>
     <use xlink:href="#DejaVuSans-Bold-3b2"/>
     <use xlink:href="#DejaVuSans-Bold-31" transform="translate(71.582031 0)"/>
     <use xlink:href="#DejaVuSans-Bold-2d" transform="translate(141.162109 0)"/>
     <use xlink:href="#DejaVuSans-Bold-34" transform="translate(182.666016 0)"/>
    </g>
   </g>
   <g id="text_8">
    <!-- GlcA -->
    <g transform="translate(83.203125 235.688125) scale(0.14 -0.14)">
     <defs>
      <path id="DejaVuSans-Bold-41" d="M 3419 850 
L 1538 850 
L 1241 0 
L 31 0 
L 1759 4666 
L 3194 4666 
L 4922 0 
L 3713 0 
L 3419 850 
z
M 1838 1716 
L 3116 1716 
L 2478 3572 
L 1838 1716 
z
" transform="scale(0.015625)"/>
     </defs>
     <use xlink:href="#DejaVuSans-Bold-47"/>
     <use xlink:href="#DejaVuSans-Bold-6c" transform="translate(82.080078 0)"/>
     <use xlink:href="#DejaVuSans-Bold-63" transform="translate(116.357422 0)"/>
     <use xlink:href="#DejaVuSans-Bold-41" transform="translate(175.634766 0)"/>
    </g>
   </g>
   <g id="patch_13">
    <path d="M 310.957039 233.538268 
Q 271.980627 298.498954 234.729887 360.583522 
" style="fill: none; stroke: #000000; stroke-width: 3; stroke-linecap: round"/>
    <path d="M 240.38934 356.982052 
L 234.729887 360.583522 
L 235.244382 353.895077 
" style="fill: none; stroke: #000000; stroke-width: 3; stroke-linecap: round"/>
   </g>
   <g id="text_9">
    <!-- α1-2 -->
    <g transform="translate(250.303463 305.850113) rotate(-59.036243) scale(0.14 -0.14)">
     <defs>
      <path id="DejaVuSans-Bold-32" d="M 1844 884 
L 3897 884 
L 3897 0 
L 506 0 
L 506 884 
L 2209 2388 
Q 2438 2594 2547 2791 
Q 2656 2988 2656 3200 
Q 2656 3528 2436 3728 
Q 2216 3928 1850 3928 
Q 1569 3928 1234 3808 
Q 900 3688 519 3450 
L 519 4475 
Q 925 4609 1322 4679 
Q 1719 4750 2100 4750 
Q 2938 4750 3402 4381 
Q 3866 4013 3866 3353 
Q 3866 2972 3669 2642 
Q 3472 2313 2841 1759 
L 1844 884 
z
" transform="scale(0.015625)"/>
     </defs>
     <use xlink:href="#DejaVuSans-Bold-3b1"/>
     <use xlink:href="#DejaVuSans-Bold-31" transform="translate(68.701172 0)"/>
     <use xlink:href="#DejaVuSans-Bold-2d" transform="translate(138.28125 0)"/>
     <use xlink:href="#DejaVuSans-Bold-32" transform="translate(179.785156 0)"/>
    </g>
   </g>
   <g id="text_10">
    <!-- Gal -->
    <g transform="translate(252.909375 235.688125) scale(0.14 -0.14)">
     <use xlink:href="#DejaVuSans-Bold-47"/>
     <use xlink:href="#DejaVuSans-Bold-61" transform="translate(82.080078 0)"/>
     <use xlink:href="#DejaVuSans-Bold-6c" transform="translate(149.560547 0)"/>
    </g>
   </g>
   <g id="text_11">
    <!-- K8_STRAIN_A4 -->
    <g transform="translate(388.56 19.8) scale(0.12 -0.12)">
     <defs>
      <path id="DejaVuSans-4b" d="M 628 4666 
L 1259 4666 
L 1259 2694 
L 3353 4666 
L 4166 4666 
L 1850 2491 
L 4331 0 
L 3500 0 
L 1259 2247 
L 1259 0 
L 628 0 
L 628 4666 
z
" transform="scale(0.015625)"/>
      <path id="DejaVuSans-38" d="M 2034 2216 
Q 1584 2216 1326 1975 
Q 1069 1734 1069 1313 
Q 1069 891 1326 650 
Q 1584 409 2034 409 
Q 2484 409 2743 651 
Q 3003 894 3003 1313 
Q 3003 1734 2745 1975 
Q 2488 2216 2034 2216 
z
M 1403 2484 
Q 997 2584 770 2862 
Q 544 3141 544 3541 
Q 544 4100 942 4425 
Q 1341 4750 2034 4750 
Q 2731 4750 3128 4425 
Q 3525 4100 3525 3541 
Q 3525 3141 3298 2862 
Q 3072 2584 2669 2484 
Q 3125 2378 3379 2068 
Q 3634 1759 3634 1313 
Q 3634 634 3220 271 
Q 2806 -91 2034 -91 
Q 1263 -91 848 271 
Q 434 634 434 1313 
Q 434 1759 690 2068 
Q 947 2378 1403 2484 
z
M 1172 3481 
Q 1172 3119 1398 2916 
Q 1625 2713 2034 2713 
Q 2441 2713 2670 2916 
Q 2900 3119 2900 3481 
Q 2900 3844 2670 4047 
Q 2441 4250 2034 4250 
Q 1625 4250 1398 4047 
Q 1172 3844 1172 3481 
z
" transform="scale(0.015625)"/>
      <path id="DejaVuSans-5f" d="M 3263 -1063 
L 3263 -1509 
L -63 -1509 
L -63 -1063 
L 3263 -1063 
z
" transform="scale(0.015625)"/>
      <path id="DejaVuSans-53" d="M 3425 4513 
L 3425 3897 
Q 3066 4069 2747 4153 
Q 2428 4238 2131 4238 
Q 1616 4238 1336 4038 
Q 1056 3838 1056 3469 
Q 1056 3159 1242 3001 
Q 1428 2844 1947 2747 
L 2328 2669 
Q 3034 2534 3370 2195 
Q 3706 1856 3706 1288 
Q 3706 609 3251 259 
Q 2797 -91 1919 -91 
Q 1588 -91 1214 -16 
Q 841 59 441 206 
L 441 856 
Q 825 641 1194 531 
Q 1563 422 1919 422 
Q 2459 422 2753 634 
Q 3047 847 3047 1241 
Q 3047 1584 2836 1778 
Q 2625 1972 2144 2069 
L 1759 2144 
Q 1053 2284 737 2584 
Q 422 2884 422 3419 
Q 422 4038 858 4394 
Q 1294 4750 2059 4750 
Q 2388 4750 2728 4690 
Q 3069 4631 3425 4513 
z
" transform="scale(0.015625)"/>
      <path id="DejaVuSans-54" d="M -19 4666 
L 3928 4666 
L 3928 4134 
L 2272 4134 
L 2272 0 
L 1638 0 
L 1638 4134 
L -19 4134 
L -19 4666 
z
" transform="scale(0.015625)"/>
      <path id="DejaVuSans-52" d="M 2841 2188 
Q 3044 2119 3236 1894 
Q 3428 1669 3622 1275 
L 4263 0 
L 3584 0 
L 2988 1197 
Q 2756 1666 2539 1819 
Q 2322 1972 1947 1972 
L 1259 1972 
L 1259 0 
L 628 0 
L 628 4666 
L 2053 4666 
Q 2853 4666 3247 4331 
Q 3641 3997 3641 3322 
Q 3641 2881 3436 2590 
Q 3231 2300 2841 2188 
z
M 1259 4147 
L 1259 2491 
L 2053 2491 
Q 2509 2491 2742 2702 
Q 2975 2913 2975 3322 
Q 2975 3731 2742 3939 
Q 2509 4147 2053 4147 
L 1259 4147 
z
" transform="scale(0.015625)"/>
      <path id="DejaVuSans-41" d="M 2188 4044 
L 1331 1722 
L 3047 1722 
L 2188 4044 
z
M 1831 4666 
L 2547 4666 
L 4325 0 
L 3669 0 
L 3244 1197 
L 1141 1197 
L 716 0 
L 50 0 
L 1831 4666 
z
" transform="scale(0.015625)"/>
      <path id="DejaVuSans-49" d="M 628 4666 
L 1259 4666 
L 1259 0 
L 628 0 
L 628 4666 
z
" transform="scale(0.015625)"/>
      <path id="DejaVuSans-4e" d="M 628 4666 
L 1478 4666 
L 3547 763 
L 3547 4666 
L 4159 4666 
L 4159 0 
L 3309 0 
L 1241 3903 
L 1241 0 
L 628 0 
L 628 4666 
z
" transform="scale(0.015625)"/>
      <path id="DejaVuSans-34" d="M 2419 4116 
L 825 1625 
L 2419 1625 
L 2419 4116 
z
M 2253 4666 
L 3047 4666 
L 3047 1625 
L 3713 1625 
L 3713 1100 
L 3047 1100 
L 3047 0 
L 2419 0 
L 2419 1100 
L 313 1100 
L 313 1709 
L 2253 4666 
z
" transform="scale(0.015625)"/>
     </defs>
     <use xlink:href="#DejaVuSans-4b"/>
     <use xlink:href="#DejaVuSans-38" transform="translate(65.576172 0)"/>
     <use xlink:href="#DejaVuSans-5f" transform="translate(129.199219 0)"/>
     <use xlink:href="#DejaVuSans-53" transform="translate(179.199219 0)"/>
     <use xlink:href="#DejaVuSans-54" transform="translate(242.675781 0)"/>
     <use xlink:href="#DejaVuSans-52" transform="translate(303.759766 0)"/>
     <use xlink:href="#DejaVuSans-41" transform="translate(369.242188 0)"/>
     <use xlink:href="#DejaVuSans-49" transform="translate(437.650391 0)"/>
     <use xlink:href="#DejaVuSans-4e" transform="translate(467.142578 0)"/>
     <use xlink:href="#DejaVuSans-5f" transform="translate(541.947266 0)"/>
     <use xlink:href="#DejaVuSans-41" transform="translate(591.947266 0)"/>
     <use xlink:href="#DejaVuSans-34" transform="translate(660.355469 0)"/>
    </g>
   </g>
  </g>
 </g>
 <defs>
  <clipPath id="p28166f0ef5">
   <rect x="31.95" y="31.8" width="800.1" height="533.4"/>
  </clipPath>
 </defs>
</svg>
